<svg width="36" height="36" viewBox="0 0 36 36" fill="none" xmlns="http://www.w3.org/2000/svg">
<g id="refresh 1">
<g id="Layer 2">
<path id="Vector" d="M30.8038 11.7545H25.4235C25.131 11.7545 24.8505 11.6384 24.6437 11.4315C24.4369 11.2247 24.3207 10.9442 24.3207 10.6517C24.3207 10.3593 24.4369 10.0788 24.6437 9.87194C24.8505 9.66512 25.131 9.54894 25.4235 9.54894H29.7701L30.0818 4.69659C30.0898 4.55118 30.1267 4.40883 30.1905 4.27792C30.2543 4.14701 30.3436 4.03017 30.4532 3.93427C30.5628 3.83837 30.6905 3.76535 30.8287 3.71951C30.9669 3.67366 31.1129 3.65591 31.2581 3.6673C31.403 3.67683 31.5445 3.71483 31.6747 3.77913C31.8049 3.84343 31.9211 3.93277 32.0167 4.04203C32.1123 4.15129 32.1854 4.27833 32.2319 4.41587C32.2783 4.55342 32.2972 4.69878 32.2874 4.84363L31.908 10.7253C31.8893 11.0051 31.7647 11.2673 31.5596 11.4585C31.3545 11.6497 31.0842 11.7555 30.8038 11.7545Z" fill="#2E394D"/>
<path id="Vector_2" d="M18.0716 33.8096C15.297 33.809 12.5715 33.0782 10.1689 31.6904C7.76634 30.3027 5.77135 28.3071 4.38445 25.904C2.99755 23.501 2.2676 20.7752 2.26796 18.0007C2.26832 15.2261 2.99898 12.5005 4.3865 10.0978C5.77402 7.69516 7.76953 5.70001 10.1725 4.31292C12.5754 2.92584 15.3011 2.19567 18.0757 2.19582C20.8502 2.19596 23.5758 2.92641 25.9786 4.31374C28.3814 5.70108 30.3767 7.69643 31.764 10.0993C31.9103 10.3527 31.9498 10.6539 31.874 10.9366C31.7981 11.2192 31.6131 11.4602 31.3596 11.6064C31.1062 11.7527 30.805 11.7922 30.5223 11.7164C30.2397 11.6406 29.9987 11.4556 29.8525 11.2021C28.203 8.34274 25.5703 6.1806 22.4449 5.11849C19.3194 4.05638 15.9145 4.16676 12.8644 5.42904C9.81427 6.69133 7.3271 9.01944 5.86629 11.9796C4.40547 14.9397 4.07064 18.33 4.92418 21.5187C5.77772 24.7074 7.76142 27.4771 10.5057 29.3116C13.2499 31.1462 16.5675 31.9205 19.8403 31.4903C23.1131 31.0601 26.118 29.4547 28.2949 26.9733C30.4718 24.4919 31.6723 21.3037 31.6728 18.0027C31.6728 17.7102 31.789 17.4297 31.9958 17.2229C32.2027 17.0161 32.4832 16.8999 32.7757 16.8999C33.0681 16.8999 33.3486 17.0161 33.5555 17.2229C33.7623 17.4297 33.8785 17.7102 33.8785 18.0027C33.8738 22.1935 32.2069 26.2113 29.2436 29.1747C26.2802 32.1381 22.2624 33.8049 18.0716 33.8096Z" fill="#2E394D"/>
</g>
</g>
</svg>
