<svg width="36" height="36" viewBox="0 0 36 36" fill="none" xmlns="http://www.w3.org/2000/svg">
<path d="M5.19629 11.7545H10.5765C10.869 11.7545 11.1495 11.6384 11.3563 11.4315C11.5631 11.2247 11.6793 10.9442 11.6793 10.6517C11.6793 10.3593 11.5631 10.0788 11.3563 9.87194C11.1495 9.66512 10.869 9.54894 10.5765 9.54894H6.22999L5.91826 4.69659C5.91028 4.55118 5.87331 4.40883 5.80952 4.27792C5.74573 4.14701 5.65641 4.03017 5.54682 3.93427C5.43722 3.83837 5.30956 3.76535 5.17133 3.71951C5.03311 3.67366 4.88712 3.65591 4.74194 3.6673C4.59707 3.67683 4.4555 3.71483 4.32534 3.77913C4.19517 3.84343 4.07897 3.93277 3.98336 4.04203C3.88776 4.15129 3.81464 4.27833 3.76819 4.41587C3.72174 4.55342 3.70287 4.69878 3.71265 4.84363L4.09202 10.7253C4.11071 11.0051 4.2353 11.2673 4.44044 11.4585C4.64558 11.6497 4.91586 11.7555 5.19629 11.7545Z" fill="#2E394D"/>
<path d="M17.9285 33.8096C20.7031 33.809 23.4286 33.0782 25.8312 31.6904C28.2337 30.3027 30.2287 28.3071 31.6156 25.904C33.0025 23.501 33.7325 20.7752 33.7321 18.0007C33.7318 15.2261 33.0011 12.5005 31.6136 10.0978C30.2261 7.69516 28.2305 5.70001 25.8276 4.31292C23.4247 2.92584 20.699 2.19567 17.9244 2.19582C15.1499 2.19596 12.4242 2.92641 10.0214 4.31374C7.61864 5.70108 5.62334 7.69643 4.23606 10.0993C4.08982 10.3527 4.05027 10.6539 4.1261 10.9366C4.20193 11.2192 4.38694 11.4602 4.64043 11.6064C4.89391 11.7527 5.19511 11.7922 5.47776 11.7164C5.76041 11.6406 6.00136 11.4556 6.1476 11.2021C7.79705 8.34274 10.4298 6.1806 13.5552 5.11849C16.6806 4.05638 20.0856 4.16676 23.1357 5.42904C26.1858 6.69133 28.673 9.01944 30.1338 11.9796C31.5946 14.9397 31.9294 18.33 31.0759 21.5187C30.2224 24.7074 28.2387 27.4771 25.4944 29.3116C22.7502 31.1462 19.4326 31.9205 16.1597 31.4903C12.8869 31.0601 9.88212 29.4547 7.7052 26.9733C5.52828 24.4919 4.32773 21.3037 4.32723 18.0027C4.32723 17.7102 4.21104 17.4297 4.00423 17.2229C3.79741 17.0161 3.51691 16.8999 3.22442 16.8999C2.93194 16.8999 2.65144 17.0161 2.44462 17.2229C2.23781 17.4297 2.12162 17.7102 2.12162 18.0027C2.12629 22.1935 3.79315 26.2113 6.75651 29.1747C9.71986 32.1381 13.7377 33.8049 17.9285 33.8096Z" fill="#2E394D"/>
<path d="M15.3067 13.5648V22.1199H13.7569V15.0728H13.7068L11.7058 16.351V14.9307L13.8321 13.5648H15.3067ZM20.8763 22.2828C20.1885 22.2828 19.5981 22.1087 19.1052 21.7606C18.615 21.4097 18.2377 20.9043 17.9731 20.2443C17.7113 19.5815 17.5805 18.7836 17.5805 17.8507C17.5832 16.9177 17.7155 16.1241 17.9773 15.4696C18.2419 14.8124 18.6192 14.3111 19.1093 13.9658C19.6023 13.6205 20.1913 13.4478 20.8763 13.4478C21.5614 13.4478 22.1504 13.6205 22.6433 13.9658C23.1363 14.3111 23.5136 14.8124 23.7754 15.4696C24.0399 16.1268 24.1722 16.9205 24.1722 17.8507C24.1722 18.7864 24.0399 19.5856 23.7754 20.2484C23.5136 20.9085 23.1363 21.4125 22.6433 21.7606C22.1532 22.1087 21.5642 22.2828 20.8763 22.2828ZM20.8763 20.9753C21.411 20.9753 21.8329 20.7121 22.1421 20.1858C22.454 19.6567 22.6099 18.8783 22.6099 17.8507C22.6099 17.1712 22.5389 16.6003 22.3969 16.138C22.2548 15.6757 22.0543 15.3276 21.7953 15.0937C21.5364 14.8569 21.23 14.7386 20.8763 14.7386C20.3444 14.7386 19.9239 15.0032 19.6148 15.5323C19.3057 16.0586 19.1497 16.8314 19.1469 17.8507C19.1442 18.533 19.2124 19.1067 19.3516 19.5717C19.4937 20.0368 19.6942 20.3877 19.9532 20.6244C20.2121 20.8583 20.5199 20.9753 20.8763 20.9753Z" fill="#2E394D"/>
</svg>
