<svg width="133" height="202" viewBox="0 0 133 202" fill="none" xmlns="http://www.w3.org/2000/svg">
<g clip-path="url(#clip0_663_3107)">
<path d="M67.2974 201.096C100.419 201.096 127.27 198.925 127.27 196.248C127.27 193.57 100.419 191.4 67.2974 191.4C34.1757 191.4 7.3252 193.57 7.3252 196.248C7.3252 198.925 34.1757 201.096 67.2974 201.096Z" fill="#C7D1EA"/>
<path d="M55.5023 192.299C55.1429 193.198 54.4241 193.738 53.6141 193.915C53.1636 194.006 52.7131 194.006 52.2625 193.824C47.6711 192.117 43.5302 193.733 43.4391 193.733H43.3479C39.6576 196.066 38.306 199.571 38.2148 199.571C38.1237 199.662 38.1237 199.839 38.0326 199.929C37.4049 201.01 36.1444 201.455 34.8788 201.01C33.5272 200.47 32.8995 199.036 33.4361 197.687C33.5272 197.505 34.3372 195.44 36.3165 193.107L36.5848 192.839C35.2332 193.107 33.5221 193.829 31.8111 195.445C31.4517 195.804 31.0012 195.985 30.5506 196.071C29.7407 196.253 28.8396 195.98 28.2119 195.263C28.0296 195.081 27.8524 194.814 27.7613 194.632C27.3108 193.642 27.493 192.475 28.303 191.667C32.0845 188.163 35.9571 187.355 39.0197 187.622C38.4781 184.299 38.4781 180.613 38.4781 180.613C39.288 180.254 39.9208 179.987 40.5485 179.805C44.33 178.906 45.8588 181.33 45.8588 181.33C45.8588 181.33 45.8588 184.744 45.2311 187.89C47.4838 187.622 50.5414 187.622 53.8774 188.88C55.315 189.511 55.9478 190.945 55.4973 192.294L55.5023 192.299Z" fill="#F9C710"/>
<path d="M41.5458 181.517L41.0041 189.243C41.0041 189.243 32.5401 188.435 27.8575 194.632C27.407 193.642 27.5892 192.475 28.3992 191.667C32.1807 188.163 36.0533 187.355 39.1159 187.622C38.5743 184.299 38.5743 180.613 38.5743 180.613C39.3842 180.254 40.017 179.986 40.6447 179.805L41.5458 181.512V181.517Z" fill="#FFD95F"/>
<path d="M38.0326 199.935C37.4049 201.015 36.1444 201.46 34.8789 201.015C33.5272 200.475 32.8995 199.041 33.4361 197.692C33.5272 197.51 34.3372 195.445 36.3165 193.112C36.4077 193.021 36.4988 193.021 36.5848 192.93C36.5848 192.93 34.6055 199.49 38.0276 199.94L38.0326 199.935Z" fill="#FFD95F"/>
<path d="M35.9622 202C35.5117 202 35.0611 201.909 34.7017 201.732C33.1729 201.192 32.0896 199.576 32.8135 197.601C32.9046 197.42 33.3552 196.162 34.5245 194.546C33.8057 194.995 33.0818 195.445 32.363 196.162C31.9124 196.612 31.3708 196.879 30.743 196.97C29.3914 197.238 27.9538 196.612 27.2299 195.172C26.511 193.824 26.7793 192.299 27.9487 191.309C31.7302 187.804 35.6028 186.996 38.306 186.996C37.8555 183.941 37.8555 180.885 37.8555 180.8C37.8555 180.532 38.0377 180.259 38.2149 180.173C43.9757 177.391 46.5878 181.163 46.5878 181.254C46.6789 181.345 46.6789 181.522 46.6789 181.613C46.6789 181.704 46.6789 184.486 46.2284 187.36C49.0177 187.178 51.7209 187.542 54.2419 188.44C56.2213 189.158 56.6718 191.137 56.1301 192.571C55.5885 194.097 53.9686 195.268 51.9892 194.546C49.2151 193.541 46.6638 193.768 45.1046 194.086C44.1883 194.273 43.3328 194.667 42.6089 195.258C40.0576 197.349 38.9337 199.935 38.9337 199.935C38.3921 201.374 37.2227 202 35.9622 202ZM36.595 192.208C36.8633 192.208 37.0455 192.299 37.2227 192.566C37.4049 192.834 37.3138 193.198 37.1316 193.374C35.0611 195.708 34.1601 197.955 34.1601 198.046C33.7095 199.212 34.4284 200.02 35.2383 200.379C36.0483 200.737 37.1265 200.561 37.5771 199.389C37.653 199.233 38.7414 196.536 41.5256 194.238C42.6798 193.289 44.077 192.652 45.5551 192.43C47.3219 192.167 49.7264 192.213 52.4347 193.188C53.6041 193.637 54.414 192.92 54.7735 192.107C55.1329 191.299 54.8646 190.223 53.6952 189.774C51.0831 188.784 48.2938 188.516 45.4083 188.875C45.14 188.875 44.9578 188.784 44.7806 188.693C44.5984 188.511 44.5984 188.334 44.5984 188.062C45.0489 185.456 45.2261 182.673 45.2261 181.865C44.7755 181.325 42.9734 179.618 39.1919 181.325C39.1919 182.406 39.283 185.188 39.7336 187.703C39.7336 187.885 39.7336 188.153 39.5513 188.334C39.3691 188.516 39.1919 188.602 38.9236 188.602C36.4026 188.42 32.6211 188.87 28.7485 192.465C28.0297 193.097 28.1208 193.991 28.3891 194.622C28.6574 195.253 29.3813 195.879 30.2773 195.612C30.6367 195.521 30.9962 195.344 31.1784 195.162C32.7983 193.637 36.5798 192.198 36.5798 192.198L36.595 192.208Z" fill="#BA5D08"/>
<path d="M76.2119 192.299C76.5713 193.198 77.2901 193.738 78.1001 193.915C78.5506 194.006 79.0012 194.006 79.4517 193.824C84.0431 192.117 88.184 193.733 88.2752 193.733H88.3663C92.0567 196.066 93.4083 199.571 93.4994 199.571C93.5905 199.662 93.5905 199.839 93.6816 199.929C94.3093 201.01 95.5698 201.455 96.8354 201.01C98.187 200.47 98.8147 199.036 98.2781 197.687C98.187 197.505 97.3771 195.44 95.3977 193.107L95.1294 192.839C96.481 193.107 98.1921 193.829 99.9031 195.445C100.263 195.804 100.713 195.985 101.164 196.071C101.974 196.253 102.875 195.98 103.502 195.263C103.685 195.081 103.862 194.814 103.953 194.632C104.403 193.642 104.221 192.475 103.411 191.667C99.6297 188.163 95.7571 187.355 92.6945 187.622C93.2362 184.299 93.2361 180.613 93.2361 180.613C92.4262 180.254 91.7934 179.987 91.1657 179.805C87.3842 178.906 85.8554 181.33 85.8554 181.33C85.8554 181.33 85.8554 184.744 86.4831 187.89C84.2304 187.622 81.1729 187.622 77.8368 188.88C76.3941 189.511 75.7664 190.945 76.2169 192.294L76.2119 192.299Z" fill="#F9C710"/>
<path d="M90.1736 181.517L90.7152 189.243C90.7152 189.243 99.1793 188.435 103.862 194.632C104.312 193.642 104.13 192.475 103.32 191.667C99.5387 188.163 95.6661 187.355 92.6034 187.622C93.1451 184.299 93.1451 180.613 93.1451 180.613C92.3352 180.254 91.7024 179.986 91.0747 179.805L90.1736 181.512V181.517Z" fill="#FFD95F"/>
<path d="M93.6816 199.935C94.3094 201.015 95.5699 201.46 96.8354 201.015C98.187 200.475 98.8147 199.041 98.2781 197.692C98.187 197.51 97.3771 195.445 95.3977 193.112C95.3066 193.021 95.2155 193.021 95.1294 192.93C95.1294 192.93 97.1088 199.49 93.6867 199.94L93.6816 199.935Z" fill="#FFD95F"/>
<path d="M95.6662 202C94.4968 202 93.3275 201.369 92.6947 199.935C92.6947 199.935 91.5911 197.212 88.8423 195.102C88.2399 194.637 87.5312 194.324 86.7921 194.167C85.2431 193.839 82.5399 193.536 79.6392 194.546C77.6599 195.263 76.04 194.097 75.4983 192.571C74.9566 191.046 75.4072 189.158 77.3865 188.44C79.9075 187.542 82.6107 187.183 85.4 187.36C84.9495 184.486 84.9495 181.698 84.9495 181.613C84.9495 181.431 84.9495 181.345 85.0406 181.254C85.0406 181.254 87.6527 177.391 93.4135 180.173C93.6818 180.264 93.773 180.532 93.773 180.805C93.773 180.986 93.773 183.951 93.3224 187.001C96.1117 186.91 99.8932 187.718 103.68 191.314C104.758 192.213 105.031 193.829 104.307 195.177C103.584 196.526 102.237 197.243 100.794 196.884C100.253 196.793 99.6249 196.526 99.1744 196.076C98.4555 195.45 97.7316 194.91 97.0128 194.46C98.091 196.076 98.6327 197.334 98.7238 197.515C99.4427 199.49 98.3644 201.106 96.8356 201.647C96.5622 201.914 96.1117 202.005 95.6662 202.005V202ZM84.0484 192.39C85.0355 192.39 85.9113 192.486 86.6251 192.612C88.0881 192.864 89.4549 193.511 90.523 194.536C92.5378 196.46 94.0615 199.263 94.1324 199.399C94.5829 200.566 95.6612 200.748 96.4711 200.389C97.2811 200.03 97.9999 199.222 97.5494 198.056C97.5494 197.965 96.6483 195.723 94.5778 193.384C94.3956 193.117 94.3095 192.844 94.4867 192.576C94.6639 192.309 94.9373 192.218 95.2056 192.218C97.0077 192.576 98.7188 193.475 100.339 195.001C100.607 195.268 100.88 195.359 101.24 195.45C102.232 195.632 102.86 195.001 103.219 194.46C103.487 193.834 103.578 192.935 102.86 192.304C98.9871 188.713 95.2056 188.173 92.6846 188.44C92.5023 188.44 92.234 188.35 92.0569 188.173C91.8797 187.996 91.8746 187.814 91.8746 187.541C92.3252 184.936 92.4163 182.244 92.4163 181.163C88.7259 179.547 86.9238 181.163 86.3821 181.704C86.3821 182.512 86.4732 185.294 87.0098 187.9C87.0098 188.082 87.0098 188.35 86.8276 188.531C86.6453 188.713 86.4682 188.799 86.1999 188.713C83.3194 188.355 80.5251 188.713 77.918 189.612C76.7487 190.062 76.5664 191.137 76.8398 191.945C77.1992 192.844 78.0092 193.47 79.1785 193.026C80.9807 192.667 82.6006 192.395 84.0383 192.395L84.0484 192.39Z" fill="#BA5D08"/>
<path d="M59.1067 173.164C56.3174 176.31 53.523 178.552 50.8248 179.992C39.6576 185.653 29.0319 177.386 21.8284 161.937C16.7864 151.069 14.4426 136.424 11.4711 124.566C11.4711 124.566 9.85115 112.976 9.13231 108.664C9.04119 108.123 8.95007 107.674 8.86401 107.406L11.2028 114.325L18.0469 122.678L58.9295 172.891L59.1117 173.159L59.1067 173.164Z" fill="#00962A"/>
<path d="M126.1 107.406C126.1 107.406 126.009 107.765 125.918 108.487C125.65 109.568 125.29 111.36 124.749 113.784C124.121 116.39 123.397 119.713 122.41 123.395C120.522 130.763 118.087 139.833 115.206 148.186C113.495 153.216 111.693 157.978 109.805 162.018C102.601 177.472 92.0668 185.734 80.8084 180.072C79.0974 179.264 77.4775 178.098 75.7664 176.568C74.7742 175.669 73.7871 174.679 72.7949 173.603C72.7038 173.512 72.6127 173.421 72.5266 173.245L120.071 114.764L120.43 114.406L125.564 108.118L126.105 107.396L126.1 107.406Z" fill="#00962A"/>
<path d="M39.6778 22.8771L35.623 26.5586L16.1739 44.2543L9.32975 50.4508C4.73831 47.3096 0.146869 40.7545 0.779647 36.2599C0.961888 34.8206 1.94902 34.2853 3.1184 34.2853C4.37889 34.2853 5.90769 34.8257 7.08212 35.366C8.07432 35.8155 8.79316 36.265 8.88428 36.265C8.88428 36.265 8.70204 35.9973 8.43374 35.5478C6.72271 32.8511 1.41243 23.781 3.48288 18.9279C4.83449 15.8725 7.53266 16.4129 9.78536 17.5795C11.7647 18.5693 13.3846 20.0944 13.4757 20.1854C11.6736 17.4886 10.322 11.9183 10.1448 7.33783C9.87648 1.40898 11.6736 -2.63617 17.4394 4.10575C20.411 7.51964 23.5648 10.575 26.4452 13.1808C33.5576 19.4682 39.6829 22.8821 39.6829 22.8821L39.6778 22.8771Z" fill="#00962A"/>
<path d="M8.43381 35.5428C6.72278 32.846 1.4125 23.776 3.48295 18.9228C4.83457 15.8675 7.5378 16.4079 9.78543 17.5744C9.78543 17.6653 3.20959 18.9228 8.43381 35.5428Z" fill="#006017"/>
<path d="M12.033 46.143L9.32975 50.5467C4.73831 47.4005 0.146869 40.8404 0.779647 36.3508C0.961888 34.9115 1.94902 34.3762 3.1184 34.3762L7.08212 35.4569C7.17324 35.366 2.30844 38.6032 12.033 46.1481V46.143Z" fill="#006017"/>
<path d="M39.678 22.8771C39.5868 22.7862 39.5868 22.8771 39.678 22.8771C39.6172 22.8165 39.6172 22.8165 39.678 22.8771C39.6172 22.8165 39.5565 22.7862 39.4957 22.7862C39.4957 22.7862 39.4046 22.7862 39.4046 22.6953C39.4046 22.6953 39.3135 22.6044 39.2224 22.6044C39.1312 22.6044 39.1312 22.5135 39.0401 22.5135C38.949 22.4226 38.7718 22.3316 38.5896 22.2458C38.4985 22.1549 38.4073 22.1549 38.3213 22.064C38.139 21.9731 37.9619 21.7963 37.6936 21.7054C35.3548 20.1803 31.1228 17.3017 26.4402 13.2616C23.4687 10.7467 20.406 7.69133 17.4345 4.18654C11.6737 -2.55032 9.87154 1.58068 10.1398 7.41862C10.1398 7.41862 12.4786 2.74726 16.3512 9.12557C16.9789 10.1154 24.2736 25.6546 15.9918 40.7444C15.9007 40.8353 15.9007 40.9262 15.8095 41.103C14.0985 44.1583 14.4579 44.9663 16.169 44.335L35.618 26.6394L39.6729 22.867L39.678 22.8771Z" fill="#007A1D"/>
<path d="M9.32979 51.1729C9.14755 51.1729 9.06149 51.1729 8.97037 51.082C4.11063 47.759 -0.571934 41.0222 0.0557822 36.169C0.238023 34.8206 0.956859 34.1944 1.58458 33.9217C3.11337 33.2046 5.27494 33.8308 6.98598 34.5479C4.8244 30.7755 0.860677 23.2306 2.84507 18.736C3.47279 17.2967 4.46499 16.4028 5.72548 16.1301C7.61369 15.7715 9.86639 16.7614 11.4863 17.837C9.23361 12.09 8.24647 2.65637 11.1269 0.499962C12.7468 -0.75752 15.0906 0.318157 17.971 3.73204C27.9639 15.3221 39.9411 22.1499 40.0322 22.2357C40.2145 22.3266 40.3916 22.5034 40.3916 22.7761C40.3916 23.0488 40.3005 23.2255 40.1233 23.4073L9.78033 51.077C9.68921 51.1679 9.51203 51.1679 9.32979 51.1679V51.1729ZM3.11843 35.0024C2.75901 35.0024 2.49072 35.0933 2.21735 35.1842C1.94906 35.2751 1.58964 35.5428 1.49852 36.3508C0.956859 40.3051 5.10283 46.4107 9.33485 49.5569L38.5085 22.968C35.537 21.1701 25.5441 14.6151 16.8978 4.64107C14.6451 2.0352 12.9341 0.959523 12.0381 1.58574C9.51709 3.47449 11.3192 15.5998 14.1085 19.8217C14.2908 20.0894 14.2908 20.5389 14.0174 20.7207C13.7491 20.9883 13.2986 20.9883 13.0252 20.7207C11.8558 19.645 8.34265 16.9482 6.08996 17.4886C5.28 17.6704 4.64723 18.2057 4.20175 19.2864C1.94906 24.5891 9.51203 35.8155 9.60315 35.9064C9.78539 36.1741 9.78539 36.5326 9.51203 36.8053C9.23867 37.078 8.88431 37.073 8.61095 36.8962C7.16822 36.0882 4.73835 35.0075 3.11843 35.0075V35.0024Z" fill="#006B19"/>
<path d="M93.4133 23.0538L97.4631 26.8263L116.735 44.7037L123.488 50.9911C128.171 47.8449 132.762 41.3807 132.134 36.8861C131.952 35.4468 130.965 34.9115 129.796 34.9115C128.535 34.9115 127.006 35.4519 125.746 35.9922C124.754 36.4417 123.944 36.8912 123.944 36.8912C123.944 36.8912 124.126 36.6235 124.394 36.174C126.105 33.5682 131.507 24.4982 129.436 19.645C128.176 16.5897 125.381 17.13 123.134 18.2966C121.154 19.2864 119.534 20.8116 119.443 20.8116C121.245 18.2057 122.683 12.5496 122.865 8.05494C123.134 2.12609 121.423 -1.91906 115.571 4.73196C112.599 8.14584 109.445 11.2012 106.474 13.7161C99.4526 19.7359 93.4184 23.0589 93.4184 23.0589L93.4133 23.0538Z" fill="#00962A"/>
<path d="M124.48 35.9923C126.191 33.3864 131.593 24.3164 129.522 19.4632C128.262 16.4079 125.473 16.9482 123.22 18.1148C123.311 18.1148 129.882 19.3723 124.48 35.9923Z" fill="#006017"/>
<path d="M120.876 46.5016L123.579 50.9053C128.262 47.7591 132.853 41.2949 132.226 36.8003C132.043 35.361 131.056 34.8257 129.887 34.8257L125.837 35.9064C125.837 35.8155 130.611 39.0476 120.886 46.5066L120.876 46.5016Z" fill="#006017"/>
<path d="M93.4133 23.0538C93.4741 23.0538 93.4741 23.0538 93.4133 23.0538C93.4741 22.9932 93.5348 22.9629 93.5956 22.9629C93.5956 22.9629 93.6867 22.9629 93.6867 22.872C93.6867 22.872 93.7778 22.7811 93.8689 22.7811C93.96 22.7811 93.96 22.6902 94.0512 22.6902C94.1423 22.5993 94.3195 22.5084 94.5017 22.4225C94.5928 22.3316 94.684 22.3316 94.77 22.2407C94.9523 22.1498 95.1294 21.9731 95.3977 21.8822C97.7365 20.4429 101.969 17.5694 106.742 13.5293C109.714 11.0143 112.867 7.95898 115.839 4.5451C121.6 -2.10087 123.402 1.93923 123.134 7.86808C123.134 7.86808 120.795 3.19671 116.922 9.48412C116.295 10.4739 108.818 26.0132 117.013 41.103C117.105 41.1939 117.105 41.2848 117.196 41.4615C118.907 44.5168 118.456 45.3249 116.836 44.6936L97.5644 26.8162L93.4235 23.0437L93.4133 23.0538Z" fill="#007A1D"/>
<path d="M123.488 51.6224C123.306 51.6224 123.129 51.5315 123.038 51.4406L92.8718 23.5942C92.6896 23.4124 92.6035 23.2356 92.6896 22.9629C92.6896 22.6953 92.8718 22.5135 93.049 22.4226C93.1401 22.3317 105.203 15.5948 115.201 4.09565C118.082 0.772667 120.426 -0.30806 122.045 0.949422C124.926 3.10583 123.848 12.6253 121.595 18.2865C123.215 17.2108 125.468 16.221 127.356 16.5796C128.616 16.8472 129.608 17.7461 130.236 19.1854C132.124 23.675 128.257 31.3108 126.004 34.9974C127.715 34.2803 129.877 33.649 131.406 34.3712C132.033 34.6388 132.757 35.2701 132.934 36.7043C133.562 41.5524 128.793 48.2944 123.929 51.5264C123.746 51.6173 123.655 51.6173 123.478 51.6173L123.488 51.6224ZM94.5828 23.2356L123.579 50.0063C127.811 46.951 132.043 40.8454 131.502 36.8912C131.411 36.0832 131.051 35.8155 130.783 35.7246C129.431 35.0075 126.1 36.4417 124.389 37.4315C124.121 37.6133 123.762 37.5224 123.488 37.3406C123.22 37.073 123.22 36.7144 123.397 36.4417C123.488 36.3508 131.142 25.1244 128.89 19.8217C128.439 18.8319 127.811 18.2057 127.001 18.0239C124.663 17.4835 121.149 20.1803 119.98 21.256C119.712 21.5236 119.352 21.5236 118.988 21.256C118.72 20.9883 118.628 20.6247 118.897 20.3571C121.686 16.1352 123.579 4.0098 121.149 2.12105C120.248 1.49484 118.446 2.57051 116.29 5.08547C107.643 14.9686 97.5594 21.4327 94.5879 23.2306L94.5828 23.2356Z" fill="#006B19"/>
<path d="M125.65 107.406C122.051 129.596 118.715 153.039 100.435 166.427C89.8092 174.244 75.7615 173.972 62.4377 173.164C34.9751 172.447 19.2164 147.201 12.6405 123.309C1.20495 82.615 -0.146668 27.907 46.4967 16.0493C80.9857 6.1662 122.587 23.1447 126.095 64.6467C126.814 78.8375 127.356 95.5484 125.645 107.406H125.65Z" fill="#00962A"/>
<path d="M35.3396 82.6201C49.5143 82.6201 61.0051 71.1567 61.0051 57.0159C61.0051 42.8751 49.5143 31.4118 35.3396 31.4118C21.1649 31.4118 9.67407 42.8751 9.67407 57.0159C9.67407 71.1567 21.1649 82.6201 35.3396 82.6201Z" fill="#4DC168"/>
<path d="M35.3345 83.3321H35.2434C28.2221 83.3321 21.5551 80.5495 16.6043 75.5196C11.6534 70.4897 8.9502 63.9296 8.9502 56.925C8.9502 49.9205 11.7395 43.2695 16.7815 38.3305C21.7323 33.3914 28.3993 30.6947 35.3295 30.6947H35.4206C50.0099 30.7856 61.7138 42.5524 61.7138 57.1068C61.7138 71.5704 49.9188 83.3372 35.3295 83.3372L35.3345 83.3321ZM35.3345 32.1289C28.6726 32.1289 22.4562 34.7348 17.7737 39.3152C13 43.9866 10.3879 50.274 10.3879 56.92C10.3879 63.5659 12.9089 69.8534 17.5914 74.5247C22.274 79.287 28.5765 81.8929 35.2384 81.8929H35.3295C49.0178 81.8929 60.2711 70.7523 60.2711 57.0967C60.3622 43.3553 49.1949 32.1239 35.3295 32.1239C35.3902 32.1239 35.3902 32.1239 35.3295 32.1239L35.3345 32.1289Z" fill="#006B19"/>
<path d="M50.8199 179.992C39.6526 185.653 29.027 177.386 21.8234 161.937C16.7814 151.069 14.4376 136.424 11.4661 124.566C11.4661 124.566 9.84617 112.976 9.12734 108.664V108.482C9.03622 108.123 9.03622 107.856 8.9451 107.492V107.401C8.13514 102.639 7.50236 97.9674 7.05688 93.4778C11.0206 96.0837 17.8597 100.573 17.8597 100.573C17.8597 100.573 17.318 109.376 18.128 122.764C18.4874 128.692 19.2062 135.611 20.3807 143.065C20.5629 144.055 20.7401 145.131 20.9223 146.12C25.2455 171.815 38.1187 179.896 50.8199 179.987V179.992Z" fill="#007A1D"/>
<path d="M124.749 113.694C123.038 124.385 121.235 132.379 118.355 140.464C117.363 143.161 116.376 145.676 115.201 148.1C113.49 153.13 111.688 157.892 109.8 161.932C102.596 177.386 92.0619 185.648 80.8035 179.987C79.0924 179.178 77.4725 178.012 75.7615 176.482C87.0148 179.805 93.4995 177.113 100.435 166.422C103.857 161.124 107.279 153.933 111.42 144.59C115.201 136.055 120.426 125.006 122.587 114.315C127.447 89.7004 126.009 65.1769 126.1 64.7275C126.191 65.6264 126.191 66.5253 126.283 67.4242C126.824 80.898 125.29 111.264 124.754 113.688L124.749 113.694Z" fill="#006017"/>
<path d="M121.332 61.3629C123.631 47.4631 114.2 34.3357 100.267 32.0421C86.3338 29.7485 73.1749 39.1572 70.8758 53.057C68.5767 66.9568 78.0079 80.0842 91.9411 82.3778C105.874 84.6714 119.033 75.2627 121.332 61.3629Z" fill="#4DC168"/>
<path d="M96.1167 83.4231H96.0256C81.5274 83.3322 69.8235 71.5654 69.8235 57.1018C69.9146 42.7291 81.6185 30.9623 96.1167 30.9623H96.2078C110.706 31.0532 122.41 42.82 122.41 57.2836C122.319 71.6563 110.615 83.4231 96.1167 83.4231ZM96.1167 32.3966C89.5459 32.3966 83.3295 34.9115 78.647 39.5829C73.9644 44.2543 71.3523 50.4508 71.3523 57.1018C71.2612 70.7573 82.4284 81.8929 96.1167 81.9838H96.2078C109.896 81.9838 120.972 70.9341 121.058 57.2785C121.058 43.623 109.891 32.4875 96.1167 32.3966C96.1775 32.3966 96.1775 32.3966 96.1167 32.3966Z" fill="#006B19"/>
<path d="M55.1029 60.1794C56.849 49.3038 49.4271 39.0753 38.5254 37.3333C27.6238 35.5913 17.3707 42.9955 15.6246 53.8711C13.8784 64.7467 21.3004 74.9752 32.202 76.7172C43.1037 78.4592 53.3567 71.0549 55.1029 60.1794Z" fill="#00962A"/>
<path d="M116.208 60.399C117.985 49.328 110.43 38.9155 99.3322 37.1422C88.2345 35.3689 77.7971 42.9063 76.0196 53.9774C74.242 65.0485 81.7974 75.4609 92.8951 77.2342C103.993 79.0075 114.43 71.4701 116.208 60.399Z" fill="#00962A"/>
<path d="M67.2113 40.6636C67.2113 42.82 65.7686 44.527 65.7686 44.527C65.7686 44.527 64.417 42.82 64.417 40.6636C64.417 38.5072 65.8597 36.8003 65.8597 36.8003C65.8597 36.8003 67.2113 38.5072 67.2113 40.6636Z" fill="#006B19"/>
<path d="M67.2973 20.7207C67.2973 22.8771 65.8545 24.584 65.8545 24.584C65.8545 24.584 64.5029 22.8771 64.5029 20.7207C64.5029 18.5643 65.9457 16.8573 65.9457 16.8573C65.9457 16.8573 67.2973 18.5643 67.2973 20.7207Z" fill="#006B19"/>
<path d="M57.4868 20.2712C58.1145 22.3367 57.3046 24.3164 57.3046 24.3164C57.3046 24.3164 55.5024 23.0589 54.8747 21.0843C54.247 19.1097 55.057 17.0442 55.057 17.0442C55.057 17.0442 56.8591 18.2108 57.4868 20.2763V20.2712Z" fill="#006B19"/>
<path d="M74.3237 20.3621C73.696 22.4276 74.5059 24.4073 74.5059 24.4073C74.5059 24.4073 76.3081 23.1498 77.0269 21.1752C77.6546 19.1097 76.8447 17.1351 76.8447 17.1351C76.8447 17.1351 74.9514 18.3017 74.3237 20.3672V20.3621Z" fill="#006B19"/>
<path d="M61.9871 30.8714C62.3466 32.9369 61.3594 34.9115 61.3594 34.9115C61.3594 34.9115 59.6484 33.4722 59.289 31.4067C58.9296 29.3412 59.9167 27.3616 59.9167 27.3616C59.9167 27.3616 61.5366 28.71 61.9871 30.8664V30.8714Z" fill="#006B19"/>
<path d="M69.7324 30.8714C69.2818 32.9369 70.3601 34.9115 70.3601 34.9115C70.3601 34.9115 72.0711 33.4722 72.4305 31.4067C72.79 29.3412 71.8028 27.3616 71.8028 27.3616C71.8028 27.3616 70.1829 28.8009 69.7324 30.8664V30.8714Z" fill="#006B19"/>
<path d="M72.6127 173.164C72.6127 173.164 65.9508 173.346 62.4376 173.164C62.4376 173.164 59.8255 172.982 58.6562 172.896C55.2341 170.922 37.3138 158.882 31.6441 133.369C25.9693 107.497 30.8341 93.8414 38.7565 93.0334C43.8896 92.4931 52.7131 99.7703 53.7053 107.765C53.7053 107.765 54.7836 91.0538 66.042 89.9781C77.2953 88.9024 78.6469 107.315 78.6469 107.315C78.6469 107.315 82.9701 90.4276 93.9551 94.4677C114.396 102.103 98.3694 163.816 72.6127 173.159V173.164Z" fill="#4DC168"/>
<path d="M63.4297 128.248C63.2475 128.248 63.0703 128.248 62.8881 128.157C60.6354 127.708 59.8254 125.46 59.466 123.309C58.7472 124.748 57.8461 126.273 56.5856 126.99C55.7756 127.44 54.8746 127.622 53.9735 127.349C52.713 126.99 51.8119 126.182 51.2703 125.016C49.7415 121.334 52.9813 114.956 53.1585 114.683C53.3407 114.325 53.7862 114.234 54.1507 114.416C54.5101 114.597 54.6012 115.042 54.419 115.406C53.5179 117.112 51.5386 121.966 52.6168 124.481C52.9762 125.198 53.5179 125.738 54.3278 126.006C54.8695 126.188 55.32 126.097 55.8566 125.824C57.836 124.657 59.1876 120.435 59.547 118.905C59.6381 118.547 59.9975 118.274 60.357 118.365C60.7164 118.456 60.9847 118.814 60.8986 119.173C60.8986 119.264 59.9975 126.182 63.0602 126.809C63.5107 126.9 63.779 126.809 64.1384 126.541C65.4901 125.374 65.7584 121.511 65.7584 120.072C65.7584 119.713 66.0267 119.446 66.3861 119.355C66.7455 119.355 67.1049 119.537 67.196 119.895C67.5555 121.42 68.9982 125.733 70.9775 125.733C71.4281 125.733 71.7875 125.551 72.1469 125.193C73.4985 123.844 73.7668 120.345 73.7668 119.082C73.7668 118.723 74.0351 118.365 74.4857 118.365C74.8451 118.365 75.2045 118.633 75.2045 118.996C75.4728 121.062 76.6472 126.45 79.4365 126.632C80.0642 126.632 80.4287 126.541 80.8793 126.092C82.5903 124.117 81.9575 117.915 81.507 115.673C81.4158 115.315 81.6892 114.956 82.0486 114.865C82.408 114.774 82.7675 115.047 82.8586 115.406C83.0408 116.304 84.3874 124.208 81.8664 126.996C81.2387 127.713 80.3376 128.076 79.2543 127.985C76.8244 127.804 75.3817 125.289 74.5717 123.046C74.3034 124.213 73.7617 125.379 73.0429 126.102C72.4152 126.728 71.6913 127.001 70.7902 127.001C68.902 127.001 67.6364 125.112 66.8265 123.41C66.5582 124.935 66.0165 126.642 64.9383 127.541C64.5789 128.081 64.0372 128.258 63.4095 128.258L63.4297 128.248Z" fill="#00962A"/>
<path d="M67.4795 142.888C67.2973 142.888 67.1201 142.888 66.9379 142.797C64.6852 142.348 63.8752 140.101 63.5158 137.949C62.797 139.389 61.8959 140.914 60.6354 141.631C59.8254 142.08 58.9244 142.257 58.0233 141.989C56.7628 141.631 55.8617 140.823 55.3201 139.656C53.7913 135.975 57.0311 129.596 57.2083 129.324C57.3905 128.965 57.836 128.874 58.2005 129.056C58.5599 129.238 58.651 129.682 58.4688 130.046C57.5677 131.753 55.5884 136.601 56.6666 139.121C57.026 139.838 57.5677 140.378 58.3777 140.646C58.9193 140.828 59.3698 140.737 59.9064 140.464C61.8858 139.298 63.2374 135.076 63.5968 133.546C63.6879 133.187 64.0474 132.919 64.4068 133.005C64.7662 133.091 65.0345 133.455 64.9484 133.813C64.9484 133.904 64.0474 140.823 67.11 141.449C67.5605 141.54 67.8288 141.449 68.1883 141.181C69.5399 140.015 69.8082 136.151 69.8082 134.712C69.8082 134.354 70.0765 134.081 70.4359 133.995C70.7953 133.995 71.1547 134.177 71.2458 134.535C71.6053 135.975 73.048 140.282 75.0273 140.373C75.2096 140.373 75.569 140.373 75.9284 139.656C76.8295 137.858 76.1967 133.369 74.2174 131.122C73.9491 130.854 73.9491 130.404 74.3085 130.132C74.5768 129.864 75.0273 129.864 75.3007 130.223C77.4623 132.738 78.4545 137.767 77.1889 140.282C76.7384 141.272 75.9284 141.808 74.9362 141.722C73.1341 141.631 71.7824 139.833 70.9725 138.04C70.7042 139.656 70.1625 141.363 69.0843 142.171C68.6337 142.712 68.0921 142.888 67.4644 142.888H67.4795Z" fill="#00962A"/>
<path d="M62.1693 153.312C61.8098 153.312 61.3593 153.221 60.9999 153.13C56.6767 151.691 58.4789 144.595 58.57 144.237C58.6611 143.878 59.0206 143.605 59.4711 143.696C59.8305 143.787 60.0988 144.146 60.0128 144.595C60.0128 144.686 58.57 150.792 61.5416 151.782C62.1693 151.963 62.802 151.963 63.2526 151.6C64.8725 150.61 65.6825 147.378 65.8647 146.211C65.9558 145.853 66.2241 145.58 66.5835 145.58C66.943 145.58 67.2112 145.848 67.3024 146.211C67.4846 147.469 68.2946 150.792 70.1828 151.514C70.6333 151.696 70.9016 151.605 71.175 151.332C72.1672 150.433 72.5266 147.741 72.1672 146.029C72.0761 145.671 72.3494 145.221 72.7088 145.131C73.0683 145.04 73.5188 145.312 73.6099 145.671C74.0605 147.469 73.7921 150.974 72.1672 152.317C71.4483 152.948 70.5473 153.034 69.6462 152.675C68.1174 152.049 67.1252 150.428 66.5835 148.903C66.0419 150.251 65.323 151.777 64.0625 152.585C63.3437 153.125 62.802 153.302 62.1743 153.302L62.1693 153.312Z" fill="#00962A"/>
<path d="M73.9645 63.9295C73.1545 67.8838 71.8029 73.1814 70.0007 76.7771C68.7402 79.3829 67.2114 81.1808 65.5004 81.1808C61.7189 81.0899 59.0157 70.5806 57.6691 63.7528C57.0414 60.6066 58.7474 57.4654 61.6329 56.2988C62.0834 56.117 62.6251 55.9402 63.2528 55.8493C65.2321 55.5817 67.0343 55.6675 68.5631 55.9402C72.3446 56.7483 74.7744 60.344 73.9645 63.9346V63.9295Z" fill="#F9C710"/>
<path d="M70.0918 76.8629C68.8313 79.4688 67.3025 81.2666 65.5915 81.2666C61.81 81.1757 59.1068 70.6664 57.7602 63.8386C57.1325 60.6924 58.8385 57.5512 61.7239 56.3846C61.7239 56.3846 60.5546 75.8781 70.0969 76.868L70.0918 76.8629Z" fill="#FFD95F"/>
<path d="M65.5864 81.8928C65.5257 81.8928 65.5257 81.8928 65.5864 81.8928C62.2555 81.8019 59.3751 75.7822 57.0313 63.9245C56.6719 61.9499 57.1224 59.8793 58.2918 58.1774C59.4611 56.5614 61.2633 55.4807 63.2426 55.213C65.0448 54.9454 66.933 55.0312 68.8263 55.3039C70.8056 55.6625 72.5166 56.7432 73.686 58.4502C74.7643 60.0662 75.2148 62.0408 74.7643 64.0204C72.2433 75.969 69.1806 81.8979 65.5814 81.8979L65.5864 81.8928ZM65.5004 56.5614C64.7816 56.5614 64.0577 56.6523 63.3388 56.7432C61.7189 56.925 60.3673 57.8189 59.3751 59.0764C58.3829 60.4248 58.0235 62.1317 58.3829 63.6568C60.4533 74.1661 63.0655 80.4536 65.4953 80.4536C68.1986 80.4536 71.079 74.2571 73.2405 63.7477C73.6 62.2226 73.2405 60.6015 72.3395 59.2582C71.4384 57.9148 70.0868 57.0109 68.4669 56.7432C67.4747 56.6523 66.4875 56.5614 65.4953 56.5614H65.5004Z" fill="#BA5D08"/>
<path d="M43.7985 182.507C43.0797 182.507 42.3558 182.416 41.6369 182.325C33.9828 181.244 26.7793 174.063 21.1956 162.2C12.281 143.065 8.23126 107.765 8.14014 107.401C8.14014 107.042 8.40843 106.684 8.76785 106.593C9.12727 106.502 9.48669 106.861 9.57781 107.224C9.57781 107.583 13.7187 142.616 22.4561 161.574C27.7664 172.982 34.6105 179.901 41.8141 180.885C47.4889 181.693 53.0674 178.911 58.56 172.709C58.8283 172.442 59.2788 172.351 59.5522 172.618C59.8255 172.886 59.9116 173.335 59.6433 173.608C54.5102 179.537 49.1948 182.501 43.7934 182.501L43.7985 182.507Z" fill="#006B19"/>
<path d="M37.6732 177.027C35.9622 175.77 35.3345 173.613 35.3345 173.613C35.3345 173.613 37.5872 173.522 39.2982 174.78C41.0092 176.037 41.6369 178.194 41.6369 178.194C41.6369 178.194 39.3843 178.285 37.6732 177.027Z" fill="#006B19"/>
<path d="M37.8556 171.189C36.2356 169.75 35.8762 167.599 35.8762 167.599C35.8762 167.599 38.1289 167.689 39.6577 169.124C41.2776 170.563 41.637 172.719 41.637 172.719C41.637 172.719 39.3843 172.628 37.8556 171.194V171.189Z" fill="#006B19"/>
<path d="M30.5609 169.21C29.2092 167.503 29.3004 165.346 29.3004 165.346C29.3004 165.346 31.4619 165.887 32.8135 167.503C34.1652 169.21 34.074 171.366 34.074 171.366C34.074 171.366 31.8213 170.916 30.5609 169.21Z" fill="#006B19"/>
<path d="M87.9208 182.507C82.5194 182.507 77.2041 179.542 72.071 173.704C71.8027 173.437 71.8027 172.987 72.1621 172.714C72.4304 172.447 72.8809 172.447 73.1543 172.805C78.6468 179.093 84.2304 181.789 89.9001 180.981C97.0126 179.992 103.948 173.078 109.258 161.67C118.173 142.444 124.298 121.067 125.467 104.538C125.467 104.179 125.827 103.821 126.186 103.906C126.546 103.906 126.905 104.265 126.814 104.623C125.645 121.334 119.519 142.893 110.514 162.296C105.021 174.154 97.7263 181.34 90.0723 182.416C89.3534 182.416 88.6346 182.507 87.9107 182.507H87.9208Z" fill="#006B19"/>
<path d="M94.0411 177.027C95.7522 175.77 96.3799 173.613 96.3799 173.613C96.3799 173.613 94.1272 173.522 92.4161 174.78C90.7051 176.037 90.0774 178.194 90.0774 178.194C90.0774 178.194 92.3301 178.285 94.0411 177.027Z" fill="#006B19"/>
<path d="M93.864 171.189C95.4839 169.75 95.8433 167.599 95.8433 167.599C95.8433 167.599 93.5906 167.689 92.0619 169.124C90.4419 170.563 90.0825 172.719 90.0825 172.719C90.0825 172.719 92.3352 172.628 93.864 171.194V171.189Z" fill="#006B19"/>
<path d="M101.159 169.21C102.51 167.503 102.419 165.346 102.419 165.346C102.419 165.346 100.258 165.887 98.9061 167.503C97.5545 169.119 97.6456 171.366 97.6456 171.366C97.6456 171.366 99.8071 170.916 101.159 169.21Z" fill="#006B19"/>
<path d="M66.6697 174.33C62.7971 174.33 59.2839 173.972 59.0156 173.972C58.6562 173.972 58.2967 173.613 58.3879 173.164C58.3879 172.805 58.7928 172.381 59.2434 172.472C59.7192 172.517 67.2164 173.346 72.4356 172.538C72.795 172.447 73.1544 172.719 73.2455 173.164C73.3366 173.522 73.0633 173.881 72.6178 173.972C70.8156 174.154 68.7452 174.33 66.6747 174.33H66.6697Z" fill="#006B19"/>
<path d="M102.188 71.4398C110.066 68.1119 113.748 59.0431 110.412 51.184C107.076 43.3248 97.9855 39.6516 90.1075 42.9795C82.2296 46.3074 78.5475 55.3763 81.8834 63.2354C85.2193 71.0945 94.3099 74.7678 102.188 71.4398Z" fill="white"/>
<path d="M96.1167 73.3632C87.2021 73.3632 79.9986 66.1768 79.9075 57.2836C79.9075 52.9708 81.5274 48.8398 84.59 45.7844C87.6527 42.7291 91.7025 40.9363 96.0256 40.9363C100.349 40.9363 104.49 42.5524 107.552 45.6077C110.615 48.663 112.412 52.7031 112.412 57.0159C112.412 61.3287 110.792 65.4597 107.729 68.515C104.667 71.5704 100.617 73.3632 96.2939 73.3632H96.1167ZM96.1167 42.3705H96.0256C92.0619 42.3705 88.3715 43.9866 85.5822 46.7743C82.7929 49.5569 81.2591 53.3293 81.3502 57.2836C81.4413 65.3688 88.0121 71.9239 96.1167 71.9239H96.2079C104.404 71.833 110.974 65.187 110.883 57.0109C110.883 53.0566 109.263 49.3751 106.469 46.5925C103.675 43.8098 100.075 42.3705 96.1117 42.3705H96.1167Z" fill="#006B19"/>
<path d="M96.137 69.8887C103.149 69.8887 108.833 64.218 108.833 57.223C108.833 50.2279 103.149 44.5573 96.137 44.5573C89.1251 44.5573 83.4409 50.2279 83.4409 57.223C83.4409 64.218 89.1251 69.8887 96.137 69.8887Z" fill="#22213F"/>
<path d="M91.7936 52.1628C91.7936 53.4202 90.8014 54.4959 89.5409 54.4959C88.2804 54.4959 87.2021 53.5061 87.2021 52.2486C87.2021 50.9911 88.1944 49.9154 89.4548 49.9154C90.7153 49.8245 91.7936 50.9053 91.7936 52.1628Z" fill="white"/>
<path d="M41.3766 71.2397C49.2545 67.9118 52.9366 58.8429 49.6007 50.9838C46.2648 43.1247 37.1742 39.4514 29.2963 42.7793C21.4183 46.1072 17.7362 55.1761 21.0721 63.0352C24.408 70.8943 33.4986 74.5676 41.3766 71.2397Z" fill="white"/>
<path d="M35.3344 73.1814C26.4198 73.1814 19.2162 65.9951 19.1251 57.1018C19.034 48.2085 26.2376 40.8404 35.2433 40.7545C39.5664 40.7545 43.7073 42.3706 46.77 45.4259C49.8326 48.4812 51.6297 52.5213 51.6297 56.8341C51.6297 61.1469 50.0098 65.2779 46.9471 68.3333C43.8845 71.3886 39.8347 73.1814 35.5116 73.1814C35.4508 73.1814 35.3918 73.1814 35.3344 73.1814ZM35.3344 42.1888H35.2433C27.0475 42.2797 20.4767 48.9256 20.5679 57.1018C20.659 65.187 27.2298 71.7421 35.3344 71.7421H35.4255C43.6213 71.6512 50.192 65.0052 50.1009 56.8291C50.1009 52.8748 48.481 49.1933 45.6867 46.4107C42.9834 43.7139 39.2931 42.1888 35.3293 42.1888H35.3344Z" fill="#006B19"/>
<path d="M35.3953 69.6917C42.4071 69.6917 48.0914 64.0211 48.0914 57.026C48.0914 50.0309 42.4071 44.3603 35.3953 44.3603C28.3834 44.3603 22.6992 50.0309 22.6992 57.026C22.6992 64.0211 28.3834 69.6917 35.3953 69.6917Z" fill="#22213F"/>
<path d="M28.7537 49.7488C29.999 49.7488 31.0064 50.7538 31.0064 51.9961C31.0064 53.2384 29.999 54.2434 28.7537 54.2434C27.5084 54.2434 26.501 53.2384 26.501 51.9961C26.501 50.7538 27.5084 49.7488 28.7537 49.7488Z" fill="white"/>
<path d="M8.9502 108.128C8.59078 108.128 8.32248 107.861 8.23136 107.502C4.35876 85.8521 4.90041 65.5506 7.06199 55.8493C10.3018 41.2949 18.7659 29.5281 31.6442 21.8014C43.262 14.7918 57.6691 11.6506 72.1623 12.9081C86.4783 14.1656 99.6249 19.645 109.263 28.2706C120.157 38.0628 126.283 51.5365 126.91 67.3485C127.538 81.7211 127.452 93.7606 126.819 104.361C126.819 104.719 126.46 105.078 126.1 104.992C125.741 104.992 125.382 104.634 125.473 104.275C126.191 93.7657 126.191 81.7262 125.564 67.4444C124.035 31.5128 95.7573 16.423 72.0762 14.3525C46.4158 12.1051 15.526 24.2355 8.50472 56.2129C6.34315 66.096 6.07485 86.847 9.6741 107.325C9.76522 107.684 9.49186 108.042 9.13244 108.133C9.04132 108.133 8.9502 108.133 8.9502 108.133V108.128Z" fill="#006B19"/>
<path d="M57.0363 16.3169C57.0363 16.3169 54.6976 11.7365 56.6769 8.5044C58.6562 5.27232 61.7189 10.7517 61.7189 10.7517C61.7189 10.7517 62.0783 4.82286 65.1409 4.64105C68.2036 4.45925 68.563 10.8376 68.563 10.8376C68.563 10.8376 70.1829 6.97421 73.2456 7.60548C76.2171 8.23674 74.6883 12.994 72.7039 15.6907L57.0363 16.3169Z" fill="#00962A"/>
<path d="M57.0362 16.9987C56.7881 16.9987 56.5502 16.8624 56.4287 16.625C56.3275 16.423 53.9381 11.6608 56.0946 8.14586C56.7881 7.00959 57.6184 6.78738 58.1904 6.79748C59.3901 6.82273 60.514 7.90851 61.2885 8.89328C61.6884 6.93889 62.6806 4.10071 65.1003 3.95931C65.8394 3.91386 66.5076 4.15627 67.0847 4.66633C68.1731 5.63595 68.7198 7.4237 68.9932 8.82763C69.8892 7.70145 71.3471 6.51467 73.3872 6.93384C74.349 7.13584 75.0274 7.7065 75.3615 8.58018C76.1309 10.5851 74.8856 13.8778 73.2556 16.0897C73.0329 16.3927 72.6026 16.4584 72.2988 16.2362C71.9951 16.014 71.9293 15.5847 72.152 15.2817C73.5138 13.4283 74.6426 10.5245 74.0807 9.06499C73.9137 8.62563 73.6049 8.37312 73.0987 8.26707C70.6333 7.76206 69.2007 11.0648 69.1856 11.1002C69.0641 11.3931 68.7502 11.5598 68.4414 11.5092C68.1275 11.4537 67.8947 11.1961 67.8744 10.878C67.8137 9.80231 67.3834 6.76718 66.1685 5.68645C65.8647 5.41375 65.5458 5.29759 65.1763 5.32284C62.7869 5.46425 62.4022 10.7366 62.3971 10.7921C62.3769 11.0951 62.1642 11.3476 61.8656 11.4133C61.572 11.4789 61.2632 11.3476 61.1164 11.08C60.4431 9.87806 59.0813 8.18122 58.16 8.16102C58.0436 8.16102 57.6892 8.15092 57.2539 8.85793C55.4973 11.7214 57.6184 15.9635 57.6386 16.0089C57.8107 16.3422 57.674 16.7563 57.3399 16.923C57.2387 16.9735 57.1324 16.9987 57.0311 16.9987H57.0362Z" fill="#006B19"/>
<path d="M58.8334 129.687C47.2156 137.591 14.4427 141.277 5.43699 118.728C0.663311 106.871 4.53592 89.7155 5.88753 84.5947C6.15583 83.6048 7.64919 82.4635 7.64919 82.4635L24.7089 92.8567L32.6313 104.805L58.8334 129.687Z" fill="#00962A"/>
<path d="M58.8334 129.687C47.2156 137.591 14.4427 141.277 5.43699 118.728C0.663311 106.871 4.53592 89.7155 5.88753 84.5947C5.88753 84.5947 0.845551 113.88 15.4298 124.748C30.0192 135.616 54.1508 126.723 54.1508 126.723C54.1508 126.723 37.5012 114.325 32.6313 104.805L37.0456 99.4168L58.8385 129.687H58.8334Z" fill="#007A1D"/>
<path d="M35.1523 136.51C30.9203 136.51 26.5971 135.97 22.6384 134.803C13.9922 132.197 7.78079 126.718 4.71814 118.991C-0.956616 104.709 5.34586 83.6857 5.61922 82.7867C5.71034 82.4282 6.16088 82.1605 6.5203 82.3373C6.87972 82.4282 7.14802 82.8776 6.97084 83.2362C6.87972 83.418 0.57724 104.704 6.06976 118.542C9.04129 125.819 14.8932 131.031 23.089 133.546C35.1573 137.227 50.2833 134.354 57.8463 129.591L36.595 100.038L37.405 98.8714C37.4961 98.9623 37.5872 98.9623 37.6733 99.0532L59.4662 129.329C59.5573 129.511 59.6484 129.687 59.5573 129.869C59.5573 130.051 59.3751 130.228 59.289 130.319C53.9787 133.914 44.6136 136.52 35.1573 136.52L35.1523 136.51Z" fill="#006B19"/>
<path d="M123.939 119.536C123.939 119.536 89.4498 142.176 67.2974 134.45C65.4953 133.823 63.7843 133.101 62.0732 132.202C45.4134 123.758 32.6262 104.805 32.6262 104.805C45.3223 83.5139 69.6362 105.795 70.7144 106.78C70.7144 106.78 120.871 77.1356 126.723 81.1757C128.252 82.2565 129.335 83.5089 130.145 85.13C135.997 96.5382 123.934 119.536 123.934 119.536H123.939Z" fill="#00962A"/>
<path d="M123.939 119.536C123.939 119.536 89.4498 142.176 67.2975 134.45C65.4953 133.823 63.7843 133.101 62.0732 132.202C79.1836 137.682 102.323 129.505 116.462 118.638C130.601 107.77 130.059 85.13 130.059 85.13C136.002 96.5382 123.934 119.536 123.934 119.536H123.939Z" fill="#007A1D"/>
<path d="M98.4553 91.6851C98.4553 91.6851 109.531 112.527 98.997 115.042L85.2227 98.2452L98.4604 91.6851H98.4553Z" fill="#007A1D"/>
<path d="M77.9231 122.587C65.1359 124.203 61.3544 102.553 50.9111 100.846C40.6449 99.139 32.8136 104.709 32.6313 104.886C45.3274 83.5948 69.6413 105.876 70.7196 106.861L77.9231 122.582V122.587Z" fill="#006017"/>
<path d="M77.7458 136.783C74.0555 136.783 70.4511 136.242 67.1202 135.076C48.0305 128.43 32.1807 105.431 32.0896 105.164C31.9073 104.896 31.9073 104.623 32.0896 104.447C35.3294 98.9673 39.6525 95.8211 44.9679 95.104C56.4035 93.4879 68.5579 103.815 70.9928 105.972C73.6049 104.447 87.0198 96.6291 99.8981 90.069C100.258 89.8872 100.708 90.069 100.89 90.3367C101.073 90.6952 100.89 91.1447 100.622 91.3265C86.3061 98.6037 71.4484 107.315 71.2662 107.406C70.9979 107.588 70.6384 107.497 70.4562 107.315C70.3651 107.224 57.0413 94.8262 45.2412 96.4473C40.5587 97.0735 36.6861 99.8612 33.7145 104.709C35.785 107.674 50.4604 127.617 67.8441 133.722C88.6448 141 121.149 120.607 123.761 118.991C124.931 116.658 138.26 89.7054 126.642 81.8019C125.878 81.3424 125.979 80.8727 125.979 80.8727C126.161 80.5142 126.925 80.3172 127.457 80.6303C140.604 89.6145 125.26 118.835 124.632 120.092C124.541 120.183 123.615 120.718 123.524 120.809C121.995 121.526 98.7338 136.773 77.7509 136.773L77.7458 136.783Z" fill="#006B19"/>
<path d="M100.526 113.158C99.8982 117.38 93.9551 113.966 91.7935 112.618C91.343 112.35 91.0747 112.168 91.0747 112.168C91.0747 112.168 91.9758 126.99 82.7929 115.941C82.7929 115.941 80.1808 129.773 71.899 117.648C65.5054 108.396 68.6591 106.33 59.4712 99.0532C59.4712 99.0532 61.1822 98.2452 63.8855 97.2553C68.7452 95.4575 76.7638 93.392 83.1574 95.1898C92.8819 97.9724 101.255 108.037 100.536 113.158H100.526Z" fill="#00962A"/>
<path d="M100.526 113.158C99.8982 117.38 93.9551 113.966 91.7936 112.618C101.25 113.966 93.5957 103.815 84.4989 99.4117C75.4021 95.008 63.7893 97.2553 63.7893 97.2553C68.649 95.4575 76.6676 93.392 83.0612 95.1898C92.8769 97.9724 101.25 108.037 100.531 113.158H100.526Z" fill="#006017"/>
<path d="M77.9231 123.309C75.8526 123.309 73.6911 121.602 71.2612 118.006C68.7402 114.325 67.662 111.81 66.7609 109.562C65.4093 106.24 64.5993 103.82 59.1068 99.5077C58.9245 99.3259 58.6562 99.2299 58.6562 98.9623C58.6562 98.6946 58.8385 98.5128 59.0157 98.4219C59.5573 98.1543 73.2405 91.5941 83.2384 94.4677C93.2313 97.4321 101.969 107.765 101.159 113.33C100.976 114.769 100.167 115.395 99.5388 115.663C97.3773 116.562 93.6869 114.673 91.7936 113.507C91.7936 115.663 91.4342 119.703 89.1815 120.602C87.5616 121.233 85.5823 120.244 83.0562 117.456C82.5145 119.43 81.168 122.753 78.6419 123.294C78.3736 123.203 78.1003 123.294 77.9231 123.294V123.309ZM60.7267 99.1441C65.6776 103.275 66.7609 105.79 68.0214 109.027C68.9225 111.184 69.9096 113.608 72.3445 117.203C74.6833 120.526 76.6677 122.142 78.2876 121.784C80.4492 121.334 81.7096 117.294 81.9779 115.764C82.0691 115.496 82.2462 115.315 82.5196 115.224C82.7879 115.133 83.0613 115.224 83.2384 115.491C86.4783 119.355 88.0121 119.446 88.6398 119.264C90.1686 118.633 90.442 114.234 90.3509 112.254C90.3509 111.987 90.442 111.714 90.7103 111.623C90.9786 111.532 91.252 111.532 91.4291 111.623C93.4996 113.062 97.3722 115.128 98.9921 114.406C99.2604 114.315 99.6198 114.047 99.8021 113.148C100.43 108.659 92.7808 98.7754 82.874 95.9019C74.9516 93.4778 64.1437 97.6998 60.7216 99.134L60.7267 99.1441Z" fill="#006B19"/>
<path d="M15.8854 127.799C14.1743 126.541 13.5466 124.385 13.5466 124.385C13.5466 124.385 15.7993 124.294 17.5104 125.551C19.2214 126.809 19.8491 128.965 19.8491 128.965C19.8491 128.965 17.6875 129.056 15.8854 127.799Z" fill="#006B19"/>
<path d="M16.0626 122.051C14.4427 120.612 14.0833 118.461 14.0833 118.461C14.0833 118.461 16.3359 118.552 17.8647 119.986C19.4847 121.425 19.8441 123.577 19.8441 123.577C19.8441 123.577 17.6825 123.486 16.0626 122.051Z" fill="#006B19"/>
<path d="M8.76789 120.072C7.41627 118.365 7.50739 116.208 7.50739 116.208C7.50739 116.208 9.66896 116.749 11.0206 118.365C12.3722 120.072 12.2811 122.228 12.2811 122.228C12.2811 122.228 10.1195 121.688 8.76789 120.072Z" fill="#006B19"/>
<path d="M127.178 87.8217C127.988 89.7963 127.361 91.8669 127.361 91.8669C127.361 91.8669 125.381 90.7861 124.571 88.8115C123.761 86.8369 124.389 84.7714 124.389 84.7714C124.389 84.7714 126.368 85.8471 127.178 87.8268V87.8217Z" fill="#006B19"/>
<path d="M123.939 92.6749C124.566 94.7404 123.67 96.72 123.67 96.72C123.67 96.72 121.868 95.4625 121.24 93.397C120.613 91.3315 121.509 89.3569 121.509 89.3569C121.509 89.3569 123.402 90.6144 123.939 92.6799V92.6749Z" fill="#006B19"/>
<path d="M127.902 98.6037C127.452 100.669 125.741 102.108 125.741 102.108C125.741 102.108 124.749 100.134 125.199 98.0684C125.65 96.0029 127.361 94.5636 127.361 94.5636C127.361 94.5636 128.353 96.5382 127.902 98.6087V98.6037Z" fill="#006B19"/>
<path d="M33.2386 106.169C33.0108 106.169 32.783 106.063 32.6311 105.866C32.5805 105.795 27.3917 98.9269 24.0507 93.2354C23.8381 92.8718 23.9595 92.4122 24.324 92.2001C24.6834 91.988 25.1492 92.1092 25.3618 92.4678C28.6573 98.0835 33.7904 104.886 33.8461 104.952C34.0992 105.285 34.0334 105.76 33.6993 106.012C33.5626 106.113 33.4006 106.164 33.2437 106.164L33.2386 106.169Z" fill="#006B19"/>
<path d="M88.5992 39.901C84.5748 39.1486 81.6437 36.972 81.9778 35.2196C82.312 33.3813 85.8353 32.543 89.8547 33.2955C93.8791 34.0479 96.8102 36.2245 96.4761 37.9769C96.142 39.8152 92.6187 40.6535 88.5992 39.901Z" fill="#007A1D"/>
<path d="M45.7728 39.6485C41.8344 40.5677 38.23 39.901 37.8099 38.0578C37.3897 36.2195 40.2398 34.0429 44.1782 33.0379C48.1166 32.1188 51.7209 32.7854 52.1411 34.6287C52.5612 36.472 49.7112 38.7244 45.7728 39.6435V39.6485Z" fill="#007A1D"/>
<path d="M91.4492 40.8202C90.5279 40.8202 89.4395 40.7343 88.4321 40.4868C86.4224 40.0677 84.5747 39.3152 83.2332 38.3961C81.8107 37.3103 81.0565 36.1387 81.3045 34.9671C81.7247 32.7097 85.496 31.7047 89.9356 32.543C91.9453 32.9622 93.793 33.7146 95.1345 34.6338C96.557 35.7195 97.3113 36.8912 97.0632 38.0628C96.8101 39.2344 95.7217 40.0677 93.9601 40.4868C93.2919 40.7394 92.3655 40.8202 91.4442 40.8202H91.4492ZM87.0096 33.6288C84.5798 33.6288 82.9042 34.3812 82.6511 35.3004C82.565 35.8862 83.0712 36.6387 84.0735 37.3911C85.248 38.2294 86.9236 38.8961 88.7662 39.2294C90.6089 39.5627 92.3705 39.5627 93.793 39.2294C94.9675 38.9769 95.7217 38.391 95.8888 37.8052C95.9748 37.2194 95.4686 36.4669 94.4663 35.7145C93.2919 34.8762 91.6163 34.2095 89.7736 33.8762C88.7662 33.7096 87.8449 33.6237 87.0096 33.6237V33.6288Z" fill="#006B19"/>
<path d="M42.3354 40.7343C39.5714 40.7343 37.5566 39.8152 37.1365 38.2244C36.6353 35.967 39.5663 33.543 44.011 32.4521C46.0207 31.9522 48.0354 31.8663 49.625 32.1996C51.3866 32.5329 52.556 33.3712 52.8091 34.5429C53.3103 36.8003 50.3793 39.2243 45.9346 40.3101C44.5931 40.5626 43.4187 40.7293 42.3303 40.7293L42.3354 40.7343ZM47.5292 33.2904C46.5218 33.2904 45.4335 33.4571 44.3451 33.7096C40.4877 34.6287 38.1438 36.6387 38.478 37.8911C38.8121 39.1435 41.7482 39.896 45.6005 38.9769C49.4579 38.0578 51.8017 36.0478 51.4676 34.7954C51.3006 34.2096 50.5463 33.7096 49.3719 33.4571C48.7847 33.3712 48.1974 33.2904 47.5292 33.2904Z" fill="#006B19"/>
</g>
<defs>
<clipPath id="clip0_663_3107">
<rect width="133" height="202" fill="white"/>
</clipPath>
</defs>
</svg>
