<svg id="Group_870" data-name="Group 870" xmlns="http://www.w3.org/2000/svg" xmlns:xlink="http://www.w3.org/1999/xlink" width="16.255" height="16.25" viewBox="0 0 16.255 16.25">
  <defs>
    <clipPath id="clip-path">
      <rect id="Rectangle_1673" data-name="Rectangle 1673" width="16.255" height="16.25" fill="none"/>
    </clipPath>
  </defs>
  <g id="Group_869" data-name="Group 869" clip-path="url(#clip-path)">
    <path id="Path_1231" data-name="Path 1231" d="M9.954,10.455H3.763a.387.387,0,0,1,0-.774H9.954a.387.387,0,0,1,0,.774" fill="#65899c"/>
    <path id="Path_1232" data-name="Path 1232" d="M9.954,10.455H3.763a.387.387,0,0,1,0-.774H9.954a.387.387,0,0,1,0,.774Z" fill="none" stroke="#65899c" stroke-width="0.25"/>
    <path id="Path_1233" data-name="Path 1233" d="M8.019,13.164H3.763a.387.387,0,1,1,0-.774H8.019a.387.387,0,1,1,0,.774" fill="#65899c"/>
    <path id="Path_1234" data-name="Path 1234" d="M8.019,13.164H3.763a.387.387,0,1,1,0-.774H8.019a.387.387,0,1,1,0,.774Z" fill="none" stroke="#65899c" stroke-width="0.25"/>
    <path id="Path_1235" data-name="Path 1235" d="M16.041,7.005,12.788,7c-1.712-.033-2.655-.049-3.315-.71-.68-.679-.68-1.647-.68-3.576V.783h.774V2.717c0,1.715,0,2.576.454,3.03.439.439,1.271.454,2.781.482l.151,0h3.088Z" fill="#65899c"/>
    <path id="Path_1236" data-name="Path 1236" d="M16.041,7.005,12.788,7c-1.712-.033-2.655-.049-3.315-.71-.68-.679-.68-1.647-.68-3.576V.783h.774V2.717c0,1.715,0,2.576.454,3.03.439.439,1.271.454,2.781.482l.151,0h3.088Z" fill="none" stroke="#65899c" stroke-width="0.25"/>
    <path id="Path_1237" data-name="Path 1237" d="M12.335,16.125H3.915a3.794,3.794,0,0,1-3.79-3.79V3.915A3.794,3.794,0,0,1,3.915.125l6,.052a1.747,1.747,0,0,1,1.252.55l4.477,4.781a1.8,1.8,0,0,1,.488,1.236l0,5.591a3.8,3.8,0,0,1-3.791,3.79M3.912.9A3.019,3.019,0,0,0,.9,3.915v8.42a3.019,3.019,0,0,0,3.016,3.016h8.42a3.02,3.02,0,0,0,3.017-3.016l0-5.592a1.03,1.03,0,0,0-.278-.707L10.6,1.256A.971.971,0,0,0,9.906.951Z" fill="#65899c"/>
    <path id="Path_1238" data-name="Path 1238" d="M12.335,16.125H3.915a3.794,3.794,0,0,1-3.79-3.79V3.915A3.794,3.794,0,0,1,3.915.125l6,.052a1.747,1.747,0,0,1,1.252.55l4.477,4.781a1.8,1.8,0,0,1,.488,1.236l0,5.591A3.8,3.8,0,0,1,12.335,16.125ZM3.912.9A3.019,3.019,0,0,0,.9,3.915v8.42a3.019,3.019,0,0,0,3.016,3.016h8.42a3.02,3.02,0,0,0,3.017-3.016l0-5.592a1.03,1.03,0,0,0-.278-.707L10.6,1.256A.971.971,0,0,0,9.906.951Z" fill="none" stroke="#65899c" stroke-width="0.25"/>
  </g>
</svg>
