<svg id="Group_874" data-name="Group 874" xmlns="http://www.w3.org/2000/svg" xmlns:xlink="http://www.w3.org/1999/xlink" width="17.934" height="16.25" viewBox="0 0 17.934 16.25">
  <defs>
    <clipPath id="clip-path">
      <rect id="Rectangle_1675" data-name="Rectangle 1675" width="17.934" height="16.25" fill="none"/>
    </clipPath>
  </defs>
  <g id="Group_873" data-name="Group 873" clip-path="url(#clip-path)">
    <path id="Path_1249" data-name="Path 1249" d="M12.336,11.914H5.6c-2.495,0-3.748,0-4.61-.863S.125,8.936.125,6.441V5.6c0-2.495,0-3.748.864-4.611S3.1.125,5.6.125h6.737c2.495,0,3.747,0,4.61.863s.863,2.116.863,4.611v.842c0,2.495,0,3.747-.864,4.61s-2.114.863-4.609.863M5.6.967c-2.263,0-3.4,0-4.015.617S.967,3.335.967,5.6v.842c0,2.263,0,3.4.617,4.014s1.752.617,4.015.617h6.737c2.263,0,3.4,0,4.014-.617s.617-1.751.617-4.014V5.6c0-2.264,0-3.4-.616-4.015S14.6.967,12.336.967Z" fill="#65899c"/>
    <path id="Path_1250" data-name="Path 1250" d="M12.336,11.914H5.6c-2.495,0-3.748,0-4.61-.863S.125,8.936.125,6.441V5.6c0-2.495,0-3.748.864-4.611S3.1.125,5.6.125h6.737c2.495,0,3.747,0,4.61.863s.863,2.116.863,4.611v.842c0,2.495,0,3.747-.864,4.61S14.831,11.914,12.336,11.914ZM5.6.967c-2.263,0-3.4,0-4.015.617S.967,3.335.967,5.6v.842c0,2.263,0,3.4.617,4.014s1.752.617,4.015.617h6.737c2.263,0,3.4,0,4.014-.617s.617-1.751.617-4.014V5.6c0-2.264,0-3.4-.616-4.015S14.6.967,12.336.967Z" fill="none" stroke="#65899c" stroke-width="0.25"/>
    <path id="Path_1251" data-name="Path 1251" d="M14.02,16.125a.44.44,0,0,1-.133-.021l-4.92-1.64L4.048,16.1a.422.422,0,0,1-.266-.8l4.764-1.588v-1.8a.421.421,0,0,1,.842,0v1.8L14.153,15.3a.421.421,0,0,1-.133.821" fill="#65899c"/>
    <path id="Path_1252" data-name="Path 1252" d="M14.02,16.125a.44.44,0,0,1-.133-.021l-4.92-1.64L4.048,16.1a.422.422,0,0,1-.266-.8l4.764-1.588v-1.8a.421.421,0,0,1,.842,0v1.8L14.153,15.3a.421.421,0,0,1-.133.821Z" fill="none" stroke="#65899c" stroke-width="0.25"/>
  </g>
</svg>
