<svg xmlns="http://www.w3.org/2000/svg" xmlns:xlink="http://www.w3.org/1999/xlink" width="126" height="126" viewBox="0 0 126 126">
  <defs>
    <clipPath id="clip-path">
      <rect id="Rectangle_2220" data-name="Rectangle 2220" width="94" height="94" transform="translate(-0.1 -0.1)" fill="none"/>
    </clipPath>
    <clipPath id="clip-path-4">
      <rect id="Rectangle_2217" data-name="Rectangle 2217" width="48.455" height="41.104" fill="none"/>
    </clipPath>
  </defs>
  <g id="Group_1555" data-name="Group 1555" transform="translate(-156 -477)">
    <circle id="Ellipse_506" data-name="Ellipse 506" cx="63" cy="63" r="63" transform="translate(156 477)" fill="#26c593" opacity="0.2"/>
    <circle id="Ellipse_505" data-name="Ellipse 505" cx="47" cy="47" r="47" transform="translate(172 493)" fill="#fff"/>
    <g id="Group_1491" data-name="Group 1491" transform="translate(172.1 493.1)">
      <g id="Group_1490" data-name="Group 1490" clip-path="url(#clip-path)">
        <g id="Group_1489" data-name="Group 1489">
          <g id="Group_1488" data-name="Group 1488" clip-path="url(#clip-path)">
            <g id="Group_1487" data-name="Group 1487" style="mix-blend-mode: normal;isolation: isolate">
              <g id="Group_1486" data-name="Group 1486">
                <g id="Group_1485" data-name="Group 1485" clip-path="url(#clip-path)">
                  <path id="Path_2655" data-name="Path 2655" d="M46.9,7.734A39.179,39.179,0,0,1,62.142,82.993,39.178,39.178,0,0,1,31.657,10.809,38.924,38.924,0,0,1,46.9,7.734M46.9,0A46.9,46.9,0,1,0,93.8,46.9,46.9,46.9,0,0,0,46.9,0" fill="#0e842c"/>
                  <path id="Path_2656" data-name="Path 2656" d="M77.133,148.893A43.431,43.431,0,0,1,60.546,65.327l.276.667a42.7,42.7,0,1,0,32.569-.023l.275-.667a43.431,43.431,0,0,1-16.533,83.589Z" transform="translate(-30.234 -58.57)" fill="#fff"/>
                  <path id="Path_2657" data-name="Path 2657" d="M284.3,56.52a1.262,1.262,0,1,1-1.262,1.262A1.262,1.262,0,0,1,284.3,56.52" transform="translate(-253.852 -50.692)" fill="#fff"/>
                  <path id="Path_2658" data-name="Path 2658" d="M602.772,56.52a1.262,1.262,0,1,1-1.262,1.262,1.262,1.262,0,0,1,1.262-1.262" transform="translate(-539.481 -50.692)" fill="#fff"/>
                  <path id="Path_2659" data-name="Path 2659" d="M380.641,22.617a1.123,1.123,0,0,1-.6-.275.9.9,0,0,1-.264-.532,1.076,1.076,0,0,1,.251-.886,1.7,1.7,0,0,1,2.024-.305,1.089,1.089,0,0,1,.514.774.885.885,0,0,1-.092.572,1.119,1.119,0,0,1-.478.44,1.314,1.314,0,0,1,.744.332,1.16,1.16,0,0,1,.343.684,1.272,1.272,0,0,1-.287,1.039,1.9,1.9,0,0,1-2.3.355,1.289,1.289,0,0,1-.59-.918,1.149,1.149,0,0,1,.125-.773,1.218,1.218,0,0,1,.617-.509Zm-.264-.919a.685.685,0,0,0,.3.489.823.823,0,0,0,.6.114.807.807,0,0,0,.53-.288.653.653,0,0,0,.142-.527.673.673,0,0,0-.3-.476.806.806,0,0,0-.593-.121.817.817,0,0,0-.531.29.643.643,0,0,0-.148.52Zm.131,2.11a.96.96,0,0,0,.191.439.832.832,0,0,0,.409.288,1.117,1.117,0,0,0,.529.042,1,1,0,0,0,.661-.363.856.856,0,0,0,.176-.691.868.868,0,0,0-.387-.617,1.026,1.026,0,0,0-.753-.151.986.986,0,0,0-.653.365.856.856,0,0,0-.174.688Z" transform="translate(-340.6 -18.303)" fill="#fff"/>
                  <path id="Path_2660" data-name="Path 2660" d="M380.844,19.908a1.423,1.423,0,0,1,.787.219,1.142,1.142,0,0,1,.537.81.94.94,0,0,1-.1.6,1.093,1.093,0,0,1-.378.39,1.3,1.3,0,0,1,.633.321,1.217,1.217,0,0,1,.359.713,1.353,1.353,0,0,1-.028.57,1.4,1.4,0,0,1-.269.51,1.729,1.729,0,0,1-1.122.59,2.333,2.333,0,0,1-.353.028,1.6,1.6,0,0,1-.894-.253,1.345,1.345,0,0,1-.613-.953,1.157,1.157,0,0,1,.63-1.271,1.065,1.065,0,0,1-.478-.256.958.958,0,0,1-.279-.561,1.131,1.131,0,0,1,.262-.926,1.538,1.538,0,0,1,.987-.509A2.1,2.1,0,0,1,380.844,19.908Zm.067,4.652a2.229,2.229,0,0,0,.338-.027,1.63,1.63,0,0,0,1.058-.553,1.214,1.214,0,0,0,.276-1,1.1,1.1,0,0,0-.328-.654,1.269,1.269,0,0,0-.715-.318l-.156-.022.139-.074a1.076,1.076,0,0,0,.457-.419.839.839,0,0,0,.086-.54,1.043,1.043,0,0,0-.491-.739,1.322,1.322,0,0,0-.731-.2,2,2,0,0,0-.3.024,1.439,1.439,0,0,0-.923.473,1.019,1.019,0,0,0-.239.845.858.858,0,0,0,.249.5,1.065,1.065,0,0,0,.573.261h0l-.007.037.029.055-.02.014H380.2a1.165,1.165,0,0,0-.574.48,1.1,1.1,0,0,0-.119.74,1.23,1.23,0,0,0,.567.883A1.5,1.5,0,0,0,380.911,24.56Zm-.151-4.182a.832.832,0,0,1,.471.141.725.725,0,0,1,.327.512.706.706,0,0,1-.153.567.861.861,0,0,1-.562.307,1.139,1.139,0,0,1-.173.014.824.824,0,0,1-.467-.136.738.738,0,0,1-.323-.523h0a.7.7,0,0,1,.159-.56.87.87,0,0,1,.563-.308A1.028,1.028,0,0,1,380.76,20.378Zm-.091,1.437a1.035,1.035,0,0,0,.157-.013.751.751,0,0,0,.5-.269.6.6,0,0,0,.132-.487.618.618,0,0,0-.282-.441.731.731,0,0,0-.414-.124.927.927,0,0,0-.143.011.77.77,0,0,0-.5.271.589.589,0,0,0-.138.478h0a.631.631,0,0,0,.279.454A.723.723,0,0,0,380.669,21.815Zm.413.426a1.039,1.039,0,0,1,.587.175.921.921,0,0,1,.409.652.91.91,0,0,1-.187.731,1.058,1.058,0,0,1-.694.382,1.257,1.257,0,0,1-.189.015,1.15,1.15,0,0,1-.364-.059.887.887,0,0,1-.434-.305,1.015,1.015,0,0,1-.2-.462h0a.909.909,0,0,1,.185-.728,1.041,1.041,0,0,1,.685-.384A1.326,1.326,0,0,1,381.082,22.241Zm-.074,1.851a1.154,1.154,0,0,0,.173-.013.958.958,0,0,0,.628-.344.8.8,0,0,0,.166-.651.821.821,0,0,0-.364-.582.937.937,0,0,0-.529-.157,1.224,1.224,0,0,0-.187.015.941.941,0,0,0-.62.346.809.809,0,0,0-.164.647h0a.914.914,0,0,0,.181.416.786.786,0,0,0,.385.27A1.046,1.046,0,0,0,381.008,24.091Z" transform="translate(-340.152 -17.855)" fill="#fff"/>
                  <path id="Path_2661" data-name="Path 2661" d="M422.264,20.116l.031.537-3.219.187a.919.919,0,0,1,.047-.392,2.041,2.041,0,0,1,.359-.628,6.026,6.026,0,0,1,.742-.734,6.476,6.476,0,0,0,1.017-1.026,1.113,1.113,0,0,0,.24-.689.723.723,0,0,0-.287-.546,1.093,1.093,0,0,0-1.353.093.886.886,0,0,0-.224.686L419,17.581a1.382,1.382,0,0,1,.419-1.008,1.7,1.7,0,0,1,1.087-.4,1.61,1.61,0,0,1,1.13.3,1.158,1.158,0,0,1,.461.877,1.29,1.29,0,0,1-.089.544,2.058,2.058,0,0,1-.365.579,9.442,9.442,0,0,1-.875.855q-.514.453-.658.614a1.889,1.889,0,0,0-.235.318l2.388-.139Z" transform="translate(-375.792 -14.501)" fill="#fff"/>
                  <path id="Path_2662" data-name="Path 2662" d="M418.562,20.446l0-.05a.975.975,0,0,1,.05-.413,2.1,2.1,0,0,1,.368-.644,6.116,6.116,0,0,1,.749-.741,6.464,6.464,0,0,0,1.008-1.016,1.069,1.069,0,0,0,.231-.656.668.668,0,0,0-.267-.508.87.87,0,0,0-.565-.181l-.077,0a.922.922,0,0,0-.642.267.839.839,0,0,0-.21.648l0,.056-.726-.027,0-.052a1.725,1.725,0,0,1,.122-.593,1.271,1.271,0,0,1,.314-.451,1.757,1.757,0,0,1,1.119-.415c.051,0,.1,0,.149,0a1.591,1.591,0,0,1,1.016.315,1.213,1.213,0,0,1,.48.914,1.333,1.333,0,0,1-.092.566,2.12,2.12,0,0,1-.374.593,9.414,9.414,0,0,1-.881.86c-.347.306-.561.506-.654.609a1.979,1.979,0,0,0-.177.226l2.259-.132.074-.149.045.782Zm1.569-4.312a.982.982,0,0,1,.629.2.776.776,0,0,1,.306.583,1.167,1.167,0,0,1-.249.721,6.553,6.553,0,0,1-1.025,1.036,6.008,6.008,0,0,0-.736.728,2,2,0,0,0-.35.612h0a.868.868,0,0,0-.048.32l3.117-.181-.025-.432-2.434.142.048-.083a1.944,1.944,0,0,1,.242-.326c.1-.106.312-.309.662-.618a9.457,9.457,0,0,0,.87-.849,2.02,2.02,0,0,0,.356-.564,1.232,1.232,0,0,0,.085-.523,1.1,1.1,0,0,0-.441-.839,1.491,1.491,0,0,0-.952-.292c-.046,0-.095,0-.143,0a1.658,1.658,0,0,0-1.055.388,1.318,1.318,0,0,0-.4.92l.51.019a.917.917,0,0,1,.24-.668,1.021,1.021,0,0,1,.711-.3Z" transform="translate(-375.326 -14.053)" fill="#fff"/>
                  <path id="Path_2663" data-name="Path 2663" d="M458.913,18a3.935,3.935,0,0,1,.225-1.294,1.608,1.608,0,0,1,.556-.74,1.411,1.411,0,0,1,.893-.235,1.524,1.524,0,0,1,.683.172,1.283,1.283,0,0,1,.473.443,2.218,2.218,0,0,1,.278.689,4.238,4.238,0,0,1,.071,1.081,3.947,3.947,0,0,1-.223,1.288,1.623,1.623,0,0,1-.555.742,1.417,1.417,0,0,1-.9.237,1.378,1.378,0,0,1-1.09-.513,2.857,2.857,0,0,1-.416-1.87Zm.616.023a2.7,2.7,0,0,0,.227,1.5.833.833,0,0,0,1.387.048,2.7,2.7,0,0,0,.335-1.482,2.705,2.705,0,0,0-.227-1.506.849.849,0,0,0-.687-.395.783.783,0,0,0-.67.3,2.729,2.729,0,0,0-.365,1.527Z" transform="translate(-411.586 -14.104)" fill="#fff"/>
                  <path id="Path_2664" data-name="Path 2664" d="M460.062,15.226l.079,0a1.583,1.583,0,0,1,.705.178,1.338,1.338,0,0,1,.492.461,2.279,2.279,0,0,1,.285.7,4.26,4.26,0,0,1,.073,1.094,4.015,4.015,0,0,1-.226,1.305,1.682,1.682,0,0,1-.573.765,1.44,1.44,0,0,1-.854.248h-.074a1.655,1.655,0,0,1-.645-.146,1.338,1.338,0,0,1-.484-.386,1.932,1.932,0,0,1-.344-.781,4.5,4.5,0,0,1-.082-1.121v0a4,4,0,0,1,.228-1.312,1.664,1.664,0,0,1,.574-.763A1.433,1.433,0,0,1,460.062,15.226Zm-.019,4.656a1.339,1.339,0,0,0,.794-.229,1.581,1.581,0,0,0,.537-.72,3.914,3.914,0,0,0,.219-1.271,4.159,4.159,0,0,0-.07-1.067,2.175,2.175,0,0,0-.272-.673,1.238,1.238,0,0,0-.455-.426,1.482,1.482,0,0,0-.66-.166h-.075a1.332,1.332,0,0,0-.786.227,1.563,1.563,0,0,0-.538.718,3.9,3.9,0,0,0-.221,1.276v0a2.824,2.824,0,0,0,.4,1.836,1.319,1.319,0,0,0,1.051.493Zm.035-4.193h.04a.9.9,0,0,1,.727.417,1.4,1.4,0,0,1,.2.589,5.293,5.293,0,0,1,.037.948,5.215,5.215,0,0,1-.105.94,1.417,1.417,0,0,1-.241.573.885.885,0,0,1-1.469-.051,1.406,1.406,0,0,1-.2-.589,5.278,5.278,0,0,1-.037-.945v0a4.964,4.964,0,0,1,.113-.953,1.543,1.543,0,0,1,.264-.6A.832.832,0,0,1,460.078,15.688Zm-.058,3.731a.792.792,0,0,0,.634-.329,2.679,2.679,0,0,0,.324-1.451,2.682,2.682,0,0,0-.218-1.474.794.794,0,0,0-.647-.373.728.728,0,0,0-.628.283,2.7,2.7,0,0,0-.353,1.5v0a2.681,2.681,0,0,0,.218,1.472.784.784,0,0,0,.639.374Z" transform="translate(-411.137 -13.656)" fill="#fff"/>
                  <path id="Path_2665" data-name="Path 2665" d="M498.308,21.175a3.931,3.931,0,0,1,.348-1.267,1.621,1.621,0,0,1,.624-.685,1.413,1.413,0,0,1,.911-.15,1.513,1.513,0,0,1,.663.237,1.288,1.288,0,0,1,.429.487,2.226,2.226,0,0,1,.211.712,4.265,4.265,0,0,1-.032,1.083,3.927,3.927,0,0,1-.344,1.261,1.609,1.609,0,0,1-.623.686,1.416,1.416,0,0,1-.915.151,1.379,1.379,0,0,1-1.036-.614A2.855,2.855,0,0,1,498.308,21.175Zm.61.08A2.707,2.707,0,0,0,499,22.774a.833.833,0,0,0,1.377.18,2.7,2.7,0,0,0,.474-1.443,2.7,2.7,0,0,0-.082-1.52.852.852,0,0,0-.646-.459.786.786,0,0,0-.7.237,2.73,2.73,0,0,0-.508,1.486Z" transform="translate(-446.877 -17.092)" fill="#fff"/>
                  <path id="Path_2666" data-name="Path 2666" d="M499.5,18.557a1.945,1.945,0,0,1,.253.017,1.572,1.572,0,0,1,.685.246,1.345,1.345,0,0,1,.446.506,2.291,2.291,0,0,1,.217.728,4.33,4.33,0,0,1-.032,1.1,4,4,0,0,1-.35,1.278,1.667,1.667,0,0,1-.643.707,1.367,1.367,0,0,1-.692.174,1.974,1.974,0,0,1-.255-.017,1.434,1.434,0,0,1-1.073-.637,1.925,1.925,0,0,1-.268-.811,4.5,4.5,0,0,1,.026-1.125,4,4,0,0,1,.353-1.284,1.679,1.679,0,0,1,.644-.706A1.365,1.365,0,0,1,499.5,18.557Zm-.116,4.649a1.266,1.266,0,0,0,.641-.16,1.566,1.566,0,0,0,.6-.665,3.9,3.9,0,0,0,.339-1.244A4.228,4.228,0,0,0,501,20.068a2.187,2.187,0,0,0-.206-.695,1.243,1.243,0,0,0-.412-.468,1.47,1.47,0,0,0-.641-.229,1.841,1.841,0,0,0-.24-.016,1.263,1.263,0,0,0-.638.159,1.578,1.578,0,0,0-.6.664,3.9,3.9,0,0,0-.342,1.25,2.822,2.822,0,0,0,.227,1.866,1.335,1.335,0,0,0,1,.59A1.87,1.87,0,0,0,499.381,23.206Zm.172-4.182a1,1,0,0,1,.132.009.9.9,0,0,1,.684.484,2.716,2.716,0,0,1,.089,1.552,5.259,5.259,0,0,1-.194.925,1.407,1.407,0,0,1-.295.547.877.877,0,0,1-.781.294.9.9,0,0,1-.677-.486,1.41,1.41,0,0,1-.142-.6,5.273,5.273,0,0,1,.053-.946l.006-.045h0a4.867,4.867,0,0,1,.2-.893,1.542,1.542,0,0,1,.32-.577A.831.831,0,0,1,499.552,19.024Zm-.246,3.717a.813.813,0,0,0,.588-.272,2.675,2.675,0,0,0,.46-1.413,2.681,2.681,0,0,0-.076-1.488.8.8,0,0,0-.608-.433.9.9,0,0,0-.118-.008.722.722,0,0,0-.535.23,2.7,2.7,0,0,0-.494,1.456l-.006.045h0A2.613,2.613,0,0,0,498.6,22.3a.789.789,0,0,0,.6.434A.809.809,0,0,0,499.306,22.741Z" transform="translate(-446.43 -16.643)" fill="#fff"/>
                  <path id="Path_2667" data-name="Path 2667" d="M274.825,254.95l-.077.055-.023.015-.26.184-.011.008-.019.013-.271.191-.024.018-.241.17-.118-.167-.018-.025-.127-.179-.021-.029-.123-.174-.025-.034-.448-.635-.142-.2-.142-.2-.541-.767-.119-.167-.121-.172-.251-.355-7.13-10.1-.127-.179-.12-.17-1.651-2.338-.261-.37-.648-.917-1.853-2.624-.119-.168-.118-.166-5.95-8.428,13.554,1.98-4.99-6.85-.721-.989.917-.668.785,1.077,5.317,7.3.264.363.842,1.156.091.125-.163-.024-1.392-.2-.441-.065-11.613-1.7,4.535,6.424.121.17.121.17,1.932,2.738.16.227.261.369,2.282,3.233.157.221.169.24,5.4,7.645.292.414.145.206.137.195,2.211,3.132.145.205.145.205.072.1Z" transform="translate(-227.565 -197.771)" fill="#006837"/>
                  <path id="Path_2668" data-name="Path 2668" d="M317.26,200.52l.166,2.8.268,2.7,1.918-2.173,2.673-.816-2.513-1.259Z" transform="translate(-284.544 -179.842)" fill="#13842a"/>
                  <path id="Path_2669" data-name="Path 2669" d="M472.4,227.038l-5.95,8.428-.118.166-.119.168-1.853,2.624-.648.917-.261.37-1.651,2.338-.12.17-.127.179-7.13,10.1-.371.527-.119.167-.541.767-.142.2-.142.2-.448.635-.025.034-.123.174-.021.029-.127.179-.018.025-.118.167-.241-.17-.024-.018h0l-.27-.191-.019-.013-.011-.008-.26-.184h0l-.022-.015-.077-.055.36-.509.072-.1.145-.205.144-.205h0l2.211-3.132h0l.137-.194.437-.619h0l5.4-7.645.169-.24.156-.221h0l2.282-3.233.261-.369.16-.227,1.933-2.738.121-.17.121-.17,4.535-6.424-11.613,1.7-.441.065-1.392.2-.163.024.091-.125.842-1.156.264-.363,5.317-7.3.784-1.077.918.668-.721.989-4.99,6.85Z" transform="translate(-404.77 -197.771)" fill="#006837"/>
                  <path id="Path_2670" data-name="Path 2670" d="M548.635,200.52l-.166,2.8-.268,2.7-1.918-2.173-2.673-.816,2.513-1.259Z" transform="translate(-487.552 -179.842)" fill="#13842a"/>
                  <path id="Path_2671" data-name="Path 2671" d="M300.479,364.242l-.1-.053-.138-2.171a14.368,14.368,0,0,0-2.057-1.487l-.093-.056-.1-.061-.2-.112a12.232,12.232,0,0,0-2.292-1.009c-.135-.043-.27-.084-.408-.12a6.778,6.778,0,0,0-4.108.074,5.841,5.841,0,0,0-1.038.495,6.8,6.8,0,0,0-1.17.9c-2.431,2.3-1.393,5.56.367,8.611q.118.2.239.4c1.451,2.418,3.286,4.669,4.11,6.164,1.662,3.013,1.463,6.97-2.352,4.626a3.058,3.058,0,0,0-.007.368,2.784,2.784,0,0,0,2.842,2.958c3.162.108,6.385-4.293,1.7-10.291q-.152-.195-.294-.387l-.09-.125c-.034-.047-.068-.094-.1-.141-.051-.071-.1-.142-.147-.214-.025-.035-.048-.072-.071-.107s-.054-.079-.078-.119-.067-.1-.1-.154c-.072-.114-.141-.227-.206-.339q-.036-.059-.068-.118c-.045-.078-.089-.156-.13-.233s-.071-.133-.105-.2c-.058-.112-.113-.224-.165-.334s-.1-.22-.146-.328a5.688,5.688,0,0,1-.533-2.529l.006-.073c0-.049.009-.1.017-.146,0-.013,0-.028.005-.04.01-.07.023-.138.038-.2,0-.019.008-.037.013-.055a.714.714,0,0,1,.023-.084c.005-.021.011-.041.018-.062s.019-.056.029-.083.015-.043.024-.064.021-.053.033-.077a.712.712,0,0,1,.035-.075c.012-.025.025-.049.038-.073l.019-.034a.427.427,0,0,1,.024-.04c.013-.022.027-.043.041-.065l.045-.065a.684.684,0,0,1,.048-.063c.017-.021.033-.041.051-.061s.04-.044.061-.066.024-.024.036-.036l.046-.042.03-.026a.119.119,0,0,1,.019-.015c.025-.021.049-.04.075-.059s.033-.025.05-.036a1.679,1.679,0,0,1,.155-.094c.029-.016.059-.031.09-.044s.059-.027.089-.039l.081-.03.071-.024.072-.021.044-.011.045-.01c.03-.007.061-.013.092-.019l.044-.007a.31.31,0,0,1,.045-.007l.078-.009.073-.007a3,3,0,0,1,.541.008l.111.012.1.014c.067.01.135.023.205.037l.078.018c.065.013.131.03.2.049l.067.019.088.026.094.03.118.039c.118.04.237.086.361.137.041.017.084.034.125.053l.117.052c.031.013.063.029.095.044l.1.046q.083.04.167.083c.1.052.2.105.3.163l.076.043.078.044c.1.061.209.125.317.191s.214.137.325.211c.028.018.056.036.083.056l.084.057.1.072.089.063.09.065q.269.195.55.418c.1.079.2.161.3.246l.151.127a.177.177,0,0,1,.023.02c.033.027.067.055.1.085l.029.025.172.151.259-4.4C300.785,364.407,300.631,364.323,300.479,364.242Z" transform="translate(-257.715 -321.883)" fill="#fff"/>
                  <path id="Path_2672" data-name="Path 2672" d="M322.328,401.292c4.688,6,1.464,10.4-1.7,10.291a2.784,2.784,0,0,1-2.842-2.958c2.506,3.327,7.2.486,4.752-3.995a36.827,36.827,0,0,0-2.528-3.614c-5.494-8.17-3.5-14.873,7.583-8.711l-.259,4.4c-6.542-5.779-9.7-1.4-5.008,4.592Z" transform="translate(-284.369 -349.695)" fill="#13842a"/>
                  <path id="Path_2673" data-name="Path 2673" d="M298.4,366.479c-.051-.042-.1-.083-.152-.123q-.152-.122-.3-.235.062.179.121.356c.1.079.2.161.3.245l.151.127C298.486,366.726,298.445,366.6,298.4,366.479Zm0,0c-.051-.042-.1-.083-.152-.123q-.152-.122-.3-.235.062.179.121.356c.1.079.2.161.3.245l.151.127C298.486,366.726,298.445,366.6,298.4,366.479Zm0,0c-.051-.042-.1-.083-.152-.123q-.152-.122-.3-.235.062.179.121.356c.1.079.2.161.3.245l.151.127C298.486,366.726,298.445,366.6,298.4,366.479Zm.8-3.926q-.231-.128-.458-.251l-.136-2.139-.062-.057a14.447,14.447,0,0,0-2.191-1.574l-.092-.053-.1-.06-.194-.108a13.562,13.562,0,0,0-1.387-.666q-.408-.167-.808-.294c-.136-.044-.272-.085-.407-.121a6.974,6.974,0,0,0-4.337.088,6.088,6.088,0,0,0-1.035.5,6.85,6.85,0,0,0-1.194.913c-1.631,1.544-1.928,3.608-.91,6.31a17.773,17.773,0,0,0,1.3,2.652c.078.135.159.27.24.4.739,1.221,1.567,2.393,2.3,3.427s1.355,1.917,1.751,2.635c1.048,1.9,1.282,4.035.522,4.761-.491.468-1.385.327-2.585-.41l-.281-.172-.033.327a3.512,3.512,0,0,0-.008.395,3.013,3.013,0,0,0,3.041,3.158l.122,0a4.125,4.125,0,0,0,3.6-2.338c.549-1.078,1.466-4.043-1.851-8.288-2.386-3.051-2.631-5.593-1.639-6.528a1.482,1.482,0,0,1,.527-.315,2.61,2.61,0,0,1,1.343-.064,9.192,9.192,0,0,1,3.957,2.151c.1.081.2.166.3.254l.153.133.066.058.085.074.233.206.291-4.948Zm-.54,4.146-.113-.095c-.051-.043-.1-.085-.151-.125s-.1-.083-.152-.123q-.152-.122-.3-.235a8.082,8.082,0,0,0-4.042-1.894,2.68,2.68,0,0,0-1.263.175,1.912,1.912,0,0,0-.563.364c-1.336,1.259-.681,4.171,1.6,7.081,2.233,2.857,2.893,5.718,1.809,7.846a3.7,3.7,0,0,1-3.337,2.111,2.5,2.5,0,0,1-2.625-2.476c-.009-.1-.015-.193-.018-.282v-.007c1.541.855,2.358.58,2.779.178,1.008-.961.564-3.429-.445-5.259a31.87,31.87,0,0,0-1.775-2.673c-.782-1.105-1.647-2.331-2.4-3.59-.08-.136-.16-.272-.237-.408-1.7-2.963-2.654-6.071-.344-8.258a6.593,6.593,0,0,1,1.147-.878,5.664,5.664,0,0,1,1.04-.493,6.467,6.467,0,0,1,3.879-.062c.135.035.272.074.409.118q.422.132.858.309a13.059,13.059,0,0,1,1.537.754c.067.038.134.077.2.116.036.021.071.041.105.063l.095.057a14.81,14.81,0,0,1,1.856,1.343l.125,1.961.016.239.1.055c.145.077.293.157.44.238Zm-.264-.22c-.051-.042-.1-.083-.152-.123q-.152-.122-.3-.235.062.179.121.356c.1.079.2.161.3.245l.151.127C298.486,366.726,298.445,366.6,298.4,366.479Zm0,0c-.051-.042-.1-.083-.152-.123q-.152-.122-.3-.235.062.179.121.356c.1.079.2.161.3.245l.151.127C298.486,366.726,298.445,366.6,298.4,366.479Z" transform="translate(-255.882 -320.123)" fill="#006837"/>
                  <path id="Path_2674" data-name="Path 2674" d="M502.593,360.64a6.806,6.806,0,0,0-1.17-.9,5.84,5.84,0,0,0-1.038-.495,6.778,6.778,0,0,0-4.108-.074c-.138.036-.273.076-.408.12a12.229,12.229,0,0,0-2.292,1.009q-.153.087-.3.173l-.094.056a14.389,14.389,0,0,0-2.056,1.487l-.138,2.171-.1.053c-.152.081-.305.165-.461.251l.259,4.4.172-.151.029-.025c.033-.03.067-.058.1-.085a.179.179,0,0,1,.023-.02q.057-.049.115-.1c.113-.1.227-.188.338-.276q.28-.223.55-.418l.09-.065.089-.063.1-.072.083-.057c.027-.02.055-.038.083-.056.11-.074.219-.144.325-.211s.212-.13.317-.191l.078-.044.076-.043c.1-.058.2-.111.3-.163q.083-.043.167-.083l.1-.046c.032-.015.064-.031.095-.044l.116-.052c.041-.019.084-.036.125-.053.124-.052.243-.1.361-.137l.117-.039.094-.03.088-.026.067-.019c.067-.019.133-.035.2-.049l.078-.018c.069-.015.138-.028.205-.037l.1-.014.111-.012a3,3,0,0,1,.541-.008l.073.007.078.009a.31.31,0,0,1,.045.007l.044.007c.031.005.062.011.092.019l.045.01.044.011.072.021.071.024.081.03c.03.012.06.025.089.039s.061.029.09.044.059.033.087.049.054.033.079.052a1.757,1.757,0,0,1,.209.171l.036.036c.021.022.041.043.061.066s.034.04.051.061a.69.69,0,0,1,.048.063l.045.065c.014.022.028.043.041.065a.415.415,0,0,1,.024.04l.018.034c.013.024.026.048.038.073a.718.718,0,0,1,.035.075c.012.025.023.052.033.077s.016.042.024.064.02.056.029.083.012.041.018.062a.708.708,0,0,1,.023.084c.005.018.009.036.013.055.015.066.028.134.038.2,0,.012,0,.027.005.04.007.047.012.1.016.146l.006.073a5.686,5.686,0,0,1-.533,2.529c-.045.108-.095.217-.146.328s-.107.222-.165.334c-.034.066-.069.132-.105.2s-.085.155-.13.233q-.033.059-.068.118c-.065.112-.134.225-.206.339-.031.051-.064.1-.1.154s-.051.078-.078.119-.046.072-.071.107c-.047.071-.1.142-.148.214-.032.047-.066.094-.1.141l-.09.125q-.142.192-.294.387c-4.688,6-1.464,10.4,1.7,10.291a2.784,2.784,0,0,0,2.842-2.958,3.065,3.065,0,0,0-.007-.368c-3.816,2.344-4.015-1.613-2.352-4.626.824-1.494,2.659-3.745,4.11-6.164q.122-.2.239-.4C503.986,366.2,505.024,362.942,502.593,360.64Z" transform="translate(-439.856 -321.883)" fill="#fff"/>
                  <path id="Path_2675" data-name="Path 2675" d="M495.687,401.292c-4.688,6-1.464,10.4,1.7,10.291a2.784,2.784,0,0,0,2.842-2.958c-2.506,3.327-7.2.486-4.752-3.995A36.828,36.828,0,0,1,498,401.016c5.494-8.17,3.5-14.873-7.583-8.711l.259,4.4c6.542-5.779,9.7-1.4,5.008,4.592Z" transform="translate(-439.847 -349.695)" fill="#13842a"/>
                  <path id="Path_2676" data-name="Path 2676" d="M500.878,358.73a6.89,6.89,0,0,0-1.194-.913,6.083,6.083,0,0,0-1.035-.5,6.981,6.981,0,0,0-4.337-.089c-.135.036-.27.076-.407.122q-.4.127-.808.294a13.572,13.572,0,0,0-1.387.666c-.1.056-.2.111-.3.168l-.093.054a14.424,14.424,0,0,0-2.19,1.573l-.062.057-.136,2.139c-.151.081-.3.165-.458.251l-.113.063.291,4.948.233-.206.085-.074.066-.058c.155-.136.306-.264.455-.387a9.187,9.187,0,0,1,3.957-2.151,2.609,2.609,0,0,1,1.343.064,1.482,1.482,0,0,1,.527.315,2.074,2.074,0,0,1,.549,1.554,8.74,8.74,0,0,1-2.187,4.974c-3.317,4.245-2.4,7.21-1.851,8.288a4.125,4.125,0,0,0,3.6,2.338l.122,0a3.013,3.013,0,0,0,3.041-3.158,3.509,3.509,0,0,0-.008-.395l-.034-.327-.279.172c-1.2.736-2.094.879-2.585.41-.76-.726-.526-2.862.522-4.761.4-.718,1.024-1.607,1.75-2.635s1.559-2.206,2.3-3.427q.122-.2.24-.4a17.763,17.763,0,0,0,1.3-2.652C502.806,362.338,502.509,360.274,500.878,358.73Zm-3.264,12.555a31.859,31.859,0,0,0-1.775,2.673c-1.01,1.83-1.453,4.3-.445,5.259.421.4,1.238.676,2.779-.178v.007c0,.084-.008.178-.019.283a2.528,2.528,0,0,1-2.624,2.475,3.691,3.691,0,0,1-3.337-2.111c-1.084-2.128-.424-4.989,1.809-7.847,2.276-2.91,2.933-5.822,1.6-7.081a1.913,1.913,0,0,0-.563-.364,2.679,2.679,0,0,0-1.263-.175h0a8.075,8.075,0,0,0-4.041,1.894q-.221.169-.452.358c-.049.04-.1.081-.151.125l-.113.095-.227-3.848q.223-.122.44-.238l.1-.055.015-.239.125-1.961a14.888,14.888,0,0,1,1.855-1.342l.1-.058c.1-.06.2-.12.3-.179a13.075,13.075,0,0,1,1.536-.754q.436-.178.858-.309c.137-.043.274-.083.409-.118a6.467,6.467,0,0,1,3.879.062,5.665,5.665,0,0,1,1.04.493,6.6,6.6,0,0,1,1.147.878c2.31,2.188,1.352,5.3-.344,8.258-.077.136-.157.272-.237.408C499.261,368.954,498.4,370.18,497.614,371.285Z" transform="translate(-437.999 -320.122)" fill="#006837"/>
                  <path id="Path_2677" data-name="Path 2677" d="M371.575,322.575a.925.925,0,0,1-.093,0h-.019a.927.927,0,0,1-.093,0c-1.5,0-2.7-3.266-2.715-3.3l-.027-.074-.078.006c-.106.008-.21.013-.311.013a2.773,2.773,0,0,1-2.716-2.319l-.018-.1-.1.019a1.46,1.46,0,0,1-.218.012,6.442,6.442,0,0,1-2.268-.53,1.571,1.571,0,0,1-1.022-1.611c.059-.916.865-2.08,2.952-2.6,3.541-.885,4.337-3.344,4.337-4.135,0-.039,0-.095,0-.166.1-4.22-1.068-9.447-3.373-15.117a10.365,10.365,0,0,1-.671-6.06,10.733,10.733,0,0,1,2.134-4.458,15.587,15.587,0,0,1,4.2-3.672,15.62,15.62,0,0,1,4.2,3.677,10.748,10.748,0,0,1,2.13,4.457,10.369,10.369,0,0,1-.672,6.056c-2.3,5.671-3.471,10.9-3.373,15.117,0,.071,0,.127,0,.166,0,.792.8,3.25,4.337,4.135,2.087.522,2.894,1.686,2.952,2.6a1.573,1.573,0,0,1-1.023,1.611,6.442,6.442,0,0,1-2.268.53,1.477,1.477,0,0,1-.218-.012l-.1-.018-.018.1a2.773,2.773,0,0,1-2.716,2.319c-.1,0-.206,0-.311-.013l-.078-.006-.027.074c-.012.033-1.212,3.3-2.715,3.3Z" transform="translate(-324.573 -249.763)" fill="#fff"/>
                  <path id="Path_2678" data-name="Path 2678" d="M363.95,287.02c0,.077-.006.156-.007.235s0,.159,0,.239a10.4,10.4,0,0,0,.332,2.544,12.479,12.479,0,0,0,.539,1.629c.47,1.157.876,2.253,1.224,3.288.042.123.083.245.123.366s.08.247.12.37a43.726,43.726,0,0,1,1.431,5.654c.167.931.276,1.751.348,2.457.042.422.071.8.091,1.142,0,.071.008.139.011.206s.006.139.008.206c.008.195.013.373.016.533,0,.05,0,.1,0,.146,0,.021,0,.041,0,.061v.144c0,.021,0,.041,0,.061,0,.053,0,.1,0,.147,0,.225-.008.378-.008.462,0,.023,0,.046,0,.072,0,.059-.011.128-.024.2s-.025.131-.043.2a5.078,5.078,0,0,1-3.794,3.446c-.128.039-.26.075-.4.109a6.353,6.353,0,0,0-.924.3c-2.661,1.112-2.574,3.5-1.019,4.106a5.3,5.3,0,0,0,2.541.523,2.891,2.891,0,0,0,3.139,2.391s1.27,3.512,2.914,3.363V277.32s-6.325,3.436-6.615,9.7m2.127,24.3a1.235,1.235,0,0,1,.006,1.674c-.84,2.17-3.538,2.669-4.077,1.133-.478-1.2,1.222-1.823,1.91-2.281.212-.125.535-.392.88-.593.44-.257.915-.4,1.232,0a.67.67,0,0,1,.049.067" transform="translate(-323.666 -248.722)" fill="#13842a"/>
                  <path id="Path_2679" data-name="Path 2679" d="M479.27,566.466a6.4,6.4,0,0,0-.925-.3c-.128-.035-.252-.072-.371-.109-2.711-.855-3.567-2.373-3.807-3.446-.017-.07-.029-.138-.04-.2s-.021-.139-.027-.2c-.012-.117-.018-.223-.019-.319a.617.617,0,0,1-.08.325.1.1,0,0,1-.014.022.647.647,0,0,1-.092.116c-.027.028-.054.054-.08.079a.554.554,0,0,0-.157.214.484.484,0,0,0,0,.273c.281,1.185.536,2.207.74,3.144.03.139.059.276.088.412a14.474,14.474,0,0,1-.006,6.8c-.01.047-.022.095-.033.142l.08,0c3.083.1,3.223-2.319,3.223-2.319a5.3,5.3,0,0,0,2.54-.523C481.844,569.964,481.93,567.578,479.27,566.466Zm-1.807,0c.344.2.668.468.881.593.688.458,2.388,1.084,1.91,2.281-.54,1.535-3.238,1.036-4.078-1.133a1.235,1.235,0,0,1,.006-1.674.665.665,0,0,1,.05-.067c.318-.4.792-.257,1.232,0" transform="translate(-424.794 -503.938)" fill="#13842a"/>
                  <path id="Path_2680" data-name="Path 2680" d="M365.482,293.911c-.039-.126-.079-.252-.121-.378s-.081-.251-.123-.375c-.051-.043-.1-.085-.151-.125.042.124.082.247.122.37s.083.252.122.376c.005.014.009.029.013.043.036.11.07.221.1.33.02.064.04.128.059.192.053.171.1.341.153.51.043.144.085.288.125.431l.009.033c.02.066.038.132.057.2s.03.108.044.162l.012.045c0,.009.005.018.007.027q.082.3.16.6c.032.121.062.24.091.36s.06.239.088.358q.087.357.164.714c.026.116.051.23.074.344,0,.022.009.042.013.064.018.08.034.162.049.241.008.038.016.076.024.114l.009.051c.031.153.06.3.088.456.025.134.048.269.072.4,0,.016.005.032.008.048l.137.195A42.18,42.18,0,0,0,365.482,293.911Zm1.411,5.79a42.18,42.18,0,0,0-1.411-5.79c-.039-.126-.079-.252-.121-.378s-.081-.251-.123-.375c-.051-.043-.1-.085-.151-.125.042.124.082.247.122.37s.083.252.122.376c.005.014.009.029.013.043.036.11.07.221.1.33.02.064.04.128.059.192.053.171.1.341.153.51.043.144.085.288.125.431l.009.033c.02.066.038.132.057.2s.03.108.044.162l.012.045c0,.009.005.018.007.027q.082.3.16.6c.032.121.062.24.091.36s.06.239.088.358q.087.357.164.714c.026.116.051.23.074.344,0,.022.009.042.013.064.018.08.034.162.049.241.008.038.016.076.024.114l.009.051c.031.153.06.3.088.456.025.134.048.269.072.4,0,.016.005.032.008.048.006.034.012.069.018.1s.011.065.016.1c.011.068.023.135.033.2l.034.216c.015.1.031.2.045.306.01.072.021.144.03.217s.018.126.025.188.016.119.023.178c0,.005,0,.009,0,.014a.081.081,0,0,1,0,.009c.014.11.027.221.039.33q.016.135.028.266c.011.1.021.2.029.295l.119.167c-.066-.773-.167-1.574-.3-2.4m6.643-5.865-.085.074a42.164,42.164,0,0,0-1.411,5.789l.137-.194q.04-.232.084-.467c.027-.145.055-.292.085-.439l.009-.051c.008-.038.015-.076.024-.114.021-.1.041-.2.063-.305s.048-.229.074-.344q.077-.356.164-.714c.029-.12.058-.238.088-.358s.06-.239.091-.36c.052-.2.1-.4.16-.6.042-.155.086-.309.13-.465s.082-.287.125-.431c.048-.169.1-.339.153-.51.019-.064.039-.128.059-.192.034-.109.067-.22.1-.33,0-.014.008-.029.013-.043Zm-6.643,5.865a42.18,42.18,0,0,0-1.411-5.79c-.039-.126-.079-.252-.121-.378s-.081-.251-.123-.375c-.051-.043-.1-.085-.151-.125.042.124.082.247.122.37s.083.252.122.376c.005.014.009.029.013.043.036.11.07.221.1.33.02.064.04.128.059.192.053.171.1.341.153.51.043.144.085.288.125.431l.009.033c.02.066.038.132.057.2s.03.108.044.162l.012.045c0,.009.005.018.007.027q.082.3.16.6c.032.121.062.24.091.36s.06.239.088.358q.087.357.164.714c.026.116.051.23.074.344,0,.022.009.042.013.064.018.08.034.162.049.241.008.038.016.076.024.114l.009.051c.031.153.06.3.088.456.025.134.048.269.072.4,0,.016.005.032.008.048.006.034.012.069.018.1s.011.065.016.1c.011.068.023.135.033.2l.034.216c.015.1.031.2.045.306.01.072.021.144.03.217s.018.126.025.188.016.119.023.178c0,.005,0,.009,0,.014a.081.081,0,0,1,0,.009c.014.11.027.221.039.33q.016.135.028.266c.011.1.021.2.029.295l.119.167c-.066-.773-.167-1.574-.3-2.4m-1.411-5.79-.085-.074-.066-.058c.005.014.009.029.013.043.037.11.07.221.1.33.02.064.04.128.059.192.053.171.1.341.153.51.043.144.085.288.125.431l.009.033c.02.066.038.132.057.2s.03.108.044.162l.012.045c0,.009.005.018.007.027q.082.3.16.6c.032.121.062.24.091.36s.06.239.088.358q.087.357.164.714c.026.116.051.23.074.344,0,.022.009.042.013.064.018.08.034.162.049.241.008.038.016.076.024.114l.009.051c.031.153.06.3.088.456.013.066.025.132.037.2s.024.136.035.2c0,.016.005.032.008.048l.137.195A42.18,42.18,0,0,0,365.482,293.911Zm13.756,17.246a2.375,2.375,0,0,0-.684-1.251,3.8,3.8,0,0,0-.992-.7,6.237,6.237,0,0,0-1.06-.412c-.107-.031-.22-.062-.335-.091-2.8-.7-3.79-2.406-4.035-3.37-.019-.072-.033-.14-.043-.2a1.47,1.47,0,0,1-.023-.2.574.574,0,0,1,0-.058q0-.06,0-.173c0-.091,0-.182,0-.274,0-.058,0-.117,0-.175v-.033c0-.058,0-.115,0-.173,0-.011,0-.023,0-.033,0-.058,0-.117,0-.174,0-.166.008-.334.016-.5,0-.068.005-.137.008-.206s.007-.137.011-.206q.042-.736.131-1.511.139-1.217.389-2.515a45.066,45.066,0,0,1,1.442-5.5c.039-.121.078-.241.12-.362s.079-.236.121-.356c.336-.98.708-1.974,1.115-2.974a12.632,12.632,0,0,0,.585-1.807,10.559,10.559,0,0,0,.295-2.562c0-.078,0-.157-.005-.235s-.006-.155-.01-.231a10.545,10.545,0,0,0-1.971-5.454c-.024-.034-.047-.068-.072-.1-.107-.151-.217-.3-.326-.436a15.556,15.556,0,0,0-4.341-3.782l-.1-.054-.1.054a15.536,15.536,0,0,0-4.342,3.782c-.109.14-.219.286-.326.436-.025.033-.048.067-.072.1a10.545,10.545,0,0,0-1.971,5.454c0,.076-.008.154-.01.231s-.005.157-.005.235a10.548,10.548,0,0,0,.295,2.561,12.6,12.6,0,0,0,.585,1.808c.406,1,.779,1.994,1.115,2.974q.062.179.121.356c.041.121.081.241.12.362a45.1,45.1,0,0,1,1.442,5.494c.166.864.3,1.7.389,2.516q.088.773.131,1.511c0,.069.008.138.011.206s.006.138.008.206c.008.17.012.338.017.5,0,.058,0,.117,0,.174,0,.011,0,.022,0,.033,0,.058,0,.116,0,.173v.033c0,.059,0,.118,0,.175,0,.093,0,.184,0,.274q0,.113,0,.173a.565.565,0,0,1,0,.058,1.47,1.47,0,0,1-.023.2c-.01.063-.025.131-.043.2-.245.964-1.23,2.67-4.035,3.37-.115.029-.227.059-.334.091a6.285,6.285,0,0,0-1.061.412,2.806,2.806,0,0,0-1.684,1.976,2.309,2.309,0,0,0,1.071,2.3,3.761,3.761,0,0,0,2.5.585,3.045,3.045,0,0,0,3.154,2.374c.269.686,1.467,3.478,3.053,3.355.034,0,.067,0,.1,0,1.539,0,2.688-2.686,2.952-3.358.062,0,.123,0,.183,0a3.054,3.054,0,0,0,2.973-2.38,3.764,3.764,0,0,0,2.5-.585A2.334,2.334,0,0,0,379.238,311.157Zm-3.678,2.475-.208-.042-.035.21a2.661,2.661,0,0,1-2.918,2.22l-.148-.012h-.009l-.054.148c-.338.935-1.486,3.337-2.7,3.228l-.019,0-.019,0c-1.217.112-2.364-2.292-2.7-3.228l-.054-.149-.158.013a2.667,2.667,0,0,1-2.918-2.22l-.036-.212-.21.045a3.4,3.4,0,0,1-1.128,0h0a3.283,3.283,0,0,1-.615-.163.026.026,0,0,1-.01,0,3,3,0,0,1-.626-.322,1.9,1.9,0,0,1-.9-1.888c.157-.892,1.026-1.626,2.406-2.047.119-.036.241-.07.367-.1a8.191,8.191,0,0,0,.984-.31,5.145,5.145,0,0,0,3.365-3.433c.018-.072.031-.141.041-.2s.02-.143.024-.2c0-.03,0-.058,0-.085s0-.093,0-.164c0-.1,0-.206.005-.31,0-.04,0-.081,0-.123s0-.056,0-.085,0-.08,0-.122,0-.056,0-.085,0-.08,0-.122c0-.185-.007-.37-.015-.558,0-.068-.005-.137-.009-.206s-.006-.137-.01-.206c-.013-.26-.033-.523-.056-.79-.066-.773-.167-1.574-.3-2.4a42.18,42.18,0,0,0-1.411-5.79c-.039-.126-.079-.252-.121-.378s-.081-.251-.123-.375q-.586-1.77-1.335-3.612a12.416,12.416,0,0,1-.491-1.449,10.281,10.281,0,0,1-.371-2.528c0-.08,0-.162,0-.242s0-.16.005-.239a10.1,10.1,0,0,1,2.3-5.948,15.572,15.572,0,0,1,4.124-3.627,15.543,15.543,0,0,1,4.116,3.616,10.1,10.1,0,0,1,2.3,5.959c0,.079.005.159.005.238s0,.162,0,.243a10.282,10.282,0,0,1-.371,2.526,12.177,12.177,0,0,1-.49,1.449q-.749,1.839-1.335,3.612c-.041.125-.083.25-.123.374s-.081.254-.121.379a42.164,42.164,0,0,0-1.411,5.789q-.206,1.234-.3,2.4c-.023.267-.042.53-.056.79,0,.069-.008.138-.01.206s-.007.138-.009.206c-.008.188-.013.373-.015.558,0,.041,0,.081,0,.122s0,.057,0,.085v.329c0,.1,0,.207.005.31q0,.107,0,.164c0,.027,0,.055,0,.085s.007.084.012.13c0,.024.007.049.011.074.01.063.024.132.041.2a5.145,5.145,0,0,0,3.365,3.433,8.186,8.186,0,0,0,.984.31c.129.032.252.066.369.1,1.856.559,2.3,1.5,2.4,2.026a1.93,1.93,0,0,1-.889,1.911,2.786,2.786,0,0,1-.572.3l-.006,0a3.274,3.274,0,0,1-.661.178h0A3.549,3.549,0,0,1,375.56,313.632Zm-10.078-19.721-.085-.074-.066-.058c.005.014.009.029.013.043.037.11.07.221.1.33.02.064.04.128.059.192.053.171.1.341.153.51.043.144.085.288.125.431l.009.033c.02.066.038.132.057.2s.03.108.044.162l.012.045c0,.009.005.018.007.027q.082.3.16.6c.032.121.062.24.091.36s.06.239.088.358q.087.357.164.714c.026.116.051.23.074.344,0,.022.009.042.013.064.018.08.034.162.049.241.008.038.016.076.024.114l.009.051c.031.153.06.3.088.456l.037.2c.012.068.024.136.035.2,0,.016.005.032.008.048l.137.195A42.18,42.18,0,0,0,365.482,293.911Zm1.411,5.79a42.18,42.18,0,0,0-1.411-5.79c-.039-.126-.079-.252-.121-.378s-.081-.251-.123-.375c-.051-.043-.1-.085-.151-.125.042.124.082.247.122.37s.083.252.122.376c.005.014.009.029.013.043.036.11.07.221.1.33.02.064.04.128.059.192.053.171.1.341.153.51.043.144.085.288.125.431l.009.033c.02.066.038.132.057.2s.03.108.044.162l.012.045c0,.009.005.018.007.027q.082.3.16.6c.032.121.062.24.091.36s.06.239.088.358q.087.357.164.714c.026.116.051.23.074.344,0,.022.009.042.013.064.018.08.034.162.049.241.008.038.016.076.024.114l.009.051c.031.153.06.3.088.456.025.134.048.269.072.4,0,.016.005.032.008.048.006.034.012.069.018.1s.011.065.016.1c.011.068.023.135.033.2l.034.216c.015.1.031.2.045.306.01.072.021.144.03.217s.018.126.025.188.016.119.023.178c0,.005,0,.009,0,.014a.081.081,0,0,1,0,.009c.014.11.027.221.039.33q.016.135.028.266c.011.1.021.2.029.295l.119.167c-.066-.773-.167-1.574-.3-2.4m0,0a42.18,42.18,0,0,0-1.411-5.79c-.039-.126-.079-.252-.121-.378s-.081-.251-.123-.375c-.051-.043-.1-.085-.151-.125.042.124.082.247.122.37s.083.252.122.376c.005.014.009.029.013.043.036.11.07.221.1.33.02.064.04.128.059.192.053.171.1.341.153.51.043.144.085.288.125.431l.009.033c.02.066.038.132.057.2s.03.108.044.162l.012.045c0,.009.005.018.007.027q.082.3.16.6c.032.121.062.24.091.36s.06.239.088.358q.087.357.164.714c.026.116.051.23.074.344,0,.022.009.042.013.064.018.08.034.162.049.241.008.038.016.076.024.114l.009.051c.031.153.06.3.088.456.025.134.048.269.072.4,0,.016.005.032.008.048.006.034.012.069.018.1s.011.065.016.1c.011.068.023.135.033.2l.034.216c.015.1.031.2.045.306.01.072.021.144.03.217s.018.126.025.188.016.119.023.178c0,.005,0,.009,0,.014a.081.081,0,0,1,0,.009c.014.11.027.221.039.33q.016.135.028.266c.011.1.021.2.029.295l.119.167c-.066-.773-.167-1.574-.3-2.4" transform="translate(-322.567 -246.677)" fill="#006837"/>
                  <path id="Path_2681" data-name="Path 2681" d="M418.476,547.611c-1.065,0-2.069-.035-2.825-.1-1.164-.1-1.352-.21-1.352-.441s.188-.343,1.352-.441c.755-.064,1.758-.1,2.825-.1s2.069.035,2.823.1c1.164.1,1.352.21,1.352.441s-.188.343-1.352.441c-.755.064-1.758.1-2.823.1" transform="translate(-371.577 -490.171)" fill="#fff"/>
                  <path id="Path_2682" data-name="Path 2682" d="M416.432,545.635h0l-.022-.016c-.244,0-.484,0-.714-.009l.025.034.123.174c.272.005.553.008.837.008l.011-.008Zm-.023-.016c-.244,0-.484,0-.714-.009l.025.034q.347-.008.711-.009Zm4.021-.868a8.7,8.7,0,0,0-.9-.112l-.212-.016-.311-.021-.1-.006c-.156-.008-.318-.016-.486-.023-.426-.018-.887-.028-1.365-.031h0c-.12,0-.24,0-.362,0s-.243,0-.363,0c-.478,0-.939.013-1.365.031-.168.006-.33.014-.486.023l-.1.006-.1.006-.21.014-.212.016a8.7,8.7,0,0,0-.9.112c-.193.038-.643.129-.643.535s.451.5.643.534l.068.012c.209.038.487.071.829.1l.041,0,.209.017.207.013.1.006.1.006c.449.025.949.041,1.476.048.131,0,.265,0,.4,0,.1,0,.2,0,.3,0s.2,0,.3,0c.135,0,.269,0,.4,0,.527-.007,1.027-.024,1.476-.048l.1-.006.31-.02.208-.017h0l.041,0c.342-.029.62-.062.829-.1l.068-.012c.193-.038.643-.128.643-.534s-.451-.5-.643-.535Zm-1.146.788-.31.021-.1.006c-.358.02-.757.035-1.183.044-.23.005-.469.008-.714.009h-.565c-.244,0-.484,0-.714-.009-.426-.009-.825-.025-1.183-.044l-.1-.006-.1-.006-.209-.014c-.844-.061-1.377-.152-1.377-.253s.527-.191,1.36-.252l.21-.014.1-.006.1-.006c.234-.013.486-.025.751-.033.426-.015.888-.022,1.371-.023h.144c.484,0,.946.008,1.371.023.265.008.517.02.751.033l.1.006.311.021c.833.061,1.36.152,1.36.252S420.128,545.478,419.284,545.539Zm-2.875.08c-.244,0-.484,0-.714-.009l.025.034q.347-.008.711-.009Z" transform="translate(-369.792 -488.386)" fill="#006837"/>
                  <path id="Path_2683" data-name="Path 2683" d="M418.476,558.221c-1.065,0-2.069-.035-2.825-.1-1.164-.1-1.352-.21-1.352-.441s.188-.343,1.352-.441c.755-.064,1.758-.1,2.825-.1s2.069.035,2.823.1c1.164.1,1.352.21,1.352.441s-.188.343-1.352.441c-.755.064-1.758.1-2.823.1" transform="translate(-371.577 -499.687)" fill="#fff"/>
                  <path id="Path_2684" data-name="Path 2684" d="M417,555.547h0l-.27-.191h-.06l-.441,0-.161,0-.2,0h-.02l-.315.007-.185.005-.182.006-.352.013-.169.008-.127.006c0,.029,0,.057,0,.085s0,.082,0,.123c.443-.025.95-.042,1.493-.049q.176,0,.359,0c.107,0,.216,0,.325,0s.218,0,.325,0l-.024-.018Zm0,0h0l-.27-.191h-.06l-.441,0-.161,0-.2,0h-.02l-.315.007-.185.005-.182.006-.352.013-.169.008-.127.006c0,.029,0,.057,0,.085s0,.082,0,.123c.443-.025.95-.042,1.493-.049q.176,0,.359,0c.107,0,.216,0,.325,0s.218,0,.325,0l-.024-.018Zm0,0h0l-.27-.191h-.06l-.441,0-.161,0-.2,0h-.02l-.315.007-.185.005-.182.006-.352.013-.169.008-.127.006c0,.029,0,.057,0,.085s0,.082,0,.123c.443-.025.95-.042,1.493-.049q.176,0,.359,0c.107,0,.216,0,.325,0s.218,0,.325,0l-.024-.018Zm3.437-.186-.068-.012c-.209-.037-.487-.071-.829-.1l-.041,0h0l-.206-.017-.31-.02-.1-.006c-.371-.02-.779-.035-1.207-.043-.231-.005-.469-.008-.711-.009h-.521c-.242,0-.479,0-.711.009-.428.008-.835.024-1.207.043l-.1.006-.1.006-.209.013-.207.017-.041,0c-.342.029-.62.063-.829.1l-.068.012c-.193.038-.643.129-.643.535s.451.5.643.534a8.427,8.427,0,0,0,.9.112l.175.013.205.014.105.007.1.006c.66.038,1.438.059,2.252.059.7,0,1.369-.015,1.962-.043l.29-.016.1-.006.117-.007.194-.014.175-.013a8.431,8.431,0,0,0,.9-.112c.193-.038.643-.128.643-.534s-.451-.5-.643-.535Zm-1.138.788-.195.013-.1.006h-.016l-.1.006c-.627.034-1.379.055-2.187.055s-1.56-.021-2.187-.055l-.1-.006-.1-.006-.206-.014c-.838-.062-1.37-.152-1.37-.253s.534-.192,1.379-.253l.207-.014.1-.006.1-.006c.443-.025.95-.042,1.493-.049q.176,0,.359,0c.107,0,.216,0,.325,0s.218,0,.325,0,.241,0,.359,0c.543.007,1.05.025,1.493.049l.1.006.309.021c.845.061,1.379.151,1.379.253S420.139,556.087,419.3,556.149Zm-2.3-.6h0l-.27-.191h-.06l-.441,0-.161,0-.2,0h-.02l-.315.007-.185.005-.182.006-.352.013-.169.008-.127.006c0,.029,0,.057,0,.085s0,.082,0,.123c.443-.025.95-.042,1.493-.049q.176,0,.359,0c.107,0,.216,0,.325,0s.218,0,.325,0l-.024-.018Zm0,0h0l-.27-.191h-.06l-.441,0-.161,0-.2,0h-.02l-.315.007-.185.005-.182.006-.352.013-.169.008-.127.006c0,.029,0,.057,0,.085s0,.082,0,.123c.443-.025.95-.042,1.493-.049q.176,0,.359,0c.107,0,.216,0,.325,0s.218,0,.325,0l-.024-.018Zm0,0h0l-.27-.191h-.06l-.441,0-.161,0-.2,0h-.02l-.315.007-.185.005-.182.006-.352.013-.169.008-.127.006c0,.029,0,.057,0,.085s0,.082,0,.123c.443-.025.95-.042,1.493-.049q.176,0,.359,0c.107,0,.216,0,.325,0s.218,0,.325,0l-.024-.018Zm0,0h0l-.27-.191h-.06l-.271.191-.024.018c.107,0,.216,0,.325,0s.218,0,.325,0l-.024-.018Z" transform="translate(-369.801 -497.902)" fill="#006837"/>
                  <g id="Group_1484" data-name="Group 1484" transform="translate(22.672 21.424)" opacity="0.51" style="mix-blend-mode: lighten;isolation: isolate">
                    <g id="Group_1483" data-name="Group 1483">
                      <g id="Group_1482" data-name="Group 1482" clip-path="url(#clip-path-4)">
                        <path id="Path_2685" data-name="Path 2685" d="M243.238,243.759l-.123-.174-.025-.034c-.426-.009-.825-.025-1.183-.044,0-.185-.007-.37-.015-.558,0-.068-.005-.137-.009-.206s-.006-.137-.01-.206c-.013-.26-.033-.523-.056-.79l-.119-.167-.121-.172-.251-.355q.088.773.131,1.511l-.212.016a8.7,8.7,0,0,0-.9.112c-.193.038-.643.129-.643.535s.451.5.643.534l.068.012-.068.012c-.193.038-.643.129-.643.535s.451.5.643.534a8.44,8.44,0,0,0,.9.112l.175.013c.019-.072.033-.14.043-.2a1.463,1.463,0,0,0,.023-.2.556.556,0,0,0,0-.058q0-.06,0-.173c0-.091,0-.181,0-.274l.207-.014.1-.006.1-.006c0-.04,0-.081,0-.123s0-.056,0-.085l.127-.006.169-.008.352-.013.182-.006.185-.005.315-.007h.02Zm4.587-1.067a8.7,8.7,0,0,0-.9-.112l-.212-.016q.042-.736.131-1.511l7.13-10.1a2.609,2.609,0,0,0-1.343-.064l-5.4,7.645a45.088,45.088,0,0,1,1.442-5.494c-.149.123-.3.251-.455.387-.005.014-.009.029-.013.043-.037.11-.07.221-.1.33-.02.064-.04.128-.059.192-.053.171-.1.341-.153.51-.043.144-.085.288-.125.431s-.088.31-.13.465c-.056.2-.108.4-.16.6-.031.121-.061.24-.091.36s-.059.238-.088.358q-.087.357-.164.714c-.026.116-.051.23-.074.344s-.042.2-.063.305c-.008.038-.015.076-.024.114l-.034.172c-.021.106-.041.212-.06.318-.014.076-.029.154-.042.23s-.028.158-.041.237l-.137.194q-.206,1.234-.3,2.4l-.541.767-.142.2-.142.2-.448.635c-.23.005-.469.008-.714.009H243.8l.022.015h.521c.242,0,.481,0,.712.009.428.008.835.024,1.207.043l.1.006.31.02.206.017h0l.041,0c.342.029.62.063.829.1l.068-.012c.193-.038.643-.128.643-.534s-.451-.5-.643-.535m-4.587,1.067-.123-.174-.025-.034c-.426-.009-.825-.025-1.183-.044,0-.185-.007-.37-.015-.558,0-.068-.005-.137-.009-.206s-.006-.137-.01-.206c-.013-.26-.033-.523-.056-.79l-.119-.167-.121-.172-.251-.355q.088.773.131,1.511l-.212.016a8.7,8.7,0,0,0-.9.112c-.193.038-.643.129-.643.535s.451.5.643.534l.068.012-.068.012c-.193.038-.643.129-.643.535s.451.5.643.534a8.44,8.44,0,0,0,.9.112l.175.013c.019-.072.033-.14.043-.2a1.463,1.463,0,0,0,.023-.2.556.556,0,0,0,0-.058q0-.06,0-.173c0-.091,0-.181,0-.274l.207-.014.1-.006.1-.006c0-.04,0-.081,0-.123s0-.056,0-.085l.127-.006.169-.008.352-.013.182-.006.185-.005.315-.007h.02Zm4.587-1.067a8.7,8.7,0,0,0-.9-.112l-.212-.016q.042-.736.131-1.511l7.13-10.1a2.609,2.609,0,0,0-1.343-.064l-5.4,7.645a45.088,45.088,0,0,1,1.442-5.494c-.149.123-.3.251-.455.387-.005.014-.009.029-.013.043-.037.11-.07.221-.1.33-.02.064-.04.128-.059.192-.053.171-.1.341-.153.51-.043.144-.085.288-.125.431s-.088.31-.13.465c-.056.2-.108.4-.16.6-.031.121-.061.24-.091.36s-.059.238-.088.358q-.087.357-.164.714c-.026.116-.051.23-.074.344s-.042.2-.063.305c-.008.038-.015.076-.024.114l-.034.172c-.021.106-.041.212-.06.318-.014.076-.029.154-.042.23s-.028.158-.041.237l-.137.194q-.206,1.234-.3,2.4l-.541.767-.142.2-.142.2-.448.635c-.23.005-.469.008-.714.009H243.8l.022.015h.521c.242,0,.481,0,.712.009.428.008.835.024,1.207.043l.1.006.31.02.206.017h0l.041,0c.342.029.62.063.829.1l.068-.012c.193-.038.643-.128.643-.534s-.451-.5-.643-.535m-4.587,1.067-.123-.174-.025-.034c-.426-.009-.825-.025-1.183-.044,0-.185-.007-.37-.015-.558,0-.068-.005-.137-.009-.206s-.006-.137-.01-.206c-.013-.26-.033-.523-.056-.79l-.119-.167-.121-.172-.251-.355q.088.773.131,1.511l-.212.016a8.7,8.7,0,0,0-.9.112c-.193.038-.643.129-.643.535s.451.5.643.534l.068.012-.068.012c-.193.038-.643.129-.643.535s.451.5.643.534a8.44,8.44,0,0,0,.9.112l.175.013c.019-.072.033-.14.043-.2a1.463,1.463,0,0,0,.023-.2.556.556,0,0,0,0-.058q0-.06,0-.173c0-.091,0-.181,0-.274l.207-.014.1-.006.1-.006c0-.04,0-.081,0-.123s0-.056,0-.085l.127-.006.169-.008.352-.013.182-.006.185-.005.315-.007h.02Zm25.039,4.7-8.6-14.563-.12-.2-.12-.2-1.269-2.15-2.034-3.444-.632-1.069-.158-.268-1.629-2.759-.108-.183-.108-.185-2.74-4.64-.8-1.352-5.647-9.562a.253.253,0,0,0-.161-.121.26.26,0,0,0-.13,0,.253.253,0,0,0-.161.121l-5.647,9.563-.8,1.352-2.74,4.642-.108.184-.108.183-1.629,2.759-.158.268-.632,1.069-2.034,3.444-1.269,2.15-.12.2-.12.2-8.6,14.563a.261.261,0,0,0,.225.395h47.931A.261.261,0,0,0,268.277,248.459ZM239.5,233.042a45.1,45.1,0,0,1,1.442,5.494l-5.4-7.645A9.192,9.192,0,0,1,239.5,233.042Zm9.18,0a9.187,9.187,0,0,1,3.957-2.151l-5.4,7.645A45.088,45.088,0,0,1,248.676,233.042Zm4.415-9.486q-.4.127-.808.294a13.546,13.546,0,0,0-1.387.666,10.546,10.546,0,0,0-1.971-5.454l1.392-.2Zm-9-15.248,5.609,9.5-.843,1.156c-.107-.151-.217-.3-.326-.436a15.555,15.555,0,0,0-4.341-3.781l-.1-.054-.1.054a15.536,15.536,0,0,0-4.342,3.781c-.109.14-.219.286-.326.436l-.842-1.156Zm-6.231,10.55,1.392.2a10.546,10.546,0,0,0-1.971,5.454,13.548,13.548,0,0,0-1.387-.666q-.408-.167-.808-.294Zm-17.471,29.584,8.352-14.141c.739,1.221,1.567,2.393,2.3,3.427s1.355,1.917,1.751,2.635c1.048,1.9,1.282,4.035.522,4.761-.491.468-1.385.327-2.585-.41l-.28-.172-.033.327a3.507,3.507,0,0,0-.008.395,3.013,3.013,0,0,0,3.041,3.158l.122,0a4.125,4.125,0,0,0,3.6-2.338c.549-1.078,1.466-4.043-1.851-8.288-2.386-3.051-2.631-5.593-1.639-6.528a1.481,1.481,0,0,1,.527-.315l7.13,10.1q.088.773.131,1.511l-.212.016a8.7,8.7,0,0,0-.9.112c-.193.038-.643.129-.643.535s.451.5.643.534l.068.012-.068.012c-.193.038-.643.129-.643.535s.451.5.643.534a8.44,8.44,0,0,0,.9.112l.175.013c-.245.964-1.23,2.67-4.035,3.37-.115.029-.227.059-.334.091Zm30.738,0c-.107-.031-.22-.062-.335-.091-2.8-.7-3.79-2.406-4.035-3.37l.175-.013a8.44,8.44,0,0,0,.9-.112c.193-.038.643-.128.643-.534s-.451-.5-.643-.535l-.068-.012.068-.012c.193-.038.643-.128.643-.534s-.451-.5-.643-.535a8.7,8.7,0,0,0-.9-.112l-.212-.016q.042-.736.131-1.511l7.13-10.1a1.482,1.482,0,0,1,.527.315,2.074,2.074,0,0,1,.549,1.554,8.74,8.74,0,0,1-2.187,4.974c-3.317,4.245-2.4,7.21-1.851,8.288a4.125,4.125,0,0,0,3.6,2.338l.122,0a3.013,3.013,0,0,0,3.041-3.158,3.5,3.5,0,0,0-.008-.395l-.034-.327-.279.172c-1.2.736-2.094.879-2.585.41-.76-.726-.526-2.862.522-4.761.4-.718,1.024-1.607,1.75-2.635s1.559-2.206,2.3-3.427l8.352,14.141Zm-7.885-4.683-.123-.174-.025-.034c-.426-.009-.825-.025-1.183-.044,0-.185-.007-.37-.015-.558,0-.068-.005-.137-.009-.206s-.006-.137-.01-.206c-.013-.26-.033-.523-.056-.79l-.119-.167-.121-.172-.251-.355q.088.773.131,1.511l-.212.016a8.7,8.7,0,0,0-.9.112c-.193.038-.643.129-.643.535s.451.5.643.534l.068.012-.068.012c-.193.038-.643.129-.643.535s.451.5.643.534a8.44,8.44,0,0,0,.9.112l.175.013c.019-.072.033-.14.043-.2a1.463,1.463,0,0,0,.023-.2.556.556,0,0,0,0-.058q0-.06,0-.173c0-.091,0-.181,0-.274l.207-.014.1-.006.1-.006c0-.04,0-.081,0-.123s0-.056,0-.085l.127-.006.169-.008.352-.013.182-.006.185-.005.315-.007h.02Zm4.587-1.067a8.7,8.7,0,0,0-.9-.112l-.212-.016q.042-.736.131-1.511l7.13-10.1a2.609,2.609,0,0,0-1.343-.064l-5.4,7.645a45.088,45.088,0,0,1,1.442-5.494c-.149.123-.3.251-.455.387-.005.014-.009.029-.013.043-.037.11-.07.221-.1.33-.02.064-.04.128-.059.192-.053.171-.1.341-.153.51-.043.144-.085.288-.125.431s-.088.31-.13.465c-.056.2-.108.4-.16.6-.031.121-.061.24-.091.36s-.059.238-.088.358q-.087.357-.164.714c-.026.116-.051.23-.074.344s-.042.2-.063.305c-.008.038-.015.076-.024.114l-.034.172c-.021.106-.041.212-.06.318-.014.076-.029.154-.042.23s-.028.158-.041.237l-.137.194q-.206,1.234-.3,2.4l-.541.767-.142.2-.142.2-.448.635c-.23.005-.469.008-.714.009H243.8l.022.015h.521c.242,0,.481,0,.712.009.428.008.835.024,1.207.043l.1.006.31.02.206.017h0l.041,0c.342.029.62.063.829.1l.068-.012c.193-.038.643-.128.643-.534s-.451-.5-.643-.535m-4.587,1.067-.123-.174-.025-.034c-.426-.009-.825-.025-1.183-.044,0-.185-.007-.37-.015-.558,0-.068-.005-.137-.009-.206s-.006-.137-.01-.206c-.013-.26-.033-.523-.056-.79l-.119-.167-.121-.172-.251-.355q.088.773.131,1.511l-.212.016a8.7,8.7,0,0,0-.9.112c-.193.038-.643.129-.643.535s.451.5.643.534l.068.012-.068.012c-.193.038-.643.129-.643.535s.451.5.643.534a8.44,8.44,0,0,0,.9.112l.175.013c.019-.072.033-.14.043-.2a1.463,1.463,0,0,0,.023-.2.556.556,0,0,0,0-.058q0-.06,0-.173c0-.091,0-.181,0-.274l.207-.014.1-.006.1-.006c0-.04,0-.081,0-.123s0-.056,0-.085l.127-.006.169-.008.352-.013.182-.006.185-.005.315-.007h.02Zm0,0-.123-.174-.025-.034c-.426-.009-.825-.025-1.183-.044,0-.185-.007-.37-.015-.558,0-.068-.005-.137-.009-.206s-.006-.137-.01-.206c-.013-.26-.033-.523-.056-.79l-.119-.167-.121-.172-.251-.355q.088.773.131,1.511l-.212.016a8.7,8.7,0,0,0-.9.112c-.193.038-.643.129-.643.535s.451.5.643.534l.068.012-.068.012c-.193.038-.643.129-.643.535s.451.5.643.534a8.44,8.44,0,0,0,.9.112l.175.013c.019-.072.033-.14.043-.2a1.463,1.463,0,0,0,.023-.2.556.556,0,0,0,0-.058q0-.06,0-.173c0-.091,0-.181,0-.274l.207-.014.1-.006.1-.006c0-.04,0-.081,0-.123s0-.056,0-.085l.127-.006.169-.008.352-.013.182-.006.185-.005.315-.007h.02Z" transform="translate(-219.859 -207.75)" fill="#fff"/>
                      </g>
                    </g>
                  </g>
                  <path id="Path_2686" data-name="Path 2686" d="M268.277,248.459l-8.6-14.563-.12-.2-.12-.2-1.269-2.15-2.034-3.444-.632-1.069-.158-.268-1.629-2.759-.108-.183-.108-.185-2.74-4.64-.8-1.352-5.647-9.562a.253.253,0,0,0-.161-.121.26.26,0,0,0-.13,0,.253.253,0,0,0-.161.121l-5.647,9.563-.8,1.352-2.74,4.642-.108.184-.108.183-1.629,2.759-.158.268-.632,1.069-2.034,3.444-1.269,2.15-.12.2-.12.2-8.6,14.563a.261.261,0,0,0,.225.395h47.931A.261.261,0,0,0,268.277,248.459Zm-47.892-.018,8.352-14.141.119-.2.118-.2,1.158-1.961,2.169-3.671.632-1.07.391-.661,1.545-2.617.107-.18.107-.183,2.774-4.7.622-1.054,5.609-9.5,5.609,9.5.622,1.054,2.774,4.7.107.183.107.18,1.545,2.616.391.662.632,1.07,2.169,3.671L259.2,233.9l.118.2.119.2,8.352,14.141Z" transform="translate(-197.187 -186.326)" fill="#004637"/>
                </g>
              </g>
            </g>
          </g>
        </g>
      </g>
    </g>
  </g>
</svg>
