<svg id="Group_868" data-name="Group 868" xmlns="http://www.w3.org/2000/svg" xmlns:xlink="http://www.w3.org/1999/xlink" width="16" height="16" viewBox="0 0 16 16">
  <defs>
    <clipPath id="clip-path">
      <rect id="Rectangle_1671" data-name="Rectangle 1671" width="16" height="16" fill="none"/>
    </clipPath>
  </defs>
  <g id="Group_867" data-name="Group 867" clip-path="url(#clip-path)">
    <path id="Path_1229" data-name="Path 1229" d="M6.951,10.695A.735.735,0,0,1,6.4,10.45L5,8.882A.735.735,0,1,1,6.1,7.9l.852.955L9.9,5.551a.734.734,0,1,1,1.1.978l-3.5,3.92a.73.73,0,0,1-.548.246" fill="#40ae7c"/>
    <path id="Path_1230" data-name="Path 1230" d="M8,16a8,8,0,1,1,8-8,8.009,8.009,0,0,1-8,8M8,.762A7.238,7.238,0,1,0,15.238,8,7.246,7.246,0,0,0,8,.762" fill="#40ae7c"/>
  </g>
</svg>
