<svg id="Group_856" data-name="Group 856" xmlns="http://www.w3.org/2000/svg" xmlns:xlink="http://www.w3.org/1999/xlink" width="15.684" height="16" viewBox="0 0 15.684 16">
  <defs>
    <clipPath id="clip-path">
      <rect id="Rectangle_1667" data-name="Rectangle 1667" width="15.684" height="16" fill="none"/>
    </clipPath>
  </defs>
  <g id="Group_855" data-name="Group 855" clip-path="url(#clip-path)">
    <path id="Path_1209" data-name="Path 1209" d="M11.056,12.953a12.606,12.606,0,0,1-2.887-.588c-1.78-.478-2.67-.716-3.3-1.3a3.409,3.409,0,0,1-1-1.724c-.2-.836.044-1.728.52-3.505l.58-2.162A6.088,6.088,0,0,1,6.095,1.065a3.4,3.4,0,0,1,1.724-1c.837-.2,1.729.044,3.506.521s2.668.713,3.3,1.3a3.425,3.425,0,0,1,.995,1.723c.2.836-.042,1.723-.516,3.492l-.4,1.487-.368-.1L14.7,8.6c-.475,1.773-.714,2.665-1.3,3.29a3.4,3.4,0,0,1-1.724.995,2.4,2.4,0,0,1-.265.046,2.72,2.72,0,0,1-.353.022M8.438.764a1.967,1.967,0,0,0-.446.048,2.639,2.639,0,0,0-1.341.774,5.471,5.471,0,0,0-.938,2.285L5.134,6.03C4.69,7.685,4.467,8.515,4.62,9.165a2.636,2.636,0,0,0,.774,1.34c.486.458,1.316.679,2.967,1.122a9.128,9.128,0,0,0,2.956.548,1.453,1.453,0,0,0,.181-.031,2.642,2.642,0,0,0,1.344-.776c.456-.486.679-1.316,1.122-2.966l.369.093-.368-.1.394-1.471c.445-1.661.666-2.487.515-3.136a2.663,2.663,0,0,0-.775-1.34c-.488-.458-1.318-.68-2.972-1.123A12.245,12.245,0,0,0,8.438.764" fill="#1e58a5"/>
    <path id="Path_1210" data-name="Path 1210" d="M4.625,16a2.684,2.684,0,0,1-.615-.068,3.412,3.412,0,0,1-1.724-.995c-.588-.627-.827-1.519-1.3-3.3L.589,10.168C.112,8.391-.127,7.5.069,6.662a3.4,3.4,0,0,1,1-1.723c.627-.587,1.519-.826,3.3-1.3.325-.087.621-.166.89-.236l.191.739c-.267.068-.561.147-.884.234C2.9,4.816,2.073,5.039,1.585,5.5a2.639,2.639,0,0,0-.774,1.34c-.152.651.07,1.481.514,3.135l.394,1.472c.444,1.655.666,2.486,1.123,2.973a2.658,2.658,0,0,0,1.341.774c.649.154,1.477-.07,3.128-.512S9.8,14.01,10.29,13.554A2.676,2.676,0,0,0,11,12.435l.724.236a3.432,3.432,0,0,1-.916,1.438c-.625.587-1.516.826-3.289,1.3a12.609,12.609,0,0,1-2.9.59" fill="#1e58a5"/>
  </g>
</svg>
