<svg id="Group_872" data-name="Group 872" xmlns="http://www.w3.org/2000/svg" xmlns:xlink="http://www.w3.org/1999/xlink" width="16.255" height="16.25" viewBox="0 0 16.255 16.25">
  <defs>
    <clipPath id="clip-path">
      <rect id="Rectangle_1674" data-name="Rectangle 1674" width="16.255" height="16.25" fill="none"/>
    </clipPath>
  </defs>
  <g id="Group_871" data-name="Group 871" clip-path="url(#clip-path)">
    <path id="Path_1239" data-name="Path 1239" d="M3.072,8.649h.594v4.217H3.072Zm.523,2.91v-.564h.719a1.018,1.018,0,0,0,.736-.242.945.945,0,0,0,.249-.708.767.767,0,0,0-.249-.621,1.112,1.112,0,0,0-.736-.211H3.607V8.649h.707A1.792,1.792,0,0,1,5.515,9a1.305,1.305,0,0,1,.408,1.043,1.478,1.478,0,0,1-.408,1.129,1.688,1.688,0,0,1-1.2.385Z" fill="#65899c"/>
    <path id="Path_1240" data-name="Path 1240" d="M3.072,8.649h.594v4.217H3.072Zm.523,2.91v-.564h.719a1.018,1.018,0,0,0,.736-.242.945.945,0,0,0,.249-.708.767.767,0,0,0-.249-.621,1.112,1.112,0,0,0-.736-.211H3.607V8.649h.707A1.792,1.792,0,0,1,5.515,9a1.305,1.305,0,0,1,.408,1.043,1.478,1.478,0,0,1-.408,1.129,1.688,1.688,0,0,1-1.2.385Z" fill="none" stroke="#65899c" stroke-width="0.25"/>
    <path id="Path_1241" data-name="Path 1241" d="M6.577,8.648h.594v4.217H6.577Zm.552,4.217V12.3H7.6a1.24,1.24,0,0,0,.979-.371A1.645,1.645,0,0,0,8.9,10.816a1.872,1.872,0,0,0-.328-1.2,1.194,1.194,0,0,0-.979-.4H7.141L7.07,8.648H7.6q1.931,0,1.93,2.168,0,2.049-1.93,2.049Z" fill="#65899c"/>
    <path id="Path_1242" data-name="Path 1242" d="M6.577,8.648h.594v4.217H6.577Zm.552,4.217V12.3H7.6a1.24,1.24,0,0,0,.979-.371A1.645,1.645,0,0,0,8.9,10.816a1.872,1.872,0,0,0-.328-1.2,1.194,1.194,0,0,0-.979-.4H7.141L7.07,8.648H7.6q1.931,0,1.93,2.168,0,2.049-1.93,2.049Z" fill="none" stroke="#65899c" stroke-width="0.25"/>
    <path id="Path_1243" data-name="Path 1243" d="M10.259,8.649h.594v4.217h-.594Zm0,0H13.05v.564H10.259Zm0,2h2.257v.564H10.259Z" fill="#65899c"/>
    <path id="Path_1244" data-name="Path 1244" d="M10.259,8.649h.594v4.217h-.594Zm0,0H13.05v.564H10.259Zm0,2h2.257v.564H10.259Z" fill="none" stroke="#65899c" stroke-width="0.25"/>
    <path id="Path_1245" data-name="Path 1245" d="M16.041,7.005,12.788,7c-1.712-.033-2.655-.049-3.315-.71-.68-.679-.68-1.647-.68-3.576V.783h.774V2.717c0,1.715,0,2.576.453,3.03.439.439,1.272.454,2.782.482l.151,0h3.088Z" fill="#65899c"/>
    <path id="Path_1246" data-name="Path 1246" d="M16.041,7.005,12.788,7c-1.712-.033-2.655-.049-3.315-.71-.68-.679-.68-1.647-.68-3.576V.783h.774V2.717c0,1.715,0,2.576.453,3.03.439.439,1.272.454,2.782.482l.151,0h3.088Z" fill="none" stroke="#65899c" stroke-width="0.25"/>
    <path id="Path_1247" data-name="Path 1247" d="M12.336,16.125H3.915a3.8,3.8,0,0,1-3.79-3.79V3.915A3.8,3.8,0,0,1,3.915.125l6,.053a1.746,1.746,0,0,1,1.252.549l4.477,4.781a1.8,1.8,0,0,1,.489,1.235l-.005,5.592a3.8,3.8,0,0,1-3.79,3.79M3.912.9A3.019,3.019,0,0,0,.9,3.915v8.42a3.019,3.019,0,0,0,3.016,3.016h8.421a3.019,3.019,0,0,0,3.016-3.016l.005-5.592a1.029,1.029,0,0,0-.279-.706L10.6,1.256a.962.962,0,0,0-.694-.3Z" fill="#65899c"/>
    <path id="Path_1248" data-name="Path 1248" d="M12.336,16.125H3.915a3.8,3.8,0,0,1-3.79-3.79V3.915A3.8,3.8,0,0,1,3.915.125l6,.053a1.746,1.746,0,0,1,1.252.549l4.477,4.781a1.8,1.8,0,0,1,.489,1.235l-.005,5.592A3.8,3.8,0,0,1,12.336,16.125ZM3.912.9A3.019,3.019,0,0,0,.9,3.915v8.42a3.019,3.019,0,0,0,3.016,3.016h8.421a3.019,3.019,0,0,0,3.016-3.016l.005-5.592a1.029,1.029,0,0,0-.279-.706L10.6,1.256a.962.962,0,0,0-.694-.3Z" fill="none" stroke="#65899c" stroke-width="0.25"/>
  </g>
</svg>
