<svg id="Group_876" data-name="Group 876" xmlns="http://www.w3.org/2000/svg" xmlns:xlink="http://www.w3.org/1999/xlink" width="14.726" height="16.25" viewBox="0 0 14.726 16.25">
  <defs>
    <clipPath id="clip-path">
      <rect id="Rectangle_1676" data-name="Rectangle 1676" width="14.726" height="16.25" fill="none"/>
    </clipPath>
  </defs>
  <g id="Group_875" data-name="Group 875" clip-path="url(#clip-path)">
    <path id="Path_1253" data-name="Path 1253" d="M9.649,16.125H5.078c-2.258,0-3.391,0-4.172-.781S.125,13.43.125,11.173V6.6c0-2.257,0-3.39.781-4.171.715-.714,1.764-.771,3.407-.78l0,.762c-1.642.009-2.4.088-2.873.557C.887,3.527.887,4.554.887,6.6v4.572c0,2.047,0,3.075.558,3.633s1.585.557,3.633.557H9.649c2.047,0,3.075,0,3.632-.557s.558-1.586.558-3.633V6.6c0-2.047,0-3.074-.558-3.632-.468-.469-1.23-.548-2.872-.557l0-.762c1.643.009,2.693.066,3.407.78.781.781.781,1.914.781,4.171v4.572c0,2.257,0,3.39-.781,4.171s-1.914.781-4.171.781" fill="#65899c"/>
    <path id="Path_1254" data-name="Path 1254" d="M9.649,16.125H5.078c-2.258,0-3.391,0-4.172-.781S.125,13.43.125,11.173V6.6c0-2.257,0-3.39.781-4.171.715-.714,1.764-.771,3.407-.78l0,.762c-1.642.009-2.4.088-2.873.557C.887,3.527.887,4.554.887,6.6v4.572c0,2.047,0,3.075.558,3.633s1.585.557,3.633.557H9.649c2.047,0,3.075,0,3.632-.557s.558-1.586.558-3.633V6.6c0-2.047,0-3.074-.558-3.632-.468-.469-1.23-.548-2.872-.557l0-.762c1.643.009,2.693.066,3.407.78.781.781.781,1.914.781,4.171v4.572c0,2.257,0,3.39-.781,4.171S11.906,16.125,9.649,16.125Z" fill="none" stroke="#65899c" stroke-width="0.25"/>
    <path id="Path_1255" data-name="Path 1255" d="M8.125,9.888H3.173a.286.286,0,1,1,0-.571H8.125a.286.286,0,1,1,0,.571" fill="#65899c"/>
    <path id="Path_1256" data-name="Path 1256" d="M8.125,9.888H3.173a.286.286,0,1,1,0-.571H8.125a.286.286,0,1,1,0,.571Z" fill="none" stroke="#65899c" stroke-width="0.25"/>
    <path id="Path_1257" data-name="Path 1257" d="M8.125,7.188H3.173a.286.286,0,1,1,0-.571H8.125a.286.286,0,1,1,0,.571" fill="#65899c"/>
    <path id="Path_1258" data-name="Path 1258" d="M8.125,7.188H3.173a.286.286,0,1,1,0-.571H8.125a.286.286,0,1,1,0,.571Z" fill="none" stroke="#65899c" stroke-width="0.25"/>
    <path id="Path_1259" data-name="Path 1259" d="M8.125,12.6H3.173a.286.286,0,1,1,0-.571H8.125a.286.286,0,1,1,0,.571" fill="#65899c"/>
    <path id="Path_1260" data-name="Path 1260" d="M8.125,12.6H3.173a.286.286,0,1,1,0-.571H8.125a.286.286,0,1,1,0,.571Z" fill="none" stroke="#65899c" stroke-width="0.25"/>
    <path id="Path_1261" data-name="Path 1261" d="M9.268,3.935H5.458A1.526,1.526,0,0,1,3.934,2.411V1.649A1.526,1.526,0,0,1,5.458.125h3.81a1.525,1.525,0,0,1,1.523,1.524v.762A1.525,1.525,0,0,1,9.268,3.935M5.458.887a.763.763,0,0,0-.762.762v.762a.763.763,0,0,0,.762.762h3.81a.762.762,0,0,0,.761-.762V1.649A.762.762,0,0,0,9.268.887Z" fill="#65899c"/>
    <path id="Path_1262" data-name="Path 1262" d="M9.268,3.935H5.458A1.526,1.526,0,0,1,3.934,2.411V1.649A1.526,1.526,0,0,1,5.458.125h3.81a1.525,1.525,0,0,1,1.523,1.524v.762A1.525,1.525,0,0,1,9.268,3.935ZM5.458.887a.763.763,0,0,0-.762.762v.762a.763.763,0,0,0,.762.762h3.81a.762.762,0,0,0,.761-.762V1.649A.762.762,0,0,0,9.268.887Z" fill="none" stroke="#65899c" stroke-width="0.25"/>
    <path id="Path_1263" data-name="Path 1263" d="M10.765,7.57a.182.182,0,0,1-.136-.061l-.347-.389a.182.182,0,0,1,.272-.243l.211.237.732-.82a.182.182,0,1,1,.272.243l-.868.972a.182.182,0,0,1-.136.061" fill="#65899c"/>
    <path id="Path_1264" data-name="Path 1264" d="M10.765,7.57a.182.182,0,0,1-.136-.061l-.347-.389a.182.182,0,0,1,.272-.243l.211.237.732-.82a.182.182,0,1,1,.272.243l-.868.972A.182.182,0,0,1,10.765,7.57Z" fill="none" stroke="#65899c" stroke-width="0.25"/>
    <path id="Path_1265" data-name="Path 1265" d="M10.765,10.271a.182.182,0,0,1-.136-.061l-.347-.389a.182.182,0,0,1,.272-.243l.211.237.732-.82a.182.182,0,1,1,.272.243l-.868.972a.182.182,0,0,1-.136.061" fill="#65899c"/>
    <path id="Path_1266" data-name="Path 1266" d="M10.765,10.271a.182.182,0,0,1-.136-.061l-.347-.389a.182.182,0,0,1,.272-.243l.211.237.732-.82a.182.182,0,1,1,.272.243l-.868.972A.182.182,0,0,1,10.765,10.271Z" fill="none" stroke="#65899c" stroke-width="0.25"/>
    <path id="Path_1267" data-name="Path 1267" d="M10.765,12.984a.182.182,0,0,1-.136-.061l-.347-.389a.182.182,0,0,1,.272-.243l.211.237.732-.82a.182.182,0,1,1,.272.243l-.868.972a.182.182,0,0,1-.136.061" fill="#65899c"/>
    <path id="Path_1268" data-name="Path 1268" d="M10.765,12.984a.182.182,0,0,1-.136-.061l-.347-.389a.182.182,0,0,1,.272-.243l.211.237.732-.82a.182.182,0,1,1,.272.243l-.868.972A.182.182,0,0,1,10.765,12.984Z" fill="none" stroke="#65899c" stroke-width="0.25"/>
  </g>
</svg>
