<svg id="Group_878" data-name="Group 878" xmlns="http://www.w3.org/2000/svg" xmlns:xlink="http://www.w3.org/1999/xlink" width="16.25" height="16.25" viewBox="0 0 16.25 16.25">
  <defs>
    <clipPath id="clip-path">
      <rect id="Rectangle_1677" data-name="Rectangle 1677" width="16.25" height="16.25" fill="none"/>
    </clipPath>
  </defs>
  <g id="Group_877" data-name="Group 877" clip-path="url(#clip-path)">
    <path id="Path_1269" data-name="Path 1269" d="M8.125,16.125a8,8,0,1,1,8-8,8.009,8.009,0,0,1-8,8m0-15.238a7.238,7.238,0,1,0,7.238,7.238A7.246,7.246,0,0,0,8.125.887" fill="#65899c"/>
    <path id="Path_1270" data-name="Path 1270" d="M8.125,16.125a8,8,0,1,1,8-8A8.009,8.009,0,0,1,8.125,16.125Zm0-15.238a7.238,7.238,0,1,0,7.238,7.238A7.246,7.246,0,0,0,8.125.887Z" fill="none" stroke="#65899c" stroke-width="0.25"/>
    <path id="Path_1271" data-name="Path 1271" d="M7.037,11.556a.88.88,0,0,1-.549-.194c-.507-.38-.544-1.017-.618-2.284-.019-.333-.031-.66-.031-.953s.012-.62.031-.952c.074-1.268.111-1.9.617-2.286.574-.431,1.149-.08,2.02.449.22.133.433.27.619.4.212.149.444.329.678.519.854.7,1.369,1.116,1.369,1.869S10.658,9.3,9.806,9.992c-.236.192-.468.372-.682.521-.184.131-.4.267-.617.4a3.279,3.279,0,0,1-1.47.643m.018-6.094a.18.18,0,0,0-.11.034c-.224.168-.258.752-.314,1.72-.018.317-.03.629-.03.909s.012.591.03.909c.056.967.09,1.551.315,1.72.145.108.436-.048,1.166-.491.2-.125.4-.25.575-.373.2-.141.417-.309.635-.488.81-.659,1.089-.906,1.089-1.277s-.28-.619-1.088-1.278C9.1,6.669,8.888,6.5,8.687,6.36c-.174-.123-.372-.249-.575-.373a3.108,3.108,0,0,0-1.057-.525" fill="#65899c"/>
    <path id="Path_1272" data-name="Path 1272" d="M7.037,11.556a.88.88,0,0,1-.549-.194c-.507-.38-.544-1.017-.618-2.284-.019-.333-.031-.66-.031-.953s.012-.62.031-.952c.074-1.268.111-1.9.617-2.286.574-.431,1.149-.08,2.02.449.22.133.433.27.619.4.212.149.444.329.678.519.854.7,1.369,1.116,1.369,1.869S10.658,9.3,9.806,9.992c-.236.192-.468.372-.682.521-.184.131-.4.267-.617.4A3.279,3.279,0,0,1,7.037,11.556Zm.018-6.094a.18.18,0,0,0-.11.034c-.224.168-.258.752-.314,1.72-.018.317-.03.629-.03.909s.012.591.03.909c.056.967.09,1.551.315,1.72.145.108.436-.048,1.166-.491.2-.125.4-.25.575-.373.2-.141.417-.309.635-.488.81-.659,1.089-.906,1.089-1.277s-.28-.619-1.088-1.278C9.1,6.669,8.888,6.5,8.687,6.36c-.174-.123-.372-.249-.575-.373A3.108,3.108,0,0,0,7.055,5.462Z" fill="none" stroke="#65899c" stroke-width="0.25"/>
  </g>
</svg>
