<svg id="Group_882" data-name="Group 882" xmlns="http://www.w3.org/2000/svg" xmlns:xlink="http://www.w3.org/1999/xlink" width="16.005" height="16" viewBox="0 0 16.005 16">
  <defs>
    <clipPath id="clip-path">
      <rect id="Rectangle_1679" data-name="Rectangle 1679" width="16.005" height="16" fill="none"/>
    </clipPath>
  </defs>
  <g id="Group_881" data-name="Group 881" clip-path="url(#clip-path)">
    <path id="Path_1277" data-name="Path 1277" d="M9.829,10.33H3.638a.387.387,0,0,1,0-.774H9.829a.387.387,0,0,1,0,.774" fill="#40ae7c"/>
    <path id="Path_1278" data-name="Path 1278" d="M7.894,13.039H3.638a.387.387,0,1,1,0-.774H7.894a.387.387,0,1,1,0,.774" fill="#40ae7c"/>
    <path id="Path_1279" data-name="Path 1279" d="M15.916,6.88l-3.253,0c-1.712-.033-2.655-.049-3.315-.71-.68-.679-.68-1.647-.68-3.576V.658h.774V2.592c0,1.715,0,2.576.454,3.03.439.439,1.271.454,2.781.482l.151,0h3.088Z" fill="#40ae7c"/>
    <path id="Path_1280" data-name="Path 1280" d="M12.21,16H3.79A3.794,3.794,0,0,1,0,12.21V3.79A3.794,3.794,0,0,1,3.79,0l6,.052A1.747,1.747,0,0,1,11.04.6l4.477,4.781A1.8,1.8,0,0,1,16,6.619l0,5.591A3.8,3.8,0,0,1,12.21,16M3.787.774A3.019,3.019,0,0,0,.774,3.79v8.42A3.019,3.019,0,0,0,3.79,15.226h8.42a3.02,3.02,0,0,0,3.017-3.016l0-5.592a1.03,1.03,0,0,0-.278-.707l-4.478-4.78A.971.971,0,0,0,9.781.826Z" fill="#40ae7c"/>
  </g>
</svg>
