<svg id="Group_884" data-name="Group 884" xmlns="http://www.w3.org/2000/svg" xmlns:xlink="http://www.w3.org/1999/xlink" width="16.005" height="16" viewBox="0 0 16.005 16">
  <defs>
    <clipPath id="clip-path">
      <rect id="Rectangle_1680" data-name="Rectangle 1680" width="16.005" height="16" fill="none"/>
    </clipPath>
  </defs>
  <g id="Group_883" data-name="Group 883" clip-path="url(#clip-path)">
    <path id="Path_1281" data-name="Path 1281" d="M2.947,8.524h.594v4.217H2.947Zm.523,2.91V10.87h.719a1.018,1.018,0,0,0,.736-.242.945.945,0,0,0,.249-.708A.767.767,0,0,0,4.925,9.3a1.112,1.112,0,0,0-.736-.211H3.482V8.524h.707a1.792,1.792,0,0,1,1.2.353A1.305,1.305,0,0,1,5.8,9.92a1.478,1.478,0,0,1-.408,1.129,1.688,1.688,0,0,1-1.2.385Z" fill="#40ae7c"/>
    <path id="Path_1282" data-name="Path 1282" d="M6.452,8.523h.594V12.74H6.452ZM7,12.74v-.564h.469a1.24,1.24,0,0,0,.979-.371,1.645,1.645,0,0,0,.328-1.114,1.872,1.872,0,0,0-.328-1.2,1.194,1.194,0,0,0-.979-.4H7.016l-.071-.565h.528q1.931,0,1.93,2.168,0,2.049-1.93,2.049Z" fill="#40ae7c"/>
    <path id="Path_1283" data-name="Path 1283" d="M10.134,8.524h.594v4.217h-.594Zm0,0h2.791v.564H10.134Zm0,2h2.257v.564H10.134Z" fill="#40ae7c"/>
    <path id="Path_1284" data-name="Path 1284" d="M15.916,6.88l-3.253,0c-1.712-.033-2.655-.049-3.315-.71-.68-.679-.68-1.647-.68-3.576V.658h.774V2.592c0,1.715,0,2.576.453,3.03.439.439,1.272.454,2.782.482l.151,0h3.088Z" fill="#40ae7c"/>
    <path id="Path_1285" data-name="Path 1285" d="M12.211,16H3.79A3.8,3.8,0,0,1,0,12.21V3.79A3.8,3.8,0,0,1,3.79,0l6,.053A1.746,1.746,0,0,1,11.04.6l4.477,4.781a1.8,1.8,0,0,1,.489,1.235L16,12.21A3.8,3.8,0,0,1,12.211,16M3.787.774A3.019,3.019,0,0,0,.774,3.79v8.42A3.019,3.019,0,0,0,3.79,15.226h8.421a3.019,3.019,0,0,0,3.016-3.016l.005-5.592a1.029,1.029,0,0,0-.279-.706L10.475,1.131a.962.962,0,0,0-.694-.3Z" fill="#40ae7c"/>
  </g>
</svg>
