<svg id="Group_946" data-name="Group 946" xmlns="http://www.w3.org/2000/svg" xmlns:xlink="http://www.w3.org/1999/xlink" width="16.25" height="16.25" viewBox="0 0 16.25 16.25">
  <defs>
    <clipPath id="clip-path">
      <rect id="Rectangle_1703" data-name="Rectangle 1703" width="16.25" height="16.25" fill="none"/>
    </clipPath>
  </defs>
  <g id="Group_945" data-name="Group 945" clip-path="url(#clip-path)">
    <path id="Path_1339" data-name="Path 1339" d="M8.125,8.505A2.666,2.666,0,1,1,10.792,5.84,2.67,2.67,0,0,1,8.125,8.505m0-4.571a1.906,1.906,0,1,0,1.9,1.906,1.907,1.907,0,0,0-1.9-1.906" fill="#65899c"/>
    <path id="Path_1340" data-name="Path 1340" d="M8.125,8.505A2.666,2.666,0,1,1,10.792,5.84,2.67,2.67,0,0,1,8.125,8.505Zm0-4.571a1.906,1.906,0,1,0,1.9,1.906A1.907,1.907,0,0,0,8.125,3.934Z" fill="none" stroke="#65899c" stroke-width="0.25"/>
    <path id="Path_1341" data-name="Path 1341" d="M8.125,16.125a8,8,0,1,1,8-8,8.009,8.009,0,0,1-8,8m0-15.238a7.238,7.238,0,1,0,7.238,7.238A7.246,7.246,0,0,0,8.125.887" fill="#65899c"/>
    <path id="Path_1342" data-name="Path 1342" d="M8.125,16.125a8,8,0,1,1,8-8A8.009,8.009,0,0,1,8.125,16.125Zm0-15.238a7.238,7.238,0,1,0,7.238,7.238A7.246,7.246,0,0,0,8.125.887Z" fill="none" stroke="#65899c" stroke-width="0.25"/>
    <path id="Path_1343" data-name="Path 1343" d="M12.673,14.6a.381.381,0,0,1-.38-.36c-.1-1.887-.49-3.45-4.168-3.45s-4.063,1.563-4.167,3.45a.368.368,0,0,1-.4.359.38.38,0,0,1-.359-.4c.137-2.5,1.028-4.169,4.927-4.169S12.916,11.7,13.053,14.2a.38.38,0,0,1-.359.4h-.021" fill="#65899c"/>
    <path id="Path_1344" data-name="Path 1344" d="M12.673,14.6a.381.381,0,0,1-.38-.36c-.1-1.887-.49-3.45-4.168-3.45s-4.063,1.563-4.167,3.45a.368.368,0,0,1-.4.359.38.38,0,0,1-.359-.4c.137-2.5,1.028-4.169,4.927-4.169S12.916,11.7,13.053,14.2a.38.38,0,0,1-.359.4Z" fill="none" stroke="#65899c" stroke-width="0.25"/>
  </g>
</svg>
