<svg xmlns="http://www.w3.org/2000/svg" xmlns:xlink="http://www.w3.org/1999/xlink" width="120" height="120" viewBox="0 0 120 120">
  <defs>
    <clipPath id="clip-path">
      <rect id="Rectangle_2231" data-name="Rectangle 2231" width="92.341" height="92.341" fill="none"/>
    </clipPath>
    <clipPath id="clip-path-2">
      <path id="Path_2838" data-name="Path 2838" d="M113.778,224.625a.51.51,0,0,0-.094.41c.29,1.7,4.014,6.188,4.61,6.188h24.658V226.81L114.081,224.5h-.033a.349.349,0,0,0-.271.125" transform="translate(-113.676 -224.5)" fill="none"/>
    </clipPath>
    <linearGradient id="linear-gradient" x1="-0.439" y1="9.954" x2="-0.435" y2="9.954" gradientUnits="objectBoundingBox">
      <stop offset="0" stop-color="#bec0c2"/>
      <stop offset="1" stop-color="#ebebec"/>
    </linearGradient>
    <clipPath id="clip-path-4">
      <path id="Path_2840" data-name="Path 2840" d="M152.15,272.541a.389.389,0,0,0-.318.177.408.408,0,0,0-.036.382,20.8,20.8,0,0,0,2.582,3.246,16.513,16.513,0,0,0,2.546,2.42h.01l18.1-2.145-.17-4.409Z" transform="translate(-151.764 -272.21)" fill="none"/>
    </clipPath>
    <linearGradient id="linear-gradient-2" x1="-0.737" y1="9.384" x2="-0.732" y2="9.384" xlink:href="#linear-gradient"/>
    <clipPath id="clip-path-6">
      <path id="Path_2842" data-name="Path 2842" d="M198.964,296.768a.388.388,0,0,0-.327.236.41.41,0,0,0,.052.418c1.091,1.392,3.051,3.726,3.925,3.726h.041c1.04-.083,14.607-1.854,15.185-1.93l.108-.014-.342-3.91Z" transform="translate(-198.602 -295.291)" fill="none"/>
    </clipPath>
    <linearGradient id="linear-gradient-3" x1="-1.16" y1="10.058" x2="-1.154" y2="10.058" xlink:href="#linear-gradient"/>
    <clipPath id="clip-path-8">
      <path id="Path_2844" data-name="Path 2844" d="M258.17,320.37l-14.784,1.045a.386.386,0,0,0-.322.217.406.406,0,0,0,.022.405c.7,1.086,2.02,2.908,2.984,2.908h0c1.068,0,10.129-2.053,12.88-2.683a.392.392,0,0,0,.274-.232.415.415,0,0,0-.027-.374l-.668-1.1a.386.386,0,0,0-.332-.189Z" transform="translate(-243.02 -320.37)" fill="none"/>
    </clipPath>
    <linearGradient id="linear-gradient-4" x1="-1.69" y1="12.246" x2="-1.683" y2="12.246" gradientUnits="objectBoundingBox">
      <stop offset="0" stop-color="#bec0c2"/>
      <stop offset="1" stop-color="#fff"/>
    </linearGradient>
    <clipPath id="clip-path-10">
      <path id="Path_2846" data-name="Path 2846" d="M472.041,224.5,443.17,226.81v4.412h24.658c.6,0,4.321-4.489,4.611-6.188a.5.5,0,0,0-.094-.41.349.349,0,0,0-.271-.125h-.033" transform="translate(-443.17 -224.5)" fill="none"/>
    </clipPath>
    <linearGradient id="linear-gradient-5" x1="-1.713" y1="9.954" x2="-1.709" y2="9.954" xlink:href="#linear-gradient"/>
    <clipPath id="clip-path-12">
      <path id="Path_2848" data-name="Path 2848" d="M458.11,276.629l18.105,2.145h.007a16.512,16.512,0,0,0,2.546-2.42,20.858,20.858,0,0,0,2.582-3.246.408.408,0,0,0-.036-.382.389.389,0,0,0-.318-.177l-22.716-.331Z" transform="translate(-458.11 -272.22)" fill="none"/>
    </clipPath>
    <linearGradient id="linear-gradient-6" x1="-2.227" y1="9.384" x2="-2.223" y2="9.384" xlink:href="#linear-gradient"/>
    <clipPath id="clip-path-14">
      <path id="Path_2850" data-name="Path 2850" d="M445.94,299.211l.108.014c.576.075,14.144,1.847,15.185,1.93h.041c.875,0,2.835-2.334,3.925-3.726a.41.41,0,0,0,.052-.418.388.388,0,0,0-.327-.236L446.282,295.3Z" transform="translate(-445.94 -295.3)" fill="none"/>
    </clipPath>
    <linearGradient id="linear-gradient-7" x1="-2.607" y1="10.057" x2="-2.601" y2="10.057" xlink:href="#linear-gradient"/>
    <clipPath id="clip-path-16">
      <path id="Path_2852" data-name="Path 2852" d="M430.036,320.36a.386.386,0,0,0-.332.189l-.668,1.1a.415.415,0,0,0-.027.374.393.393,0,0,0,.274.232c2.751.63,11.812,2.683,12.88,2.683h0c.964,0,2.284-1.822,2.985-2.908a.406.406,0,0,0,.022-.405.389.389,0,0,0-.322-.217l-14.784-1.045Z" transform="translate(-428.976 -320.36)" fill="none"/>
    </clipPath>
    <linearGradient id="linear-gradient-8" x1="-2.984" y1="12.246" x2="-2.977" y2="12.246" xlink:href="#linear-gradient"/>
    <clipPath id="clip-path-18">
      <path id="Path_2873" data-name="Path 2873" d="M275.665,385.714l2.578-1.019,1.066,1.708-1.066-1.708Zm-22.32.508.956-1.53Zm12.882,5.372h0l-1.068-.213c.01-.217.028-.432.057-.641l.2-.061.835.92Zm2.092-1.976.058-.034.069-.016a14.974,14.974,0,0,0,7.018-4.018l2.694-1.066.176-.069.1.16,1.011,1.62c-.045.07-.092.139-.137.208-.376.567-.767,1.108-1.168,1.613q-.564.71-1.16,1.336l-.181-.076L266.7,391.4Zm-13.69-1.6c-.473-.6-.9-1.2-1.283-1.791-.045-.07-.092-.14-.136-.211l.9-1.441.1-.16.176.069,3.078,1.217q.234.223.467.428l-3.629-1.436,3.629,1.436a14.827,14.827,0,0,0,6.151,3.378l.082.083a3.911,3.911,0,0,1,.072,1.6v0l-8.258-1.647c-.089-.092-.178-.185-.266-.279l.01,0-.01,0q-.554-.591-1.082-1.255m-6.29,5.892h36.091V372.251H248.34Z" transform="translate(-248.34 -372.251)" fill="none"/>
    </clipPath>
  </defs>
  <g id="Group_1553" data-name="Group 1553" transform="translate(-249.535 -719.535)">
    <circle id="Ellipse_510" data-name="Ellipse 510" cx="60" cy="60" r="60" transform="translate(249.535 719.535)" fill="#26c593" opacity="0.2"/>
    <circle id="Ellipse_509" data-name="Ellipse 509" cx="44" cy="44" r="44" transform="translate(265.535 735.535)" fill="#26c593"/>
    <g id="Group_1552" data-name="Group 1552" transform="translate(263.258 733.258)">
      <g id="Group_1515" data-name="Group 1515">
        <g id="Group_1514" data-name="Group 1514" clip-path="url(#clip-path)">
          <path id="Path_2836" data-name="Path 2836" d="M55.038,10A45.038,45.038,0,1,1,10,55.038,45.038,45.038,0,0,1,55.038,10" transform="translate(-8.867 -8.867)" fill="#fff"/>
          <path id="Ellipse_511" data-name="Ellipse 511" d="M36.17-10A46.17,46.17,0,1,1-10,36.17,46.223,46.223,0,0,1,36.17-10Zm0,90.076A43.905,43.905,0,1,0-7.735,36.17,43.955,43.955,0,0,0,36.17,80.076Z" transform="translate(10 10)" fill="#2a6627"/>
          <path id="Path_2837" data-name="Path 2837" d="M159.069,47.563,135.856,45.7,122.669,26.07,109.482,45.7,86.27,47.563,96.3,69.057,86.27,90.551l23.212,1.869,13.187,19.625L135.856,92.42l23.213-1.869L149.044,69.057Zm-.959,42.422-23.6.052-11.843,20.877L110.827,90.037l-23.6-.052L98.985,69.057,87.228,48.129l23.6-.05L122.669,27.2l11.843,20.878,23.6.05L146.354,69.057Z" transform="translate(-76.5 -23.118)" fill="#248c39"/>
        </g>
      </g>
      <g id="Group_1517" data-name="Group 1517" transform="translate(12.874 25.425)">
        <g id="Group_1516" data-name="Group 1516" clip-path="url(#clip-path-2)">
          <rect id="Rectangle_2232" data-name="Rectangle 2232" width="29.295" height="6.723" transform="translate(-0.018)" fill="url(#linear-gradient)"/>
        </g>
      </g>
      <g id="Group_1519" data-name="Group 1519">
        <g id="Group_1518" data-name="Group 1518" clip-path="url(#clip-path)">
          <path id="Path_2839" data-name="Path 2839" d="M113.152,223.727h.024l28.767,2.3v4.195H117.4c-.513,0-4.211-4.4-4.5-6.094-.035-.206.061-.4.254-.4m0-.225a.463.463,0,0,0-.358.165.612.612,0,0,0-.119.5,12.322,12.322,0,0,0,2.21,3.782c.506.648,1.028,1.257,1.47,1.717.755.784.942.784,1.042.784h24.772v-4.63l-.208-.017-28.767-2.3h-.041Z" transform="translate(-99.905 -198.188)" fill="#8a898e"/>
        </g>
      </g>
      <g id="Group_1521" data-name="Group 1521" transform="translate(17.187 30.828)">
        <g id="Group_1520" data-name="Group 1520" clip-path="url(#clip-path-4)">
          <rect id="Rectangle_2234" data-name="Rectangle 2234" width="23.292" height="6.555" transform="translate(-0.021 0)" fill="url(#linear-gradient-2)"/>
        </g>
      </g>
      <g id="Group_1523" data-name="Group 1523">
        <g id="Group_1522" data-name="Group 1522" clip-path="url(#clip-path)">
          <path id="Path_2841" data-name="Path 2841" d="M173.882,271.43l.162,4.195-17.992,2.131h0a29.252,29.252,0,0,1-5.023-5.595.288.288,0,0,1,.251-.4Zm.219-.229-.221,0-22.605.33a.5.5,0,0,0-.411.228.521.521,0,0,0-.046.487,20.76,20.76,0,0,0,2.6,3.279c.58.631,1.153,1.224,1.614,1.674.805.783.912.783,1.016.783h.014l.017,0,17.992-2.131.207-.025-.008-.21-.162-4.195-.009-.221Z" transform="translate(-133.702 -240.486)" fill="#8a898e"/>
        </g>
      </g>
      <g id="Group_1525" data-name="Group 1525" transform="translate(22.492 33.442)">
        <g id="Group_1524" data-name="Group 1524" clip-path="url(#clip-path-6)">
          <rect id="Rectangle_2236" data-name="Rectangle 2236" width="19.372" height="5.856" transform="translate(-0.026 0)" fill="url(#linear-gradient-3)"/>
        </g>
      </g>
      <g id="Group_1527" data-name="Group 1527">
        <g id="Group_1526" data-name="Group 1526" clip-path="url(#clip-path)">
          <path id="Path_2843" data-name="Path 2843" d="M216.62,294.454l.323,3.691s-14.13,1.846-15.179,1.93h-.032c-.863,0-3.01-2.629-3.836-3.683a.291.291,0,0,1,.195-.471l18.529-1.469m.206-.242-.224.018L198.072,295.7a.5.5,0,0,0-.421.3.522.522,0,0,0,.067.533c1.348,1.719,3.138,3.769,4.014,3.769a.355.355,0,0,0,.05,0c1.043-.084,14.614-1.855,15.19-1.931l.215-.028-.019-.216-.323-3.691Z" transform="translate(-175.227 -260.89)" fill="#8a898e"/>
        </g>
      </g>
      <g id="Group_1529" data-name="Group 1529" transform="translate(27.522 36.282)">
        <g id="Group_1528" data-name="Group 1528" clip-path="url(#clip-path-8)">
          <rect id="Rectangle_2238" data-name="Rectangle 2238" width="16.277" height="4.578" transform="translate(-0.022 0)" fill="url(#linear-gradient-4)"/>
        </g>
      </g>
      <g id="Group_1531" data-name="Group 1531">
        <g id="Group_1530" data-name="Group 1530" clip-path="url(#clip-path)">
          <path id="Path_2845" data-name="Path 2845" d="M257.3,319.587a.279.279,0,0,1,.236.135l.668,1.1a.292.292,0,0,1-.174.437c-2.068.473-11.774,2.68-12.855,2.68-.941,0-2.321-1.975-2.889-2.856a.29.29,0,0,1,.213-.448l14.784-1.045h.019m0-.228h-.035l-14.784,1.045a.5.5,0,0,0-.416.28.516.516,0,0,0,.028.518c.872,1.35,2.113,2.96,3.079,2.96,1.08,0,10.152-2.055,12.906-2.685a.5.5,0,0,0,.352-.3.526.526,0,0,0-.035-.477l-.668-1.1a.5.5,0,0,0-.429-.243Z" transform="translate(-214.605 -283.192)" fill="#8a898e"/>
        </g>
      </g>
      <g id="Group_1533" data-name="Group 1533" transform="translate(50.19 25.425)">
        <g id="Group_1532" data-name="Group 1532" clip-path="url(#clip-path-10)">
          <rect id="Rectangle_2240" data-name="Rectangle 2240" width="29.296" height="6.723" fill="url(#linear-gradient-5)"/>
        </g>
      </g>
      <g id="Group_1535" data-name="Group 1535">
        <g id="Group_1534" data-name="Group 1534" clip-path="url(#clip-path)">
          <path id="Path_2847" data-name="Path 2847" d="M471.187,223.718c.193,0,.289.2.254.4-.288,1.689-3.986,6.094-4.5,6.094H442.4V226.02l28.767-2.3h.024m0-.228h-.042l-28.767,2.3-.208.017v4.63h24.772c.1,0,.287,0,1.042-.784.442-.459.965-1.069,1.47-1.717a12.3,12.3,0,0,0,2.209-3.781.617.617,0,0,0-.119-.5.459.459,0,0,0-.358-.165Z" transform="translate(-392.094 -198.179)" fill="#8a898e"/>
        </g>
      </g>
      <g id="Group_1537" data-name="Group 1537" transform="translate(51.882 30.829)">
        <g id="Group_1536" data-name="Group 1536" clip-path="url(#clip-path-12)">
          <rect id="Rectangle_2242" data-name="Rectangle 2242" width="23.292" height="6.555" transform="translate(0 0)" fill="url(#linear-gradient-6)"/>
        </g>
      </g>
      <g id="Group_1539" data-name="Group 1539">
        <g id="Group_1538" data-name="Group 1538" clip-path="url(#clip-path)">
          <path id="Path_2849" data-name="Path 2849" d="M457.458,271.439l22.605.33a.288.288,0,0,1,.251.4,29.291,29.291,0,0,1-5.023,5.595h0L457.3,275.634l.162-4.195m-.219-.229-.009.221-.162,4.195-.008.21.207.025,17.992,2.131h.014l.017,0c.1,0,.211,0,1.016-.783.461-.448,1.034-1.043,1.614-1.674a20.88,20.88,0,0,0,2.6-3.279.524.524,0,0,0-.046-.487.506.506,0,0,0-.411-.228l-22.605-.33-.221,0Z" transform="translate(-405.297 -240.495)" fill="#8a898e"/>
        </g>
      </g>
      <g id="Group_1541" data-name="Group 1541" transform="translate(50.503 33.443)">
        <g id="Group_1540" data-name="Group 1540" clip-path="url(#clip-path-14)">
          <rect id="Rectangle_2244" data-name="Rectangle 2244" width="19.372" height="5.856" fill="url(#linear-gradient-7)"/>
        </g>
      </g>
      <g id="Group_1543" data-name="Group 1543">
        <g id="Group_1542" data-name="Group 1542" clip-path="url(#clip-path)">
          <path id="Path_2851" data-name="Path 2851" d="M445.427,294.454l18.529,1.469a.291.291,0,0,1,.195.471c-.826,1.053-2.973,3.683-3.836,3.683h-.032c-1.05-.084-15.179-1.93-15.179-1.93l.323-3.691m-.206-.245-.019.224-.323,3.691-.019.216.215.028c.578.076,14.147,1.847,15.19,1.931l.05,0c.877,0,2.667-2.05,4.014-3.769A.524.524,0,0,0,464.4,296a.506.506,0,0,0-.421-.3l-18.529-1.469Z" transform="translate(-394.479 -260.89)" fill="#8a898e"/>
        </g>
      </g>
      <g id="Group_1545" data-name="Group 1545" transform="translate(48.582 36.281)">
        <g id="Group_1544" data-name="Group 1544" clip-path="url(#clip-path-16)">
          <rect id="Rectangle_2246" data-name="Rectangle 2246" width="16.277" height="4.578" transform="translate(-0.019 0)" fill="url(#linear-gradient-8)"/>
        </g>
      </g>
      <g id="Group_1547" data-name="Group 1547">
        <g id="Group_1546" data-name="Group 1546" clip-path="url(#clip-path)">
          <path id="Path_2853" data-name="Path 2853" d="M429.14,319.578h.019l14.784,1.045a.29.29,0,0,1,.213.448c-.569.881-1.948,2.856-2.889,2.856-1.082,0-10.787-2.207-12.855-2.68a.292.292,0,0,1-.174-.437l.668-1.1a.277.277,0,0,1,.236-.135m0-.225h0a.5.5,0,0,0-.429.243l-.668,1.1a.526.526,0,0,0-.035.477.5.5,0,0,0,.352.3c2.754.63,11.825,2.685,12.906,2.685.966,0,2.208-1.609,3.079-2.96a.519.519,0,0,0,.028-.518.5.5,0,0,0-.416-.28l-14.784-1.045h-.034Z" transform="translate(-379.498 -283.183)" fill="#8a898e"/>
          <path id="Path_2854" data-name="Path 2854" d="M269.631,396.789s-10.7,1.29-17.291-19.049l4.885,2.855-.752,1.7-.7,1.566c4.013,8.014,9.278,10.272,12.017,10.907l1.836,2.023Z" transform="translate(-223.762 -334.96)" fill="#f9fbfa"/>
          <path id="Path_2855" data-name="Path 2855" d="M255.246,384.951l-.727.685-2.179,1.969V377.74A51.642,51.642,0,0,0,255.246,384.951Z" transform="translate(-223.762 -334.96)" fill="#cfced1"/>
          <path id="Path_2856" data-name="Path 2856" d="M286.692,448.194v1.51c-9.866.614-14.423-10.768-15.112-12.663l.411-1.331c6.417,12.8,14.7,12.484,14.7,12.484" transform="translate(-240.823 -386.365)" fill="#a0a0a0"/>
          <path id="Path_2857" data-name="Path 2857" d="M250.566,374.645l4.885,2.855L254,380.764c4.013,8.014,9.278,10.272,12.017,10.907l1.836,2.023v1.51c-.259.016-.513.024-.766.024-9.336,0-13.676-10.842-14.347-12.686l-2.179,1.969v-9.865m16.394,19.046h0m.892,0h0m-.016,0h0m-.747,0h0m.718,0h0m-.041,0h0m-.045,0h0m-.062,0h0m-.344,0h0m.268,0h0m-.164,0h0m.082,0h0M250.34,374.25v10.77l.378-.342,1.932-1.746a27.019,27.019,0,0,0,3.841,6.785,16.751,16.751,0,0,0,4.4,3.982,11.848,11.848,0,0,0,6.2,1.755c.257,0,.519-.008.779-.025l.213-.014v-1.81l-.059-.065-1.836-2.023-.048-.052-.069-.016c-2.72-.632-7.864-2.861-11.818-10.693l1.4-3.165.083-.185-.174-.1-4.885-2.855-.341-.2Z" transform="translate(-221.989 -331.866)" fill="#737277"/>
          <path id="Path_2858" data-name="Path 2858" d="M410.34,396.789s10.7,1.29,17.291-19.049l-4.885,2.855.752,1.7.7,1.566c-4.013,8.014-9.278,10.272-12.017,10.907l-1.836,2.023Z" transform="translate(-363.868 -334.96)" fill="#f9fbfa"/>
          <path id="Path_2859" data-name="Path 2859" d="M537.36,384.951l.727.685,2.179,1.969V377.74A51.649,51.649,0,0,1,537.36,384.951Z" transform="translate(-476.503 -334.96)" fill="#cfced1"/>
          <path id="Path_2860" data-name="Path 2860" d="M410.34,448.194v1.51c9.866.614,14.423-10.768,15.112-12.663l-.411-1.331C418.624,448.509,410.34,448.194,410.34,448.194Z" transform="translate(-363.868 -386.365)" fill="#a0a0a0"/>
          <path id="Path_2861" data-name="Path 2861" d="M425.867,374.636V384.5l-2.179-1.969c-.672,1.845-5.01,12.686-14.347,12.686q-.377,0-.766-.024v-1.51l1.836-2.023c2.74-.635,8-2.894,12.017-10.907l-1.447-3.264,4.884-2.855m-16.392,19.046h0m-.892,0h0m.018,0h0m.745,0h0m-.716,0h0m.039,0h0m.053,0h0m.062,0h0m.336,0h0m-.268,0h0m.164,0h0m-.082,0h0m17.16-19.461-.341.2-4.884,2.855-.174.1.083.185,1.4,3.165c-3.955,7.832-9.1,10.061-11.818,10.693l-.069.016-.048.052-1.836,2.023-.059.065v1.81l.213.014c.261.016.522.025.779.025a11.858,11.858,0,0,0,6.2-1.755,16.768,16.768,0,0,0,4.4-3.982,27.018,27.018,0,0,0,3.841-6.785l1.932,1.746.378.342V374.24ZM408.933,393.7v0Z" transform="translate(-362.104 -331.857)" fill="#737277"/>
          <path id="Path_2862" data-name="Path 2862" d="M224.063,137.32v45.726l-10.551-2.1-5.6,2.125,4.18-6.7L218.748,179a.042.042,0,0,0,.045-.069l-8.806-9.185-9.247,7.137,9.4-18.084,8.573,12.329a.06.06,0,0,0,.105-.056l-4.724-12.633,9.971-21.123Z" transform="translate(-178.006 -121.768)" fill="#248c39"/>
          <path id="Path_2863" data-name="Path 2863" d="M406.68,137.32v45.613l10.551-2.217,5.6,2.351-4.18-6.7L411.995,179a.042.042,0,0,1-.045-.069l8.806-9.185L430,176.888l-9.4-18.084-8.573,12.329a.06.06,0,0,1-.105-.056l4.724-12.633-9.971-21.123Z" transform="translate(-360.623 -121.768)" fill="#f9fbfa"/>
          <path id="Path_2864" data-name="Path 2864" d="M218.778,133.161l9.971,21.123-4.724,12.633a.06.06,0,0,0,.058.082.057.057,0,0,0,.048-.026l8.574-12.329,9.4,18.084-9.247-7.137-8.806,9.185a.042.042,0,0,0,.029.072.027.027,0,0,0,.016,0l6.656-2.633,4.18,6.7-5.6-2.351-10.551,2.217v.113l-10.55-2.1-5.6,2.125,4.18-6.7,6.656,2.633.016,0a.043.043,0,0,0,.029-.072l-8.806-9.185-9.247,7.137,9.4-18.084,8.574,12.329a.057.057,0,0,0,.048.026.06.06,0,0,0,.058-.082l-4.724-12.633,9.971-21.123m0-.531-.2.434L208.6,154.186l-.041.086.034.089,4.259,11.392-7.817-11.24-.214-.308-.173.333-9.4,18.084-.473.911.813-.627,9.086-7.013,8.082,8.429L206.891,172l-.176-.069-.1.16-4.18,6.7-.356.57.629-.238,5.54-2.1,10.486,2.092.271.054v-.2l10.3-2.165,5.536,2.324.657.276-.377-.6-4.18-6.7-.1-.16-.176.069-5.87,2.323,8.082-8.429,9.086,7.013.813.627-.473-.911-9.4-18.084-.173-.333-.214.308-7.817,11.24,4.259-11.392.034-.089-.041-.086-9.971-21.123-.2-.434Z" transform="translate(-172.721 -117.609)" fill="#2a6627"/>
        </g>
      </g>
      <g id="Group_1549" data-name="Group 1549" transform="translate(28.125 42.158)">
        <g id="Group_1548" data-name="Group 1548" clip-path="url(#clip-path-18)">
          <path id="Path_2865" data-name="Path 2865" d="M269.631,396.789s-10.7,1.29-17.291-19.049l4.885,2.855-.752,1.7-.7,1.566c4.013,8.014,9.278,10.272,12.017,10.907l1.836,2.023Z" transform="translate(-251.887 -377.118)" fill="#f9fbfa"/>
          <path id="Path_2866" data-name="Path 2866" d="M255.246,384.951l-.727.685-2.179,1.969V377.74A51.642,51.642,0,0,0,255.246,384.951Z" transform="translate(-251.887 -377.118)" fill="#cfced1"/>
          <path id="Path_2867" data-name="Path 2867" d="M286.692,448.194v1.51c-9.866.614-14.423-10.768-15.112-12.663l.411-1.331c6.417,12.8,14.7,12.484,14.7,12.484" transform="translate(-268.948 -428.523)" fill="#a0a0a0"/>
          <path id="Path_2868" data-name="Path 2868" d="M250.566,374.645l4.885,2.855L254,380.764c4.013,8.014,9.278,10.272,12.017,10.907l1.836,2.023v1.51c-.259.016-.513.024-.766.024-9.336,0-13.676-10.842-14.347-12.686l-2.179,1.969v-9.865m16.394,19.046h0m.892,0h0m-.016,0h0m-.747,0h0m.718,0h0m-.041,0h0m-.045,0h0m-.062,0h0m-.344,0h0m.268,0h0m-.164,0h0m.082,0h0M250.34,374.25v10.77l.378-.342,1.932-1.746a27.019,27.019,0,0,0,3.841,6.785,16.751,16.751,0,0,0,4.4,3.982,11.848,11.848,0,0,0,6.2,1.755c.257,0,.519-.008.779-.025l.213-.014v-1.81l-.059-.065-1.836-2.023-.048-.052-.069-.016c-2.72-.632-7.864-2.861-11.818-10.693l1.4-3.165.083-.185-.174-.1-4.885-2.855-.341-.2Z" transform="translate(-250.114 -374.024)" fill="#737277"/>
          <path id="Path_2869" data-name="Path 2869" d="M410.34,396.789s10.7,1.29,17.291-19.049l-4.885,2.855.752,1.7.7,1.566c-4.013,8.014-9.278,10.272-12.017,10.907l-1.836,2.023Z" transform="translate(-391.993 -377.118)" fill="#f9fbfa"/>
          <path id="Path_2870" data-name="Path 2870" d="M537.36,384.951l.727.685,2.179,1.969V377.74A51.649,51.649,0,0,1,537.36,384.951Z" transform="translate(-504.628 -377.118)" fill="#cfced1"/>
          <path id="Path_2871" data-name="Path 2871" d="M410.34,448.194v1.51c9.866.614,14.423-10.768,15.112-12.663l-.411-1.331C418.624,448.509,410.34,448.194,410.34,448.194Z" transform="translate(-391.993 -428.523)" fill="#a0a0a0"/>
          <path id="Path_2872" data-name="Path 2872" d="M425.867,374.636V384.5l-2.179-1.969c-.672,1.845-5.01,12.686-14.347,12.686q-.377,0-.766-.024v-1.51l1.836-2.023c2.74-.635,8-2.894,12.017-10.907l-1.447-3.264,4.884-2.855m-16.392,19.046h0m-.892,0h0m.018,0h0m.745,0h0m-.716,0h0m.039,0h0m.053,0h0m.062,0h0m.336,0h0m-.268,0h0m.164,0h0m-.082,0h0m17.16-19.461-.341.2-4.884,2.855-.174.1.083.185,1.4,3.165c-3.955,7.832-9.1,10.061-11.818,10.693l-.069.016-.048.052-1.836,2.023-.059.065v1.81l.213.014c.261.016.522.025.779.025a11.858,11.858,0,0,0,6.2-1.755,16.768,16.768,0,0,0,4.4-3.982,27.018,27.018,0,0,0,3.841-6.785l1.932,1.746.378.342V374.24ZM408.933,393.7v0Z" transform="translate(-390.229 -374.015)" fill="#737277"/>
        </g>
      </g>
      <g id="Group_1551" data-name="Group 1551">
        <g id="Group_1550" data-name="Group 1550" clip-path="url(#clip-path)">
          <rect id="Rectangle_2248" data-name="Rectangle 2248" width="5.151" height="10.1" transform="translate(43.595 65.591)" fill="#e6e4e7"/>
          <path id="Path_2874" data-name="Path 2874" d="M410.663,165.419v40.506H407.68V158.05h0a.284.284,0,0,1,.241.135l.037.1Z" transform="translate(-361.51 -140.151)" fill="#f9fbfa"/>
          <path id="Path_2875" data-name="Path 2875" d="M384.322,158.05v47.691H381.34V165.749a1.8,1.8,0,0,1,.117-.638l2.587-6.831.035-.091a.283.283,0,0,1,.243-.139" transform="translate(-338.153 -140.151)" fill="#cfced1"/>
          <path id="Line_438" data-name="Line 438" d="M-.887,37.085A.113.113,0,0,1-1,36.972V-.887A.113.113,0,0,1-.887-1a.113.113,0,0,1,.113.113V36.972A.113.113,0,0,1-.887,37.085Z" transform="translate(47.056 28.945)" fill="#7d8182"/>
          <path id="Path_2876" data-name="Path 2876" d="M388.794,581.692l-3.854,2.53v-1.038l2.275-1.494Z" transform="translate(-341.345 -515.813)" fill="#fcfcfc"/>
          <path id="Path_2877" data-name="Path 2877" d="M390.091,584.61v1.039l-5.151,3.379V587.99Z" transform="translate(-341.345 -518.402)" fill="#fcfcfc"/>
          <path id="Path_2878" data-name="Path 2878" d="M390.091,604.18v1.039L384.94,608.6v-1.038Z" transform="translate(-341.345 -535.756)" fill="#fcfcfc"/>
          <path id="Path_2879" data-name="Path 2879" d="M390.091,623.75v1.039l-5.151,3.381V627.13Z" transform="translate(-341.345 -553.109)" fill="#fcfcfc"/>
          <path id="Path_2880" data-name="Path 2880" d="M396.608,643.32v1.04l-2.735,1.794H392.29Z" transform="translate(-347.863 -570.463)" fill="#fcfcfc"/>
          <path id="Path_2881" data-name="Path 2881" d="M361.369,570.139a.65.65,0,0,1-.072.159l-.479.76H348.433l-.479-.76a.649.649,0,0,1-.072-.159.737.737,0,0,1,.072-.6l.479-.76h3.21l2.982.85,2.983-.85h3.21l.479.76A.736.736,0,0,1,361.369,570.139Z" transform="translate(-308.454 -504.365)" fill="#e6e4e7"/>
          <path id="Path_2882" data-name="Path 2882" d="M361.627,580.78a.65.65,0,0,1-.072.159l-.479.76H348.692l-.479-.76a.648.648,0,0,1-.073-.159Z" transform="translate(-308.713 -515.006)" fill="#b4adb4"/>
          <path id="Path_2883" data-name="Path 2883" d="M380.109,668.362s-.009.021-.02.045c-.072.148-.309.592-.309.592h-7.41s-.237-.444-.309-.592a.4.4,0,0,1-.02-.045,4.182,4.182,0,0,1,.33-.942h7.41a4.185,4.185,0,0,1,.33.942" transform="translate(-329.904 -591.834)" fill="#e6e4e7"/>
          <path id="Path_2884" data-name="Path 2884" d="M380.258,676.14c-.072.148-.309.592-.309.592h-7.41s-.237-.444-.309-.592Z" transform="translate(-330.074 -599.566)" fill="#b4adb4"/>
          <path id="Path_2885" data-name="Path 2885" d="M352.848,156.268a.284.284,0,0,1,.241.135l.037.1,2.7,7.134v39.147h3.21l.479.76a.737.737,0,0,1,.072.6.67.67,0,0,1-.072.159l-.479.76h-3.616v8.894h1.129a4.184,4.184,0,0,1,.33.942.259.259,0,0,1-.02.045c-.072.148-.309.592-.309.592h-7.41s-.237-.444-.309-.592a.4.4,0,0,1-.02-.045,4.181,4.181,0,0,1,.33-.942h1.13v-8.894h-3.617l-.479-.76a.669.669,0,0,1-.072-.159.737.737,0,0,1,.072-.6l.479-.76h3.21V163.966a1.8,1.8,0,0,1,.117-.638l2.587-6.831.035-.091a.283.283,0,0,1,.243-.139m0-.227h0a.512.512,0,0,0-.438.25l-.009.016-.007.017-.035.091-2.588,6.832a2.024,2.024,0,0,0-.131.718v38.59h-3.108l-.067.105-.479.76a.957.957,0,0,0-.1.787.893.893,0,0,0,.1.212l.479.76.067.105h3.515v8.441H349l-.06.133c-.392.864-.36,1.025-.343,1.091a.388.388,0,0,0,.031.077l0,.01c.075.152.3.583.314.6l.063.12h7.682l.063-.12c.01-.018.239-.45.313-.6l.007-.015a.4.4,0,0,0,.029-.076c.017-.066.049-.226-.343-1.091l-.06-.133h-1.049v-8.441h3.514l.067-.105.479-.76a.925.925,0,0,0,.1-.213.955.955,0,0,0-.1-.786l-.479-.76-.067-.105h-3.108V163.6l-.015-.038-2.7-7.134-.036-.1-.008-.021-.012-.019a.507.507,0,0,0-.434-.242Z" transform="translate(-306.678 -138.368)" fill="#737277"/>
        </g>
      </g>
    </g>
  </g>
</svg>
