<svg id="Group_886" data-name="Group 886" xmlns="http://www.w3.org/2000/svg" xmlns:xlink="http://www.w3.org/1999/xlink" width="17.684" height="16" viewBox="0 0 17.684 16">
  <defs>
    <clipPath id="clip-path">
      <rect id="Rectangle_1681" data-name="Rectangle 1681" width="17.684" height="16" fill="none"/>
    </clipPath>
  </defs>
  <g id="Group_885" data-name="Group 885" clip-path="url(#clip-path)">
    <path id="Path_1286" data-name="Path 1286" d="M12.211,11.789H5.474c-2.495,0-3.748,0-4.61-.863S0,8.811,0,6.316V5.474C0,2.979,0,1.726.864.863S2.979,0,5.474,0h6.737c2.495,0,3.747,0,4.61.863s.863,2.116.863,4.611v.842c0,2.495,0,3.747-.864,4.61s-2.114.863-4.609.863M5.474.842c-2.263,0-3.4,0-4.015.617S.842,3.21.842,5.474v.842c0,2.263,0,3.4.617,4.014s1.752.617,4.015.617h6.737c2.263,0,3.4,0,4.014-.617s.617-1.751.617-4.014V5.474c0-2.264,0-3.4-.616-4.015S14.474.842,12.211.842Z" fill="#40ae7c"/>
    <path id="Path_1287" data-name="Path 1287" d="M13.9,16a.44.44,0,0,1-.133-.021l-4.92-1.64-4.919,1.64a.422.422,0,0,1-.266-.8l4.764-1.588v-1.8a.421.421,0,0,1,.842,0v1.8l4.765,1.588A.421.421,0,0,1,13.9,16" fill="#40ae7c"/>
  </g>
</svg>
