<svg id="Group_888" data-name="Group 888" xmlns="http://www.w3.org/2000/svg" xmlns:xlink="http://www.w3.org/1999/xlink" width="14.476" height="16" viewBox="0 0 14.476 16">
  <defs>
    <clipPath id="clip-path">
      <rect id="Rectangle_1682" data-name="Rectangle 1682" width="14.476" height="16" fill="none"/>
    </clipPath>
  </defs>
  <g id="Group_887" data-name="Group 887" clip-path="url(#clip-path)">
    <path id="Path_1288" data-name="Path 1288" d="M9.524,16H4.953c-2.258,0-3.391,0-4.172-.781S0,13.305,0,11.048V6.476c0-2.257,0-3.39.781-4.171.715-.714,1.764-.771,3.407-.78l0,.762c-1.642.009-2.4.088-2.873.557C.762,3.4.762,4.429.762,6.476v4.572c0,2.047,0,3.075.558,3.633s1.585.557,3.633.557H9.524c2.047,0,3.075,0,3.632-.557s.558-1.586.558-3.633V6.476c0-2.047,0-3.074-.558-3.632-.468-.469-1.23-.548-2.872-.557l0-.762c1.643.009,2.693.066,3.407.78.781.781.781,1.914.781,4.171v4.572c0,2.257,0,3.39-.781,4.171S11.781,16,9.524,16" fill="#40ae7c"/>
    <path id="Path_1289" data-name="Path 1289" d="M8,9.763H3.048a.286.286,0,1,1,0-.571H8a.286.286,0,1,1,0,.571" fill="#40ae7c"/>
    <path id="Path_1290" data-name="Path 1290" d="M8,7.063H3.048a.286.286,0,1,1,0-.571H8a.286.286,0,1,1,0,.571" fill="#40ae7c"/>
    <path id="Path_1291" data-name="Path 1291" d="M8,12.476H3.048a.286.286,0,1,1,0-.571H8a.286.286,0,1,1,0,.571" fill="#40ae7c"/>
    <path id="Path_1292" data-name="Path 1292" d="M9.143,3.81H5.333A1.526,1.526,0,0,1,3.809,2.286V1.524A1.526,1.526,0,0,1,5.333,0h3.81a1.525,1.525,0,0,1,1.523,1.524v.762A1.525,1.525,0,0,1,9.143,3.81M5.333.762a.763.763,0,0,0-.762.762v.762a.763.763,0,0,0,.762.762h3.81A.762.762,0,0,0,9.9,2.286V1.524A.762.762,0,0,0,9.143.762Z" fill="#40ae7c"/>
    <path id="Path_1293" data-name="Path 1293" d="M10.64,7.445a.182.182,0,0,1-.136-.061l-.347-.389a.182.182,0,0,1,.272-.243l.211.237.732-.82a.182.182,0,1,1,.272.243l-.868.972a.182.182,0,0,1-.136.061" fill="#40ae7c"/>
    <path id="Path_1294" data-name="Path 1294" d="M10.64,10.146a.182.182,0,0,1-.136-.061L10.157,9.7a.182.182,0,0,1,.272-.243l.211.237.732-.82a.182.182,0,1,1,.272.243l-.868.972a.182.182,0,0,1-.136.061" fill="#40ae7c"/>
    <path id="Path_1295" data-name="Path 1295" d="M10.64,12.859A.182.182,0,0,1,10.5,12.8l-.347-.389a.182.182,0,0,1,.272-.243l.211.237.732-.82a.182.182,0,1,1,.272.243l-.868.972a.182.182,0,0,1-.136.061" fill="#40ae7c"/>
  </g>
</svg>
