<svg xmlns="http://www.w3.org/2000/svg" width="20.554" height="17.009" viewBox="0 0 20.554 17.009">
  <g id="Group_952" data-name="Group 952" transform="translate(-0.5 -1.491)">
    <g id="Group_951" data-name="Group 951">
      <path id="Path_1356" data-name="Path 1356" d="M20.063,6.538,11.175,2.093a.889.889,0,0,0-.8,0L1.491,6.538a.886.886,0,0,0-.4.412,1.1,1.1,0,0,0-.1.384v5.124a.89.89,0,0,0,1.778,0V8.647l1.778.711v4.358a.89.89,0,0,0,.492.8,11.458,11.458,0,0,0,5.73,1.706,11.464,11.464,0,0,0,5.73-1.706.891.891,0,0,0,.492-.8V9.358l3-1.2a.891.891,0,0,0,.067-1.621Zm-4.842,6.629-.867.433a8.033,8.033,0,0,1-7.155,0l-.867-.433v-3.1l4.114,1.646a.887.887,0,0,0,.331.062.871.871,0,0,0,.331-.063l4.114-1.646ZM10.777,9.931,4.057,7.242l6.721-3.359L17.5,7.242,10.777,9.931ZM1.889,14.444A.889.889,0,0,0,1,15.333V17.11a.889.889,0,0,0,1.778,0V15.333A.889.889,0,0,0,1.889,14.444Z" fill="#65899c" stroke="#fff" stroke-width="1"/>
    </g>
  </g>
</svg>
