<svg id="Group_890" data-name="Group 890" xmlns="http://www.w3.org/2000/svg" xmlns:xlink="http://www.w3.org/1999/xlink" width="16" height="16" viewBox="0 0 16 16">
  <defs>
    <clipPath id="clip-path">
      <rect id="Rectangle_1683" data-name="Rectangle 1683" width="16" height="16" fill="none"/>
    </clipPath>
  </defs>
  <g id="Group_889" data-name="Group 889" clip-path="url(#clip-path)">
    <path id="Path_1296" data-name="Path 1296" d="M8,16a8,8,0,1,1,8-8,8.009,8.009,0,0,1-8,8M8,.762A7.238,7.238,0,1,0,15.238,8,7.246,7.246,0,0,0,8,.762" fill="#40ae7c"/>
    <path id="Path_1297" data-name="Path 1297" d="M6.912,11.431a.88.88,0,0,1-.549-.194c-.507-.38-.544-1.017-.618-2.284-.019-.333-.031-.66-.031-.953s.012-.62.031-.952c.074-1.268.111-1.9.617-2.286.574-.431,1.149-.08,2.02.449.22.133.433.27.619.4.212.149.444.329.678.519.854.7,1.369,1.116,1.369,1.869s-.515,1.171-1.367,1.867c-.236.192-.468.372-.682.521-.184.131-.4.267-.617.4a3.279,3.279,0,0,1-1.47.643M6.93,5.337a.18.18,0,0,0-.11.034c-.224.168-.258.752-.314,1.72-.018.317-.03.629-.03.909s.012.591.03.909c.056.967.09,1.551.315,1.72.145.108.436-.048,1.166-.491.2-.125.4-.25.575-.373.2-.141.417-.309.635-.488.81-.659,1.089-.906,1.089-1.277s-.28-.619-1.088-1.278c-.219-.178-.435-.346-.636-.487-.174-.123-.372-.249-.575-.373A3.108,3.108,0,0,0,6.93,5.337" fill="#40ae7c"/>
  </g>
</svg>
