<svg id="Group_909" data-name="Group 909" xmlns="http://www.w3.org/2000/svg" xmlns:xlink="http://www.w3.org/1999/xlink" width="20" height="20" viewBox="0 0 20 20">
  <defs>
    <clipPath id="clip-path">
      <rect id="Rectangle_1693" data-name="Rectangle 1693" width="20" height="20" fill="none"/>
    </clipPath>
  </defs>
  <g id="Group_908" data-name="Group 908" clip-path="url(#clip-path)">
    <path id="Path_1326" data-name="Path 1326" d="M4.286,14.285H4.271a.495.495,0,0,1-.311-.127h0l-.02-.019h0a.5.5,0,0,1-.092-.144.472.472,0,0,1-.035-.168h0V10.953a.476.476,0,1,1,.953,0V12.66l2.52-2.521a.476.476,0,0,1,.674.674l-2.521,2.52H7.142a.476.476,0,1,1,0,.952H4.286Zm6.19-6.19a.476.476,0,0,1-.336-.812l2.52-2.521H10.953a.476.476,0,1,1,0-.952h2.856a.041.041,0,0,0,.013,0h0a.5.5,0,0,1,.168.036.5.5,0,0,1,.144.092h0a.137.137,0,0,1,.02.019h0a.5.5,0,0,1,.092.144.5.5,0,0,1,.036.168h0V7.143a.476.476,0,1,1-.953,0V5.435l-2.521,2.52a.471.471,0,0,1-.336.14" transform="translate(0.952 0.952)" fill="#40ae7c"/>
    <path id="Path_1327" data-name="Path 1327" d="M13.809,14.285H10.953a.476.476,0,1,1,0-.952H12.66l-2.521-2.52a.476.476,0,0,1,.674-.674l2.52,2.521V10.953a.476.476,0,1,1,.952,0v2.869h0a.472.472,0,0,1-.035.168.5.5,0,0,1-.092.144h0l-.02.019h0a.494.494,0,0,1-.311.127h-.015ZM7.619,8.1a.471.471,0,0,1-.336-.14L4.761,5.435V7.143a.476.476,0,1,1-.952,0V4.274h0A.5.5,0,0,1,3.845,4.1a.5.5,0,0,1,.092-.144h0a.137.137,0,0,1,.02-.019h0A.5.5,0,0,1,4.1,3.845a.5.5,0,0,1,.168-.036h0a.042.042,0,0,0,.012,0H7.143a.476.476,0,1,1,0,.952H5.435l2.52,2.521a.476.476,0,0,1-.336.812" transform="translate(0.952 0.952)" fill="#40ae7c"/>
    <path id="Path_1328" data-name="Path 1328" d="M10,20c-4.615,0-6.931,0-8.466-1.534S0,14.615,0,10,0,3.069,1.534,1.534,5.385,0,10,0s6.931,0,8.466,1.534S20,5.385,20,10s0,6.931-1.534,8.466S14.615,20,10,20M10,.953c-4.352,0-6.537,0-7.793,1.255S.953,5.648.953,10s0,6.536,1.255,7.792S5.648,19.048,10,19.048s6.537,0,7.792-1.255S19.048,14.351,19.048,10s0-6.537-1.255-7.793S14.353.953,10,.953" fill="#40ae7c"/>
  </g>
</svg>
