<svg id="Group_913" data-name="Group 913" xmlns="http://www.w3.org/2000/svg" xmlns:xlink="http://www.w3.org/1999/xlink" width="15.714" height="10" viewBox="0 0 15.714 10">
  <defs>
    <clipPath id="clip-path">
      <rect id="Rectangle_1695" data-name="Rectangle 1695" width="15.714" height="10" fill="none"/>
    </clipPath>
  </defs>
  <g id="Group_912" data-name="Group 912" clip-path="url(#clip-path)">
    <path id="Path_1330" data-name="Path 1330" d="M5,0a.714.714,0,0,1,.5,1.219L2.439,4.286H15a.714.714,0,0,1,0,1.429H2.439L5.5,8.781a.714.714,0,0,1-1.01,1.01L.211,5.506.194,5.489h0A.718.718,0,0,1,0,5.021H0V4.982H0a.718.718,0,0,1,.192-.467h0l.016-.017L4.495.209A.713.713,0,0,1,5,0" fill="#40ae7c"/>
  </g>
</svg>
