<svg id="Group_911" data-name="Group 911" xmlns="http://www.w3.org/2000/svg" xmlns:xlink="http://www.w3.org/1999/xlink" width="15.714" height="10" viewBox="0 0 15.714 10">
  <defs>
    <clipPath id="clip-path">
      <rect id="Rectangle_1694" data-name="Rectangle 1694" width="15.714" height="10" fill="none"/>
    </clipPath>
  </defs>
  <g id="Group_910" data-name="Group 910" clip-path="url(#clip-path)">
    <path id="Path_1329" data-name="Path 1329" d="M10.714,10a.714.714,0,0,1-.505-1.219l3.066-3.066H.714a.714.714,0,1,1,0-1.429H13.276L10.209,1.219a.714.714,0,0,1,1.01-1.01L15.5,4.494l.016.017h0a.718.718,0,0,1,.193.467h0v.036h0a.718.718,0,0,1-.193.467h0l-.016.017L11.219,9.791a.713.713,0,0,1-.505.209" transform="translate(0 0)" fill="#40ae7c"/>
  </g>
</svg>
