<svg id="Group_921" data-name="Group 921" xmlns="http://www.w3.org/2000/svg" xmlns:xlink="http://www.w3.org/1999/xlink" width="20" height="20" viewBox="0 0 20 20">
  <defs>
    <clipPath id="clip-path">
      <rect id="Rectangle_1699" data-name="Rectangle 1699" width="20" height="20" fill="none"/>
    </clipPath>
  </defs>
  <g id="Group_920" data-name="Group 920" clip-path="url(#clip-path)">
    <path id="Path_1334" data-name="Path 1334" d="M8.915,14a4.5,4.5,0,0,1-3.244-1.374,4.762,4.762,0,0,1,0-6.612,4.514,4.514,0,0,1,6.14-.321V4.417a.417.417,0,0,1,.834,0V6.68a.419.419,0,0,1-.12.291h0l-.015.014h0a.4.4,0,0,1-.126.079h0a.418.418,0,0,1-.131.029c0,.005-.014,0-.022,0H10.02a.417.417,0,0,1,0-.834h1.175a3.679,3.679,0,0,0-4.928.331,3.923,3.923,0,0,0,0,5.448,3.681,3.681,0,0,0,5.295,0,3.888,3.888,0,0,0,1.071-3.206.417.417,0,0,1,.827-.1,4.721,4.721,0,0,1-1.3,3.89A4.5,4.5,0,0,1,8.915,14" transform="translate(1.084 1)" fill="#40ae7c"/>
    <path id="Path_1335" data-name="Path 1335" d="M10,20c-4.615,0-6.931,0-8.466-1.534S0,14.615,0,10,0,3.069,1.534,1.534,5.385,0,10,0s6.931,0,8.466,1.534S20,5.385,20,10s0,6.931-1.534,8.466S14.615,20,10,20M10,.952c-4.352,0-6.538,0-7.793,1.255S.952,5.648.952,10s0,6.536,1.255,7.792S5.648,19.048,10,19.048s6.537,0,7.792-1.255S19.048,14.351,19.048,10s0-6.538-1.255-7.793S14.352.952,10,.952" fill="#40ae7c"/>
  </g>
</svg>
