<svg xmlns="http://www.w3.org/2000/svg" xmlns:xlink="http://www.w3.org/1999/xlink" width="10.755" height="10.754" viewBox="0 0 10.755 10.754">
  <defs>
    <clipPath id="clip-path">
      <rect id="Rectangle_1655" data-name="Rectangle 1655" width="10.755" height="10.754" transform="translate(0 0)" fill="none"/>
    </clipPath>
  </defs>
  <g id="Group_847" data-name="Group 847" transform="translate(0 0)">
    <path id="Path_1024" data-name="Path 1024" d="M5.377,5.376,1,9.753,5.377,5.376,1,1,5.378,5.377,9.755,1,5.378,5.377,9.755,9.754Z" fill="#178368"/>
    <path id="Path_1025" data-name="Path 1025" d="M1.065,1.063h0L1,1Zm8.627,0L9.755,1Z" fill="#178368"/>
    <path id="Path_1026" data-name="Path 1026" d="M1.065,1.063l.063.063Zm8.627,0-.063.063Z" fill="#178368"/>
    <path id="Path_1027" data-name="Path 1027" d="M1.128,1.126l.063.063Zm8.5,0-.063.063Z" fill="#178368"/>
    <path id="Path_1028" data-name="Path 1028" d="M1.191,1.189l.063.063Zm8.375,0L9.5,1.252Z" fill="#178368"/>
    <path id="Path_1029" data-name="Path 1029" d="M1.253,1.252l.063.063h0l-.063-.063Zm8.25,0-.063.063Z" fill="#178368"/>
    <path id="Path_1030" data-name="Path 1030" d="M1.316,1.315l.063.063h0l-.063-.063Zm8.124,0-.063.063Z" fill="#178368"/>
    <path id="Path_1031" data-name="Path 1031" d="M1.379,1.378l.063.062L1.38,1.378Zm8,0-.062.062Z" fill="#178368"/>
    <path id="Path_1032" data-name="Path 1032" d="M1.442,1.44,1.5,1.5Zm7.873,0L9.252,1.5Z" fill="#178368"/>
    <path id="Path_1033" data-name="Path 1033" d="M1.5,1.5l.063.063Zm7.747,0-.063.063Z" fill="#178368"/>
    <path id="Path_1034" data-name="Path 1034" d="M1.568,1.566l.063.063Zm7.621,0-.063.063Z" fill="#178368"/>
    <path id="Path_1035" data-name="Path 1035" d="M1.631,1.629l.063.063Zm7.5,0-.063.063Z" fill="#178368"/>
    <path id="Path_1036" data-name="Path 1036" d="M1.694,1.692l.062.063h0Zm7.369,0L9,1.755Z" fill="#178368"/>
    <path id="Path_1037" data-name="Path 1037" d="M1.756,1.755l.063.063h0l-.063-.063ZM9,1.755l-.063.063Z" fill="#178368"/>
    <path id="Path_1038" data-name="Path 1038" d="M1.819,1.818l.063.063h0L1.82,1.818Zm7.118,0-.063.063Z" fill="#178368"/>
    <path id="Path_1039" data-name="Path 1039" d="M1.882,1.881l.063.063h0l-.063-.063Zm6.992,0-.063.063Z" fill="#178368"/>
    <path id="Path_1040" data-name="Path 1040" d="M1.945,1.944l.063.062-.062-.062Zm6.866,0-.062.062Z" fill="#178368"/>
    <path id="Path_1041" data-name="Path 1041" d="M2.008,2.006l.063.063Zm6.741,0-.063.063Z" fill="#178368"/>
    <path id="Path_1042" data-name="Path 1042" d="M2.071,2.069l.063.063Zm6.615,0-.063.063Z" fill="#178368"/>
    <path id="Path_1043" data-name="Path 1043" d="M2.134,2.132l.063.063Zm6.489,0-.063.063Z" fill="#178368"/>
    <path id="Path_1044" data-name="Path 1044" d="M2.2,2.195l.062.063h0Zm6.363,0L8.5,2.258Z" fill="#178368"/>
    <path id="Path_1045" data-name="Path 1045" d="M2.259,2.258l.063.063h0L2.26,2.258Zm6.238,0-.063.063Z" fill="#178368"/>
    <path id="Path_1046" data-name="Path 1046" d="M2.322,2.321l.063.063h0l-.063-.063Zm6.112,0-.063.063Z" fill="#178368"/>
    <path id="Path_1047" data-name="Path 1047" d="M2.385,2.384l.063.063h0l-.063-.063Zm5.986,0-.063.063Z" fill="#178368"/>
    <path id="Path_1048" data-name="Path 1048" d="M2.448,2.447l.062.062h0l-.062-.062Zm5.86,0-.062.062Z" fill="#178368"/>
    <path id="Path_1049" data-name="Path 1049" d="M2.511,2.509l.063.063Zm5.735,0-.063.063Z" fill="#178368"/>
    <path id="Path_1050" data-name="Path 1050" d="M2.574,2.572l.063.063Zm5.609,0-.063.063Z" fill="#178368"/>
    <path id="Path_1051" data-name="Path 1051" d="M2.637,2.635,2.7,2.7Zm5.483,0L8.057,2.7Z" fill="#178368"/>
    <path id="Path_1052" data-name="Path 1052" d="M2.7,2.7l.062.063h0Zm5.357,0-.063.063Z" fill="#178368"/>
    <path id="Path_1053" data-name="Path 1053" d="M2.762,2.761l.063.063h0l-.063-.063Zm5.232,0-.063.063Z" fill="#178368"/>
    <path id="Path_1054" data-name="Path 1054" d="M2.825,2.824l.063.063h0l-.063-.063Zm5.106,0-.063.063Z" fill="#178368"/>
    <path id="Path_1055" data-name="Path 1055" d="M2.888,2.887l.063.063h0l-.063-.063Zm4.98,0L7.8,2.95Z" fill="#178368"/>
    <path id="Path_1056" data-name="Path 1056" d="M2.951,2.95l.063.063h0L2.952,2.95Zm4.854,0-.063.063Z" fill="#178368"/>
    <path id="Path_1057" data-name="Path 1057" d="M3.014,3.013l.062.062h0l-.062-.062Zm4.728,0-.062.062Z" fill="#178368"/>
    <path id="Path_1058" data-name="Path 1058" d="M3.077,3.075l.063.063Zm4.6,0-.063.063Z" fill="#178368"/>
    <path id="Path_1059" data-name="Path 1059" d="M3.14,3.138,3.2,3.2Zm4.477,0L7.554,3.2Z" fill="#178368"/>
    <path id="Path_1060" data-name="Path 1060" d="M3.2,3.2l.063.063h0L3.2,3.2Zm4.352,0-.063.063Z" fill="#178368"/>
    <path id="Path_1061" data-name="Path 1061" d="M3.265,3.264l.063.063h0l-.063-.063Zm4.226,0-.063.063Z" fill="#178368"/>
    <path id="Path_1062" data-name="Path 1062" d="M3.328,3.327l.063.063h0l-.063-.063Zm4.1,0-.063.063Z" fill="#178368"/>
    <path id="Path_1063" data-name="Path 1063" d="M3.391,3.39l.063.063h0L3.392,3.39Zm3.974,0L7.3,3.453Z" fill="#178368"/>
    <path id="Path_1064" data-name="Path 1064" d="M3.454,3.453l.063.063h0l-.063-.063Zm3.848,0-.063.063Z" fill="#178368"/>
    <path id="Path_1065" data-name="Path 1065" d="M3.517,3.516l.062.062h0l-.062-.062Zm3.722,0-.062.062Z" fill="#178368"/>
    <path id="Path_1066" data-name="Path 1066" d="M3.58,3.578l.063.063Zm3.6,0-.063.063Z" fill="#178368"/>
    <path id="Path_1067" data-name="Path 1067" d="M3.643,3.641l.063.063Zm3.471,0L7.051,3.7Z" fill="#178368"/>
    <path id="Path_1068" data-name="Path 1068" d="M3.7,3.7l.063.063h0L3.706,3.7Zm3.346,0-.063.063Z" fill="#178368"/>
    <path id="Path_1069" data-name="Path 1069" d="M3.768,3.767l.063.063h0l-.063-.063Zm3.22,0-.063.063Z" fill="#178368"/>
    <path id="Path_1070" data-name="Path 1070" d="M3.831,3.83l.063.063h0L3.832,3.83Zm3.094,0-.063.063Z" fill="#178368"/>
    <path id="Path_1071" data-name="Path 1071" d="M3.894,3.893l.063.063h0l-.063-.063Zm2.968,0L6.8,3.956Z" fill="#178368"/>
    <path id="Path_1072" data-name="Path 1072" d="M3.957,3.956l.063.063h0l-.063-.063Zm2.842,0-.063.063Z" fill="#178368"/>
    <path id="Path_1073" data-name="Path 1073" d="M4.02,4.019l.063.063h0l-.063-.063Zm2.716,0-.063.063Z" fill="#178368"/>
    <path id="Path_1074" data-name="Path 1074" d="M4.083,4.082l.062.062h0l-.062-.062Zm2.59,0-.062.062Z" fill="#178368"/>
    <path id="Path_1075" data-name="Path 1075" d="M4.146,4.144l.062.063h0Zm2.465,0-.063.063Z" fill="#178368"/>
    <path id="Path_1076" data-name="Path 1076" d="M4.208,4.207l.063.063h0l-.063-.063Zm2.34,0-.063.063Z" fill="#178368"/>
    <path id="Path_1077" data-name="Path 1077" d="M4.271,4.27l.063.063h0L4.272,4.27Zm2.214,0-.063.063Z" fill="#178368"/>
    <path id="Path_1078" data-name="Path 1078" d="M4.334,4.333,4.4,4.4h0l-.063-.063Zm2.088,0L6.359,4.4Z" fill="#178368"/>
    <path id="Path_1079" data-name="Path 1079" d="M4.4,4.4l.063.063h0L4.4,4.4Zm1.962,0L6.3,4.459Z" fill="#178368"/>
    <path id="Path_1080" data-name="Path 1080" d="M4.46,4.459l.063.063h0l-.063-.063Zm1.836,0-.063.063Z" fill="#178368"/>
    <path id="Path_1081" data-name="Path 1081" d="M4.523,4.522l.063.063h0l-.063-.063Zm1.71,0-.063.063Z" fill="#178368"/>
    <path id="Path_1082" data-name="Path 1082" d="M4.586,4.585l.063.063h0l-.063-.063Zm1.584,0-.063.063Z" fill="#178368"/>
    <path id="Path_1083" data-name="Path 1083" d="M4.649,4.648l.062.062h0L4.65,4.648Zm1.458,0-.062.062Z" fill="#178368"/>
    <path id="Path_1084" data-name="Path 1084" d="M4.711,4.71l.063.063h0L4.712,4.71Zm1.334,0-.063.063Z" fill="#178368"/>
    <path id="Path_1085" data-name="Path 1085" d="M4.774,4.773l.063.063h0l-.063-.063Zm1.208,0-.063.063Z" fill="#178368"/>
    <path id="Path_1086" data-name="Path 1086" d="M4.837,4.836,4.9,4.9h0l-.063-.063Zm1.082,0L5.856,4.9Z" fill="#178368"/>
    <path id="Path_1087" data-name="Path 1087" d="M4.9,4.9l.063.063h0L4.9,4.9Zm.956,0-.063.063Z" fill="#178368"/>
    <path id="Path_1088" data-name="Path 1088" d="M4.963,4.962l.063.063h0l-.063-.063Zm.83,0-.063.063Z" fill="#178368"/>
    <path id="Path_1089" data-name="Path 1089" d="M5.026,5.025l.063.063h0l-.063-.063Zm.7,0-.063.063Z" fill="#178368"/>
    <path id="Path_1090" data-name="Path 1090" d="M5.089,5.088l.063.063h0L5.09,5.088Zm.578,0L5.6,5.151Z" fill="#178368"/>
    <path id="Path_1091" data-name="Path 1091" d="M5.152,5.151l.062.062h0l-.062-.062Zm.452,0-.062.062Z" fill="#178368"/>
    <path id="Path_1092" data-name="Path 1092" d="M5.214,5.214l.063.063h0l-.063-.063Zm.328,0-.063.063Z" fill="#178368"/>
    <path id="Path_1093" data-name="Path 1093" d="M5.277,5.277l.063.063h0l-.063-.063Zm.2,0-.063.063Z" fill="#178368"/>
    <path id="Path_1094" data-name="Path 1094" d="M5.378,5.378,5.4,5.4ZM5.349,5.4l.027-.027ZM5.34,5.34l.036.036,0,0v0L5.341,5.34Zm.076,0-.038.038Z" fill="#178368"/>
    <path id="Path_1095" data-name="Path 1095" d="M5.35,5.4l-.063.063Zm.054,0,.063.063Z" fill="#178368"/>
    <path id="Path_1096" data-name="Path 1096" d="M5.287,5.466l-.063.063Zm.18,0,.063.063Z" fill="#178368"/>
    <path id="Path_1097" data-name="Path 1097" d="M5.224,5.529l-.063.063Zm.306,0,.063.063Z" fill="#178368"/>
    <path id="Path_1098" data-name="Path 1098" d="M5.161,5.592,5.1,5.655Zm.432,0,.063.063Z" fill="#178368"/>
    <path id="Path_1099" data-name="Path 1099" d="M5.1,5.655l-.063.063Zm.558,0,.063.063Z" fill="#178368"/>
    <path id="Path_1100" data-name="Path 1100" d="M5.035,5.718l-.062.062Zm.684,0,.062.062Z" fill="#178368"/>
    <path id="Path_1101" data-name="Path 1101" d="M4.973,5.78l-.063.063Zm.808,0,.063.063Z" fill="#178368"/>
    <path id="Path_1102" data-name="Path 1102" d="M4.91,5.843l-.063.063Zm.934,0,.063.063Z" fill="#178368"/>
    <path id="Path_1103" data-name="Path 1103" d="M4.847,5.906l-.063.063Zm1.06,0,.063.063Z" fill="#178368"/>
    <path id="Path_1104" data-name="Path 1104" d="M4.784,5.969l-.063.063Zm1.186,0,.063.063Z" fill="#178368"/>
    <path id="Path_1105" data-name="Path 1105" d="M4.721,6.032l-.063.063Zm1.312,0,.063.063Z" fill="#178368"/>
    <path id="Path_1106" data-name="Path 1106" d="M4.658,6.095l-.063.063Zm1.438,0,.063.063Z" fill="#178368"/>
    <path id="Path_1107" data-name="Path 1107" d="M4.595,6.158l-.063.063Zm1.564,0,.063.063Z" fill="#178368"/>
    <path id="Path_1108" data-name="Path 1108" d="M4.532,6.221l-.062.062Zm1.69,0,.062.062Z" fill="#178368"/>
    <path id="Path_1109" data-name="Path 1109" d="M4.47,6.283l-.063.063Zm1.814,0,.063.063Z" fill="#178368"/>
    <path id="Path_1110" data-name="Path 1110" d="M4.407,6.346l-.063.063Zm1.94,0,.063.063Z" fill="#178368"/>
    <path id="Path_1111" data-name="Path 1111" d="M4.344,6.409l-.063.063Zm2.066,0,.063.063Z" fill="#178368"/>
    <path id="Path_1112" data-name="Path 1112" d="M4.281,6.472l-.063.063Zm2.192,0,.063.063Z" fill="#178368"/>
    <path id="Path_1113" data-name="Path 1113" d="M4.218,6.535,4.155,6.6Zm2.318,0L6.6,6.6Z" fill="#178368"/>
    <path id="Path_1114" data-name="Path 1114" d="M4.155,6.6l-.063.063ZM6.6,6.6l.063.063Z" fill="#178368"/>
    <path id="Path_1115" data-name="Path 1115" d="M4.092,6.661l-.063.063Zm2.57,0,.063.063Z" fill="#178368"/>
    <path id="Path_1116" data-name="Path 1116" d="M4.029,6.724l-.063.063Zm2.7,0,.063.063Z" fill="#178368"/>
    <path id="Path_1117" data-name="Path 1117" d="M3.966,6.787l-.051.051Zm2.822,0,.051.051Z" fill="#178368"/>
    <path id="Path_1118" data-name="Path 1118" d="M3.915,6.838l-.053.052Zm2.924,0,.052.052Z" fill="#178368"/>
    <path id="Path_1119" data-name="Path 1119" d="M3.862,6.89l-.052.052Zm3.029,0,.052.052Z" fill="#178368"/>
    <path id="Path_1120" data-name="Path 1120" d="M3.811,6.942l-.052.052Zm3.133,0,.051.052Z" fill="#178368"/>
    <path id="Path_1121" data-name="Path 1121" d="M3.758,6.995l-.052.052ZM7,6.995l.052.052Z" fill="#178368"/>
    <path id="Path_1122" data-name="Path 1122" d="M3.706,7.047,3.654,7.1Zm3.342,0L7.1,7.1Z" fill="#178368"/>
    <path id="Path_1123" data-name="Path 1123" d="M3.654,7.1,3.6,7.15ZM7.1,7.1l.051.051Z" fill="#178368"/>
    <path id="Path_1124" data-name="Path 1124" d="M3.6,7.15,3.55,7.2Zm3.549,0L7.2,7.2Z" fill="#178368"/>
    <path id="Path_1125" data-name="Path 1125" d="M3.551,7.2,3.5,7.255ZM7.2,7.2l.052.052Z" fill="#178368"/>
    <path id="Path_1126" data-name="Path 1126" d="M3.5,7.255l-.052.052Zm3.758,0,.052.052Z" fill="#178368"/>
    <path id="Path_1127" data-name="Path 1127" d="M3.446,7.307l-.052.052Zm3.862,0,.052.052Z" fill="#178368"/>
    <path id="Path_1128" data-name="Path 1128" d="M3.394,7.359l-.053.052Zm3.966,0,.052.052Z" fill="#178368"/>
    <path id="Path_1129" data-name="Path 1129" d="M3.341,7.411l-.052.052Zm4.071,0,.052.052Z" fill="#178368"/>
    <path id="Path_1130" data-name="Path 1130" d="M3.29,7.464l-.051.051Zm4.175,0,.051.051Z" fill="#178368"/>
    <path id="Path_1131" data-name="Path 1131" d="M3.238,7.515l-.052.052Zm4.278,0,.052.052Z" fill="#178368"/>
    <path id="Path_1132" data-name="Path 1132" d="M3.186,7.567l-.052.052Zm4.382,0,.052.052Z" fill="#178368"/>
    <path id="Path_1133" data-name="Path 1133" d="M3.134,7.619l-.053.052Zm4.486,0,.052.052Z" fill="#178368"/>
    <path id="Path_1134" data-name="Path 1134" d="M3.082,7.671l-.052.052Zm4.591,0,.051.052Z" fill="#178368"/>
    <path id="Path_1135" data-name="Path 1135" d="M3.03,7.724l-.052.052Zm4.695,0,.052.052Z" fill="#178368"/>
    <path id="Path_1136" data-name="Path 1136" d="M2.977,7.776l-.051.051Zm4.8,0,.051.051Z" fill="#178368"/>
    <path id="Path_1137" data-name="Path 1137" d="M2.926,7.827l-.052.052Zm4.9,0,.052.052Z" fill="#178368"/>
    <path id="Path_1138" data-name="Path 1138" d="M2.873,7.879l-.052.052Zm5.007,0,.052.052Z" fill="#178368"/>
    <path id="Path_1139" data-name="Path 1139" d="M2.822,7.932l-.052.052Zm5.111,0,.052.052Z" fill="#178368"/>
    <path id="Path_1140" data-name="Path 1140" d="M2.77,7.984l-.053.052Zm5.215,0,.052.052Z" fill="#178368"/>
    <path id="Path_1141" data-name="Path 1141" d="M2.717,8.036l-.052.052Zm5.32,0,.052.052Z" fill="#178368"/>
    <path id="Path_1142" data-name="Path 1142" d="M2.665,8.088l-.052.052Zm5.424,0,.052.052Z" fill="#178368"/>
    <path id="Path_1143" data-name="Path 1143" d="M2.613,8.14l-.052.051Zm5.528,0,.051.051Z" fill="#178368"/>
    <path id="Path_1144" data-name="Path 1144" d="M2.562,8.192l-.052.052Zm5.631,0,.052.052Z" fill="#178368"/>
    <path id="Path_1145" data-name="Path 1145" d="M2.51,8.244,2.457,8.3Zm5.735,0L8.3,8.3Z" fill="#178368"/>
    <path id="Path_1146" data-name="Path 1146" d="M2.457,8.3,2.4,8.348Zm5.84,0,.052.052Z" fill="#178368"/>
    <path id="Path_1147" data-name="Path 1147" d="M2.4,8.348,2.353,8.4Zm5.944,0L8.4,8.4Z" fill="#178368"/>
    <path id="Path_1148" data-name="Path 1148" d="M2.352,8.4,2.3,8.452ZM8.4,8.4l.052.052Z" fill="#178368"/>
    <path id="Path_1149" data-name="Path 1149" d="M2.3,8.453l-.052.052Zm6.153,0,.052.052Z" fill="#178368"/>
    <path id="Path_1150" data-name="Path 1150" d="M2.249,8.505,2.2,8.556Zm6.257,0,.051.051Z" fill="#178368"/>
    <path id="Path_1151" data-name="Path 1151" d="M2.2,8.556l-.052.052Zm6.36,0,.052.052Z" fill="#178368"/>
    <path id="Path_1152" data-name="Path 1152" d="M2.145,8.608l-.052.052Zm6.464,0,.052.052Z" fill="#178368"/>
    <path id="Path_1153" data-name="Path 1153" d="M2.093,8.661l-.052.052Zm6.569,0,.052.052Z" fill="#178368"/>
    <path id="Path_1154" data-name="Path 1154" d="M2.041,8.713l-.052.052Zm6.673,0,.052.052Z" fill="#178368"/>
    <path id="Path_1155" data-name="Path 1155" d="M1.989,8.765l-.053.052Zm6.777,0,.052.052Z" fill="#178368"/>
    <path id="Path_1156" data-name="Path 1156" d="M1.936,8.817l-.051.051Zm6.882,0,.051.051Z" fill="#178368"/>
    <path id="Path_1157" data-name="Path 1157" d="M1.885,8.868l-.053.052Zm6.985,0,.051.052Z" fill="#178368"/>
    <path id="Path_1158" data-name="Path 1158" d="M1.833,8.921l-.052.052Zm7.089,0,.052.052Z" fill="#178368"/>
    <path id="Path_1159" data-name="Path 1159" d="M1.781,8.973l-.052.052Zm7.193,0,.052.052Z" fill="#178368"/>
    <path id="Path_1160" data-name="Path 1160" d="M1.728,9.025l-.052.052Zm7.3,0,.052.052Z" fill="#178368"/>
    <path id="Path_1161" data-name="Path 1161" d="M1.676,9.077l-.052.052Zm7.4,0,.052.052Z" fill="#178368"/>
    <path id="Path_1162" data-name="Path 1162" d="M1.624,9.129l-.052.052Zm7.506,0,.052.052Z" fill="#178368"/>
    <path id="Path_1163" data-name="Path 1163" d="M1.572,9.182l-.051.051Zm7.611,0,.051.051Z" fill="#178368"/>
    <path id="Path_1164" data-name="Path 1164" d="M1.521,9.233l-.052.052Zm7.713,0,.052.052Z" fill="#178368"/>
    <path id="Path_1165" data-name="Path 1165" d="M1.468,9.285l-.052.052Zm7.818,0,.052.052Z" fill="#178368"/>
    <path id="Path_1166" data-name="Path 1166" d="M1.416,9.337l-.052.052Zm7.922,0,.052.052Z" fill="#178368"/>
    <path id="Path_1167" data-name="Path 1167" d="M1.365,9.39l-.053.052Zm8.026,0,.052.052Z" fill="#178368"/>
    <path id="Path_1168" data-name="Path 1168" d="M1.312,9.442l-.052.052Zm8.131,0,.052.052Z" fill="#178368"/>
    <path id="Path_1169" data-name="Path 1169" d="M1.26,9.494l-.051.051Zm8.235,0,.051.051Z" fill="#178368"/>
    <path id="Path_1170" data-name="Path 1170" d="M1.208,9.545,1.156,9.6Zm8.338,0L9.6,9.6Z" fill="#178368"/>
    <path id="Path_1171" data-name="Path 1171" d="M1.156,9.6,1.1,9.649ZM9.6,9.6l.051.052Z" fill="#178368"/>
    <path id="Path_1172" data-name="Path 1172" d="M1.105,9.65,1.052,9.7Zm8.546,0L9.7,9.7Z" fill="#178368"/>
    <path id="Path_1173" data-name="Path 1173" d="M1.052,9.7,1,9.753ZM9.7,9.7l.052.052Z" fill="#178368"/>
    <path id="Path_1174" data-name="Path 1174" d="M9.755,9.754" fill="#178368"/>
    <g id="Group_830" data-name="Group 830">
      <g id="Group_829" data-name="Group 829" clip-path="url(#clip-path)">
        <path id="Path_1175" data-name="Path 1175" d="M9.755,10.754a1,1,0,0,1-.707-.293L5.377,6.79l-3.67,3.67A1,1,0,1,1,.293,9.046l3.67-3.67L.294,1.707A1,1,0,0,1,1.708.293l3.67,3.67L9.048.293a1,1,0,1,1,1.414,1.414l-3.67,3.67,3.67,3.67a1,1,0,0,1-.707,1.707" fill="#178368"/>
      </g>
    </g>
  </g>
</svg>
