<svg xmlns="http://www.w3.org/2000/svg" width="17.976" height="17.778" viewBox="0 0 17.976 17.778">
  <path id="Path_784" data-name="Path 784" d="M106.035,340.569l.753-.753a3.193,3.193,0,1,1,4.515,4.515l-.753.753m-4.515-4.515a5.322,5.322,0,0,0,4.515,4.515m-4.515-4.515-6.918,6.918a11.047,11.047,0,0,0-.9.961,5.293,5.293,0,0,0-.608.983,11.131,11.131,0,0,0-.455,1.239l-.888,2.664m14.288-8.25L103.636,352a11.05,11.05,0,0,1-.961.9,5.294,5.294,0,0,1-.983.608,11.132,11.132,0,0,1-1.239.455l-2.664.888m0,0-.651.218a.862.862,0,0,1-1.09-1.09l.218-.651m1.523,1.523-1.523-1.523" transform="translate(-95.252 -338.131)" fill="none" stroke="#26c593" stroke-width="1.5"/>
</svg>
