<svg id="Group_948" data-name="Group 948" xmlns="http://www.w3.org/2000/svg" xmlns:xlink="http://www.w3.org/1999/xlink" width="20" height="20" viewBox="0 0 20 20">
  <defs>
    <clipPath id="clip-path">
      <rect id="Rectangle_1704" data-name="Rectangle 1704" width="20" height="20" fill="none"/>
    </clipPath>
  </defs>
  <g id="Group_947" data-name="Group 947" clip-path="url(#clip-path)">
    <path id="Path_1345" data-name="Path 1345" d="M13.376,2.652l-.475.526ZM17.12,6.021l-.474.527Zm2.177,2.4-.647.288ZM1.817,18.516l.5-.5Zm16.7,0-.5-.5Zm-6.458.4H8.274v1.418h3.783ZM1.418,8.276H0v3.783H1.418Zm17.5,3.782h1.418v-.413H18.915ZM12.9,3.178l3.745,3.37.948-1.055-3.743-3.37Zm7.433,8.466a8.667,8.667,0,0,0-.389-3.513l-1.295.577a7.563,7.563,0,0,1,.266,2.936Zm-3.688-5.1c1.28,1.151,1.752,1.6,2,2.16l1.295-.577a8.668,8.668,0,0,0-2.351-2.638ZM8.3,1.418a7.518,7.518,0,0,1,2.563.2L11.375.3A8.649,8.649,0,0,0,8.3,0Zm5.547.705A8.633,8.633,0,0,0,11.375.3l-.508,1.325A7.479,7.479,0,0,1,12.9,3.178ZM8.276,18.915a33.942,33.942,0,0,1-4.057-.133,3.065,3.065,0,0,1-1.9-.768l-1,1a4.466,4.466,0,0,0,2.715,1.17,35.13,35.13,0,0,0,4.246.145ZM0,12.058A35.119,35.119,0,0,0,.145,16.3a4.473,4.473,0,0,0,1.17,2.715l1-1a3.065,3.065,0,0,1-.768-1.9,33.931,33.931,0,0,1-.133-4.057Zm12.058,8.276a35.119,35.119,0,0,0,4.246-.145,4.466,4.466,0,0,0,2.715-1.17l-1-1a3.065,3.065,0,0,1-1.9.768,33.931,33.931,0,0,1-4.057.133Zm6.857-8.276a34.26,34.26,0,0,1-.132,4.057,3.072,3.072,0,0,1-.769,1.9l1,1a4.458,4.458,0,0,0,1.17-2.715,34.857,34.857,0,0,0,.145-4.246ZM1.418,8.276a33.931,33.931,0,0,1,.133-4.057,3.065,3.065,0,0,1,.768-1.9l-1-1A4.473,4.473,0,0,0,.145,4.03,35.119,35.119,0,0,0,0,8.276ZM8.3,0A35.439,35.439,0,0,0,4.037.145a4.467,4.467,0,0,0-2.722,1.17l1,1A3.079,3.079,0,0,1,4.226,1.55,34.631,34.631,0,0,1,8.3,1.418Z" transform="translate(0 0)" fill="#40ae7c"/>
    <path id="Path_1346" data-name="Path 1346" d="M17.356,8.5H13.573c-2.356,0-3.539,0-4.37-.831s-.831-2.013-.831-4.37V.931h.946V3.295c0,2.1,0,3.148.554,3.7s1.606.554,3.7.554h3.783Z" transform="translate(2.267 0.252)" fill="#40ae7c"/>
  </g>
</svg>
