<svg id="Group_880" data-name="Group 880" xmlns="http://www.w3.org/2000/svg" xmlns:xlink="http://www.w3.org/1999/xlink" width="20.015" height="16.25" viewBox="0 0 20.015 16.25">
  <defs>
    <clipPath id="clip-path">
      <rect id="Rectangle_1678" data-name="Rectangle 1678" width="20.015" height="16.25" fill="none"/>
    </clipPath>
  </defs>
  <g id="Group_879" data-name="Group 879" clip-path="url(#clip-path)">
    <path id="Path_1273" data-name="Path 1273" d="M10.007,16.125a10.846,10.846,0,0,1-8.584-4.611,4.606,4.606,0,0,1-1.3-3.389,4.61,4.61,0,0,1,1.3-3.388A10.848,10.848,0,0,1,10.007.125a10.845,10.845,0,0,1,8.585,4.611,4.611,4.611,0,0,1,1.3,3.389,4.608,4.608,0,0,1-1.3,3.389,10.848,10.848,0,0,1-8.585,4.611M2.168,10.94a9.943,9.943,0,0,0,7.839,4.244,9.933,9.933,0,0,0,7.838-4.244,3.7,3.7,0,0,0,1.1-2.815,3.7,3.7,0,0,0-1.1-2.815,9.936,9.936,0,0,0-7.839-4.244A9.945,9.945,0,0,0,2.168,5.309a3.708,3.708,0,0,0-1.1,2.816,3.7,3.7,0,0,0,1.1,2.815" fill="#65899c"/>
    <path id="Path_1274" data-name="Path 1274" d="M10.007,16.125a10.846,10.846,0,0,1-8.584-4.611,4.606,4.606,0,0,1-1.3-3.389,4.61,4.61,0,0,1,1.3-3.388A10.848,10.848,0,0,1,10.007.125a10.845,10.845,0,0,1,8.585,4.611,4.611,4.611,0,0,1,1.3,3.389,4.608,4.608,0,0,1-1.3,3.389A10.848,10.848,0,0,1,10.007,16.125ZM2.168,10.94a9.943,9.943,0,0,0,7.839,4.244,9.933,9.933,0,0,0,7.838-4.244,3.7,3.7,0,0,0,1.1-2.815,3.7,3.7,0,0,0-1.1-2.815,9.936,9.936,0,0,0-7.839-4.244A9.945,9.945,0,0,0,2.168,5.309a3.708,3.708,0,0,0-1.1,2.816A3.7,3.7,0,0,0,2.168,10.94Z" fill="none" stroke="#65899c" stroke-width="0.25"/>
    <path id="Path_1275" data-name="Path 1275" d="M10.007,11.419A3.294,3.294,0,1,1,13.3,8.125a3.3,3.3,0,0,1-3.294,3.294m0-5.647A2.353,2.353,0,1,0,12.36,8.125a2.355,2.355,0,0,0-2.353-2.353" fill="#65899c"/>
    <path id="Path_1276" data-name="Path 1276" d="M10.007,11.419A3.294,3.294,0,1,1,13.3,8.125,3.3,3.3,0,0,1,10.007,11.419Zm0-5.647A2.353,2.353,0,1,0,12.36,8.125,2.355,2.355,0,0,0,10.007,5.772Z" fill="none" stroke="#65899c" stroke-width="0.25"/>
  </g>
</svg>
